<svg width="56" height="56" viewBox="0 0 56 56" fill="none" xmlns="http://www.w3.org/2000/svg">
<rect x="0.640625" y="0.47168" width="55.0561" height="55.0561" rx="27.528" fill="#FEECBA"/>
<path d="M33.0927 19.7706C31.7554 18.3614 30.2506 17.1212 28.6118 16.0779C28.4781 15.9975 28.3249 15.9551 28.1688 15.9551C28.0127 15.9551 27.8596 15.9975 27.7258 16.0779C26.087 17.1212 24.5822 18.3614 23.245 19.7706C20.2749 22.889 18.7061 26.3289 18.7061 29.7194C18.7061 32.229 19.703 34.6359 21.4776 36.4106C23.2522 38.1852 25.6591 39.1821 28.1688 39.1821C30.6785 39.1821 33.0854 38.1852 34.86 36.4106C36.6346 34.6359 37.6316 32.229 37.6316 29.7194C37.6316 26.3289 36.0627 22.889 33.0927 19.7706ZM24.7278 34.0206C24.7278 31.0452 27.1505 28.9365 28.1688 28.1817C29.1882 28.9344 31.6098 31.0452 31.6098 34.0206C31.6098 34.9332 31.2473 35.8085 30.602 36.4538C29.9567 37.0991 29.0814 37.4616 28.1688 37.4616C27.2562 37.4616 26.381 37.0991 25.7357 36.4538C25.0903 35.8085 24.7278 34.9332 24.7278 34.0206ZM33.0368 35.7336C33.2311 35.1834 33.3304 34.6041 33.3303 34.0206C33.3303 29.2892 28.8043 26.516 28.6118 26.4009C28.4781 26.3206 28.3249 26.2781 28.1688 26.2781C28.0127 26.2781 27.8596 26.3206 27.7258 26.4009C27.5333 26.516 23.0073 29.2892 23.0073 34.0206C23.0072 34.6041 23.1065 35.1834 23.3009 35.7336C22.4034 35.0091 21.6794 34.0929 21.1821 33.0523C20.6847 32.0116 20.4266 30.8728 20.4266 29.7194C20.4266 26.0192 22.6202 22.9288 24.4611 20.9889C25.5836 19.813 26.8263 18.7581 28.1688 17.8414C29.5116 18.7578 30.7543 19.8128 31.8765 20.9889C35.2111 24.5041 35.9111 27.6763 35.9111 29.7194C35.9111 30.8728 35.6529 32.0116 35.1556 33.0523C34.6582 34.0929 33.9343 35.0091 33.0368 35.7336Z" fill="#202125"/>
</svg>
