<svg width="114" height="114" viewBox="0 0 114 114" fill="none" xmlns="http://www.w3.org/2000/svg">
<rect x="0.888184" y="0.123047" width="112.961" height="112.961" rx="33.8882" fill="#FF8126"/>
<path d="M48.52 56.6038C47.2983 56.6038 46.3079 57.6995 46.3079 59.0513C46.3079 60.403 47.2983 61.4988 48.52 61.4988H66.2172C67.4389 61.4988 68.4293 60.403 68.4293 59.0513C68.4293 57.6995 67.4389 56.6038 66.2172 56.6038H48.52Z" fill="white"/>
<path d="M46.3079 68.8413C46.3079 67.4895 47.2983 66.3938 48.52 66.3938H57.3686C58.5904 66.3938 59.5807 67.4895 59.5807 68.8413C59.5807 70.193 58.5904 71.2888 57.3686 71.2888H48.52C47.2983 71.2888 46.3079 70.193 46.3079 68.8413Z" fill="white"/>
<path fill-rule="evenodd" clip-rule="evenodd" d="M48.5199 34.5764C48.5199 33.2247 47.5295 32.1289 46.3078 32.1289C45.086 32.1289 44.0956 33.2247 44.0956 34.5764V37.2687C39.047 38.4025 35.247 43.3409 35.247 49.2613V68.8411C35.247 75.5996 40.1991 81.0785 46.3078 81.0785H68.4292C74.5378 81.0785 79.4899 75.5996 79.4899 68.8411V49.2613C79.4899 43.3409 75.6899 38.4025 70.6414 37.2687V34.5764C70.6414 33.2247 69.651 32.1289 68.4292 32.1289C67.2075 32.1289 66.2171 33.2247 66.2171 34.5764V37.0239H48.5199V34.5764ZM39.6713 51.7087H75.0657V68.8411C75.0657 72.8963 72.0945 76.1835 68.4292 76.1835H46.3078C42.6426 76.1835 39.6713 72.8963 39.6713 68.8411V51.7087Z" fill="white"/>
</svg>
