<svg width="25" height="25" viewBox="0 0 25 25" fill="none" xmlns="http://www.w3.org/2000/svg">
<path d="M4.19696 20.584H21.5303" stroke="#B05D33"/>
<path d="M2.62797 21.6521C2.49779 21.7788 2.49779 21.9841 2.62797 22.1108C2.75814 22.2374 2.9692 22.2374 3.09937 22.1108L2.62797 21.6521ZM7.76607 17.5702C7.8962 17.4436 7.8962 17.2382 7.76607 17.1116C7.63587 16.9849 7.42481 16.9849 7.29464 17.1116L7.76607 17.5702ZM3.09937 22.1108L7.76607 17.5702L7.29464 17.1116L2.62797 21.6521L3.09937 22.1108Z" fill="#D67B4D"/>
<path d="M2.62797 21.6521C2.49779 21.7788 2.49779 21.9841 2.62797 22.1108C2.75814 22.2374 2.9692 22.2374 3.09937 22.1108L2.62797 21.6521ZM7.76607 17.5702C7.8962 17.4436 7.8962 17.2382 7.76607 17.1116C7.63587 16.9849 7.42481 16.9849 7.29464 17.1116L7.76607 17.5702ZM3.09937 22.1108L7.76607 17.5702L7.29464 17.1116L2.62797 21.6521L3.09937 22.1108Z" fill="#D67B4D"/>
<path d="M23.0994 21.6521C23.2295 21.7788 23.2295 21.9841 23.0994 22.1108C22.9692 22.2374 22.7581 22.2374 22.6279 22.1108L23.0994 21.6521ZM17.9612 17.5702C17.8311 17.4436 17.8311 17.2382 17.9612 17.1116C18.0914 16.9849 18.3025 16.9849 18.4327 17.1116L17.9612 17.5702ZM22.6279 22.1108L17.9612 17.5702L18.4327 17.1116L23.0994 21.6521L22.6279 22.1108Z" fill="#D67B4D"/>
<path d="M23.0994 21.6521C23.2295 21.7788 23.2295 21.9841 23.0994 22.1108C22.9692 22.2374 22.7581 22.2374 22.6279 22.1108L23.0994 21.6521ZM17.9612 17.5702C17.8311 17.4436 17.8311 17.2382 17.9612 17.1116C18.0914 16.9849 18.3025 16.9849 18.4327 17.1116L17.9612 17.5702ZM22.6279 22.1108L17.9612 17.5702L18.4327 17.1116L23.0994 21.6521L22.6279 22.1108Z" fill="#D67B4D"/>
<path fill-rule="evenodd" clip-rule="evenodd" d="M8.19696 3.23507C8.41916 3.11909 8.93029 2.74796 9.19696 2.19127C9.53029 1.4954 9.86363 1.14746 10.8636 1.14746H12.197H14.197C15.197 1.14746 15.5303 1.4954 15.8636 2.19127C16.1303 2.74796 16.6414 3.11909 16.8636 3.23507H18.8636C19.9682 3.23507 20.8636 4.1063 20.8636 5.18102V13.4494C20.8636 17.0319 17.8788 19.9359 14.197 19.9359H10.8636C7.18173 19.9359 4.19696 17.0319 4.19696 13.4494V5.18102C4.19696 4.1063 5.09239 3.23507 6.19696 3.23507H8.19696Z" fill="#42A8C3"/>
<path d="M14.197 3.09298C14.197 3.01615 14.1482 2.93741 14.0724 2.86183C13.688 2.4785 13.0808 2.44434 12.5303 2.44434C11.9798 2.44434 11.3509 2.44852 10.9787 2.84314C10.9083 2.91773 10.8636 3.00101 10.8636 3.09298C10.8636 3.41731 10.8636 3.74163 11.2803 3.74163H13.7803C14.197 3.74163 14.197 3.41731 14.197 3.09298Z" fill="white"/>
<path d="M6.86365 6.96235C6.86365 6.24586 7.4606 5.66504 8.19698 5.66504H16.8636C17.6 5.66504 18.197 6.24586 18.197 6.96235V9.55694C18.197 11.7064 16.4061 13.4488 14.197 13.4488H10.8636C8.65451 13.4488 6.86365 11.7064 6.86365 9.55694V6.96235Z" fill="white"/>
<mask id="mask0_47_7953" style="mask-type:alpha" maskUnits="userSpaceOnUse" x="6" y="5" width="13" height="9">
<path d="M6.86365 6.96235C6.86365 6.24586 7.4606 5.66504 8.19698 5.66504H16.8636C17.6 5.66504 18.197 6.24586 18.197 6.96235V9.55694C18.197 11.7064 16.4061 13.4488 14.197 13.4488H10.8636C8.65451 13.4488 6.86365 11.7064 6.86365 9.55694V6.96235Z" fill="white"/>
</mask>
<g mask="url(#mask0_47_7953)">
<path d="M17.1972 6.63801C17.1972 5.85963 15.975 5.66504 15.1973 5.66504H18.1973L18.1972 13.7732C15.975 13.8812 9.79724 13.7732 10.8639 13.7732C12.1972 13.7732 14.5306 12.8002 15.5306 12.1515C16.4454 11.5582 17.1973 10.5299 17.1972 9.55694V6.63801Z" fill="#C3D3DB"/>
</g>
</svg>
