<svg width="56" height="56" viewBox="0 0 56 56" fill="none" xmlns="http://www.w3.org/2000/svg">
<rect y="0.47168" width="55.0561" height="55.0561" rx="27.528" fill="#76A7FE"/>
<path d="M21.5061 29.7194H17.2049C16.9767 29.7194 16.7579 29.6288 16.5966 29.4674C16.4353 29.3061 16.3446 29.0873 16.3446 28.8591C16.3446 28.631 16.4353 28.4122 16.5966 28.2509C16.7579 28.0895 16.9767 27.9989 17.2049 27.9989H21.0459L22.5105 25.801C22.589 25.683 22.6955 25.5862 22.8204 25.5193C22.9454 25.4523 23.0849 25.4173 23.2266 25.4173C23.3684 25.4173 23.5079 25.4523 23.6329 25.5193C23.7578 25.5862 23.8643 25.683 23.9428 25.801L26.6676 29.8871L27.672 28.3817C27.7506 28.2639 27.8571 28.1673 27.9821 28.1005C28.107 28.0337 28.2465 27.9988 28.3881 27.9989H30.9689C31.1971 27.9989 31.4159 28.0895 31.5772 28.2509C31.7385 28.4122 31.8292 28.631 31.8292 28.8591C31.8292 29.0873 31.7385 29.3061 31.5772 29.4674C31.4159 29.6288 31.1971 29.7194 30.9689 29.7194H28.8484L27.3838 31.9173C27.3053 32.0353 27.1988 32.1321 27.0739 32.199C26.9489 32.266 26.8094 32.301 26.6676 32.301C26.5259 32.301 26.3864 32.266 26.2614 32.199C26.1365 32.1321 26.03 32.0353 25.9515 31.9173L23.2266 27.829L22.2223 29.3344C22.1439 29.4527 22.0375 29.5497 21.9126 29.6169C21.7876 29.684 21.648 29.7193 21.5061 29.7194ZM32.9045 18.5361C30.6839 18.5361 28.7398 19.491 27.5279 21.1051C26.316 19.491 24.3718 18.5361 22.1513 18.5361C20.3838 18.5381 18.6891 19.2412 17.4393 20.491C16.1894 21.7409 15.4864 23.4355 15.4844 25.2031C15.4844 25.2837 15.4844 25.3644 15.4844 25.445C15.4915 25.6732 15.589 25.8892 15.7553 26.0454C15.9217 26.2017 16.1434 26.2855 16.3715 26.2784C16.5997 26.2713 16.8156 26.1738 16.9719 26.0074C17.1282 25.8411 17.212 25.6194 17.2049 25.3913C17.2049 25.3289 17.2049 25.2654 17.2049 25.2031C17.2066 23.8917 17.7283 22.6346 18.6555 21.7073C19.5828 20.78 20.84 20.2583 22.1513 20.2566C24.2428 20.2566 25.9988 21.3707 26.7322 23.16C26.797 23.3178 26.9072 23.4527 27.0489 23.5477C27.1906 23.6427 27.3573 23.6934 27.5279 23.6934C27.6985 23.6934 27.8652 23.6427 28.0069 23.5477C28.1486 23.4527 28.2588 23.3178 28.3236 23.16C29.057 21.3674 30.813 20.2566 32.9045 20.2566C34.2158 20.2583 35.473 20.78 36.4002 21.7073C37.3275 22.6346 37.8492 23.8917 37.8509 25.2031C37.8509 30.9678 29.4893 36.1874 27.5279 37.3326C26.3633 36.6541 22.9438 34.5368 20.3577 31.7184C20.2813 31.6351 20.1892 31.5676 20.0868 31.5199C19.9843 31.4722 19.8735 31.4451 19.7605 31.4402C19.6476 31.4353 19.5348 31.4527 19.4286 31.4914C19.3224 31.5301 19.2248 31.5893 19.1415 31.6657C19.0582 31.7421 18.9908 31.8342 18.943 31.9366C18.8953 32.0391 18.8682 32.15 18.8633 32.2629C18.8584 32.3758 18.8758 32.4886 18.9145 32.5948C18.9532 32.701 19.0124 32.7986 19.0888 32.8819C22.4406 36.538 26.9311 38.9768 27.1204 39.0789C27.2456 39.1463 27.3856 39.1816 27.5279 39.1816C27.6701 39.1816 27.8102 39.1463 27.9354 39.0789C28.4107 38.823 39.5714 32.7303 39.5714 25.2031C39.5694 23.4355 38.8664 21.7409 37.6165 20.491C36.3666 19.2412 34.672 18.5381 32.9045 18.5361Z" fill="#202125"/>
</svg>
