<svg width="356" height="216" viewBox="0 0 356 216" fill="none" xmlns="http://www.w3.org/2000/svg">
<g clip-path="url(#clip0_94_2344)">
<mask id="mask0_94_2344" style="mask-type:luminance" maskUnits="userSpaceOnUse" x="73" y="8" width="201" height="201">
<path d="M244.565 179.62C283.624 140.561 283.624 77.2339 244.565 38.1748C205.506 -0.884221 142.179 -0.884231 103.12 38.1748C64.061 77.2338 64.061 140.561 103.12 179.62C142.179 218.679 205.506 218.679 244.565 179.62Z" fill="white"/>
</mask>
<g mask="url(#mask0_94_2344)">
<path d="M74.7961 171.818L72.9871 173.63L79.9249 180.558L81.734 178.746L74.7961 171.818Z" fill="#FACD49"/>
<path d="M72.9826 178.763L74.7942 180.572L81.7224 173.634L79.9108 171.825L72.9826 178.763Z" fill="#FACD49"/>
<path d="M74.8203 190.147L73.0112 191.959L79.9491 198.887L81.7582 197.076L74.8203 190.147Z" fill="#FACD49"/>
<path d="M72.9971 197.082L74.8087 198.891L81.7369 191.953L79.9253 190.144L72.9971 197.082Z" fill="#FACD49"/>
<path d="M74.8295 207.189L73.0204 209.001L79.9582 215.929L81.7673 214.118L74.8295 207.189Z" fill="#FACD49"/>
<path d="M73.0173 214.152L74.8289 215.961L81.757 209.023L79.9454 207.214L73.0173 214.152Z" fill="#FACD49"/>
<path d="M74.7707 117.539L72.9617 119.351L79.8995 126.279L81.7086 124.467L74.7707 117.539Z" fill="#FACD49"/>
<path d="M72.9441 124.461L74.7557 126.271L81.6839 119.333L79.8723 117.524L72.9441 124.461Z" fill="#FACD49"/>
<path d="M74.771 135.858L72.9619 137.67L79.8998 144.598L81.7088 142.786L74.771 135.858Z" fill="#FACD49"/>
<path d="M72.9629 142.805L74.7745 144.614L81.7027 137.676L79.8911 135.867L72.9629 142.805Z" fill="#FACD49"/>
<path d="M74.7893 152.903L72.9802 154.715L79.9181 161.643L81.7271 159.831L74.7893 152.903Z" fill="#FACD49"/>
<path d="M72.9723 159.849L74.7839 161.658L81.7121 154.72L79.9005 152.911L72.9723 159.849Z" fill="#FACD49"/>
<path d="M74.7324 63.2236L72.9233 65.0352L79.8612 71.9633L81.6703 70.1517L74.7324 63.2236Z" fill="#FACD49"/>
<path d="M72.9147 70.1724L74.7263 71.9814L81.6545 65.0436L79.8429 63.2345L72.9147 70.1724Z" fill="#FACD49"/>
<path d="M74.7323 81.5771L72.9232 83.3887L79.8611 90.3168L81.6701 88.5052L74.7323 81.5771Z" fill="#FACD49"/>
<path d="M72.9386 88.5015L74.7502 90.3105L81.6784 83.3727L79.8668 81.5636L72.9386 88.5015Z" fill="#FACD49"/>
<path d="M74.7508 98.623L72.9418 100.435L79.8796 107.363L81.6887 105.551L74.7508 98.623Z" fill="#FACD49"/>
<path d="M72.949 105.546L74.7606 107.355L81.6888 100.418L79.8772 98.6086L72.949 105.546Z" fill="#FACD49"/>
<path d="M74.6835 8.94816L72.8744 10.7598L79.8122 17.6879L81.6213 15.8763L74.6835 8.94816Z" fill="#FACD49"/>
<path d="M72.881 15.8804L74.6926 17.6895L81.6208 10.7516L79.8092 8.94253L72.881 15.8804Z" fill="#FACD49"/>
<path d="M74.7082 27.2636L72.8992 29.0752L79.837 36.0034L81.6461 34.1918L74.7082 27.2636Z" fill="#FACD49"/>
<path d="M72.8953 34.1997L74.7069 36.0088L81.6351 29.0709L79.8235 27.2619L72.8953 34.1997Z" fill="#FACD49"/>
<path d="M74.7125 44.3085L72.9034 46.1201L79.8413 53.0483L81.6504 51.2367L74.7125 44.3085Z" fill="#FACD49"/>
<path d="M72.9058 51.2583L74.7174 53.0674L81.6456 46.1295L79.834 44.3205L72.9058 51.2583Z" fill="#FACD49"/>
<path d="M94.0725 171.818L92.2634 173.63L99.2013 180.558L101.01 178.746L94.0725 171.818Z" fill="#FACD49"/>
<path d="M92.2527 178.745L94.0643 180.554L100.992 173.616L99.1809 171.807L92.2527 178.745Z" fill="#FACD49"/>
<path d="M112.305 171.799L110.496 173.61L117.434 180.539L119.243 178.727L112.305 171.799Z" fill="#FACD49"/>
<path d="M110.493 178.729L112.305 180.538L119.233 173.6L117.422 171.791L110.493 178.729Z" fill="#FACD49"/>
<path d="M130.512 171.784L128.703 173.596L135.641 180.524L137.45 178.712L130.512 171.784Z" fill="#FACD49"/>
<path d="M128.724 178.725L130.535 180.534L137.463 173.596L135.652 171.787L128.724 178.725Z" fill="#FACD49"/>
<path d="M148.744 171.788L146.935 173.6L153.873 180.528L155.682 178.716L148.744 171.788Z" fill="#FACD49"/>
<path d="M146.915 178.71L148.727 180.52L155.655 173.582L153.843 171.773L146.915 178.71Z" fill="#FACD49"/>
<path d="M166.952 171.759L165.143 173.57L172.081 180.498L173.89 178.687L166.952 171.759Z" fill="#FACD49"/>
<path d="M165.146 178.705L166.958 180.514L173.886 173.576L172.074 171.767L165.146 178.705Z" fill="#FACD49"/>
<path d="M94.0975 190.119L92.2885 191.931L99.2263 198.859L101.035 197.047L94.0975 190.119Z" fill="#FACD49"/>
<path d="M92.2675 197.078L94.0791 198.887L101.007 191.949L99.1957 190.14L92.2675 197.078Z" fill="#FACD49"/>
<path d="M112.305 190.118L110.496 191.93L117.434 198.858L119.243 197.046L112.305 190.118Z" fill="#FACD49"/>
<path d="M110.483 197.073L112.295 198.882L119.223 191.944L117.411 190.135L110.483 197.073Z" fill="#FACD49"/>
<path d="M130.536 190.128L128.727 191.939L135.665 198.868L137.474 197.056L130.536 190.128Z" fill="#FACD49"/>
<path d="M128.724 197.058L130.535 198.867L137.463 191.929L135.652 190.12L128.724 197.058Z" fill="#FACD49"/>
<path d="M148.754 190.103L146.945 191.915L153.883 198.843L155.692 197.032L148.754 190.103Z" fill="#FACD49"/>
<path d="M146.93 197.03L148.741 198.839L155.669 191.901L153.858 190.092L146.93 197.03Z" fill="#FACD49"/>
<path d="M166.977 190.102L165.168 191.914L172.106 198.842L173.915 197.031L166.977 190.102Z" fill="#FACD49"/>
<path d="M165.146 197.024L166.958 198.833L173.886 191.895L172.074 190.086L165.146 197.024Z" fill="#FACD49"/>
<path d="M94.1016 207.179L92.2925 208.99L99.2303 215.918L101.039 214.107L94.1016 207.179Z" fill="#FACD49"/>
<path d="M92.2915 214.123L94.1031 215.932L101.031 208.994L99.2197 207.185L92.2915 214.123Z" fill="#FACD49"/>
<path d="M112.323 207.178L110.514 208.989L117.452 215.917L119.261 214.106L112.323 207.178Z" fill="#FACD49"/>
<path d="M110.493 214.118L112.305 215.927L119.233 208.989L117.422 207.18L110.493 214.118Z" fill="#FACD49"/>
<path d="M130.541 207.173L128.732 208.984L135.67 215.913L137.479 214.101L130.541 207.173Z" fill="#FACD49"/>
<path d="M128.734 214.103L130.545 215.912L137.474 208.974L135.662 207.165L128.734 214.103Z" fill="#FACD49"/>
<path d="M148.763 207.158L146.954 208.97L153.892 215.898L155.701 214.086L148.763 207.158Z" fill="#FACD49"/>
<path d="M146.95 214.099L148.761 215.908L155.689 208.97L153.878 207.161L146.95 214.099Z" fill="#FACD49"/>
<path d="M166.981 207.147L165.172 208.959L172.11 215.887L173.919 214.076L166.981 207.147Z" fill="#FACD49"/>
<path d="M165.156 214.069L166.967 215.878L173.895 208.94L172.084 207.131L165.156 214.069Z" fill="#FACD49"/>
<path d="M94.0341 117.522L92.225 119.334L99.1628 126.262L100.972 124.451L94.0341 117.522Z" fill="#FACD49"/>
<path d="M92.2294 124.456L94.041 126.265L100.969 119.327L99.1576 117.518L92.2294 124.456Z" fill="#FACD49"/>
<path d="M112.266 117.498L110.457 119.31L117.395 126.238L119.204 124.426L112.266 117.498Z" fill="#FACD49"/>
<path d="M110.449 124.44L112.261 126.249L119.189 119.311L117.377 117.502L110.449 124.44Z" fill="#FACD49"/>
<path d="M130.487 117.497L128.678 119.309L135.616 126.237L137.425 124.425L130.487 117.497Z" fill="#FACD49"/>
<path d="M128.665 124.435L130.476 126.244L137.405 119.306L135.593 117.497L128.665 124.435Z" fill="#FACD49"/>
<path d="M148.696 117.469L146.886 119.28L153.824 126.208L155.633 124.397L148.696 117.469Z" fill="#FACD49"/>
<path d="M146.896 124.417L148.707 126.226L155.636 119.288L153.824 117.479L146.896 124.417Z" fill="#FACD49"/>
<path d="M166.918 117.468L165.109 119.279L172.047 126.207L173.856 124.396L166.918 117.468Z" fill="#FACD49"/>
<path d="M165.113 124.412L166.924 126.221L173.852 119.283L172.041 117.474L165.113 124.412Z" fill="#FACD49"/>
<path d="M94.058 135.851L92.2489 137.663L99.1867 144.591L100.996 142.78L94.058 135.851Z" fill="#FACD49"/>
<path d="M92.2431 142.775L94.0547 144.584L100.983 137.646L99.1713 135.837L92.2431 142.775Z" fill="#FACD49"/>
<path d="M112.276 135.827L110.467 137.639L117.405 144.567L119.214 142.755L112.276 135.827Z" fill="#FACD49"/>
<path d="M110.463 142.76L112.275 144.569L119.203 137.631L117.391 135.822L110.463 142.76Z" fill="#FACD49"/>
<path d="M130.498 135.811L128.689 137.623L135.627 144.551L137.436 142.74L130.498 135.811Z" fill="#FACD49"/>
<path d="M128.679 142.754L130.491 144.563L137.419 137.626L135.608 135.817L128.679 142.754Z" fill="#FACD49"/>
<path d="M148.72 135.811L146.911 137.623L153.849 144.551L155.658 142.74L148.72 135.811Z" fill="#FACD49"/>
<path d="M146.896 142.75L148.708 144.559L155.636 137.621L153.824 135.812L146.896 142.75Z" fill="#FACD49"/>
<path d="M166.927 135.797L165.118 137.608L172.056 144.537L173.865 142.725L166.927 135.797Z" fill="#FACD49"/>
<path d="M165.126 142.745L166.938 144.554L173.866 137.616L172.054 135.807L165.126 142.745Z" fill="#FACD49"/>
<path d="M94.062 152.911L92.2529 154.723L99.1908 161.651L101 159.839L94.062 152.911Z" fill="#FACD49"/>
<path d="M92.2526 159.82L94.0642 161.629L100.992 154.691L99.1808 152.882L92.2526 159.82Z" fill="#FACD49"/>
<path d="M112.284 152.883L110.475 154.694L117.413 161.623L119.222 159.811L112.284 152.883Z" fill="#FACD49"/>
<path d="M110.483 159.815L112.295 161.624L119.223 154.686L117.411 152.877L110.483 159.815Z" fill="#FACD49"/>
<path d="M130.516 152.871L128.707 154.683L135.644 161.611L137.453 159.799L130.516 152.871Z" fill="#FACD49"/>
<path d="M128.689 159.799L130.5 161.608L137.429 154.671L135.617 152.861L128.689 159.799Z" fill="#FACD49"/>
<path d="M148.724 152.856L146.915 154.668L153.853 161.596L155.662 159.785L148.724 152.856Z" fill="#FACD49"/>
<path d="M146.906 159.794L148.717 161.604L155.645 154.666L153.834 152.857L146.906 159.794Z" fill="#FACD49"/>
<path d="M166.946 152.842L165.137 154.653L172.075 161.581L173.884 159.77L166.946 152.842Z" fill="#FACD49"/>
<path d="M165.136 159.79L166.947 161.599L173.876 154.661L172.064 152.852L165.136 159.79Z" fill="#FACD49"/>
<path d="M94.0098 63.2226L92.2007 65.0342L99.1385 71.9623L100.948 70.1507L94.0098 63.2226Z" fill="#FACD49"/>
<path d="M92.1996 70.1528L94.0112 71.9619L100.939 65.0241L99.1278 63.215L92.1996 70.1528Z" fill="#FACD49"/>
<path d="M112.218 63.2216L110.409 65.0332L117.346 71.9614L119.155 70.1498L112.218 63.2216Z" fill="#FACD49"/>
<path d="M110.401 70.1489L112.213 71.958L119.141 65.0202L117.329 63.2111L110.401 70.1489Z" fill="#FACD49"/>
<path d="M130.44 63.207L128.631 65.0186L135.568 71.9467L137.378 70.1351L130.44 63.207Z" fill="#FACD49"/>
<path d="M128.632 70.1431L130.444 71.9521L137.372 65.0143L135.561 63.2052L128.632 70.1431Z" fill="#FACD49"/>
<path d="M148.657 63.1816L146.848 64.9932L153.785 71.9213L155.595 70.1097L148.657 63.1816Z" fill="#FACD49"/>
<path d="M146.838 70.1284L148.649 71.9375L155.577 64.9997L153.766 63.1906L146.838 70.1284Z" fill="#FACD49"/>
<path d="M166.889 63.1777L165.08 64.9893L172.018 71.9174L173.827 70.1058L166.889 63.1777Z" fill="#FACD49"/>
<path d="M165.064 70.1138L166.875 71.9229L173.804 64.985L171.992 63.1759L165.064 70.1138Z" fill="#FACD49"/>
<path d="M94.02 81.5517L92.2109 83.3633L99.1488 90.2914L100.958 88.4798L94.02 81.5517Z" fill="#FACD49"/>
<path d="M92.1996 88.4868L94.0112 90.2959L100.939 83.3581L99.1278 81.549L92.1996 88.4868Z" fill="#FACD49"/>
<path d="M112.241 81.537L110.432 83.3486L117.37 90.2768L119.179 88.4652L112.241 81.537Z" fill="#FACD49"/>
<path d="M110.43 88.4819L112.241 90.291L119.17 83.3532L117.358 81.5441L110.43 88.4819Z" fill="#FACD49"/>
<path d="M130.449 81.537L128.64 83.3486L135.578 90.2768L137.387 88.4652L130.449 81.537Z" fill="#FACD49"/>
<path d="M128.632 88.478L130.443 90.2871L137.371 83.3493L135.56 81.5402L128.632 88.478Z" fill="#FACD49"/>
<path d="M148.682 81.498L146.873 83.3096L153.81 90.2377L155.619 88.4261L148.682 81.498Z" fill="#FACD49"/>
<path d="M146.852 88.4478L148.664 90.2568L155.592 83.319L153.78 81.5099L146.852 88.4478Z" fill="#FACD49"/>
<path d="M166.889 81.4833L165.08 83.2949L172.018 90.2231L173.827 88.4115L166.889 81.4833Z" fill="#FACD49"/>
<path d="M165.083 88.4429L166.895 90.252L173.823 83.3141L172.011 81.505L165.083 88.4429Z" fill="#FACD49"/>
<path d="M94.0281 98.6073L92.219 100.419L99.1568 107.347L100.966 105.536L94.0281 98.6073Z" fill="#FACD49"/>
<path d="M92.2193 105.542L94.0309 107.351L100.959 100.413L99.1474 98.6037L92.2193 105.542Z" fill="#FACD49"/>
<path d="M112.246 98.582L110.437 100.394L117.375 107.322L119.184 105.51L112.246 98.582Z" fill="#FACD49"/>
<path d="M110.425 105.526L112.237 107.335L119.165 100.397L117.354 98.588L110.425 105.526Z" fill="#FACD49"/>
<path d="M130.468 98.5673L128.659 100.379L135.597 107.307L137.406 105.495L130.468 98.5673Z" fill="#FACD49"/>
<path d="M128.642 105.522L130.454 107.331L137.382 100.393L135.57 98.5841L128.642 105.522Z" fill="#FACD49"/>
<path d="M148.676 98.5527L146.867 100.364L153.805 107.292L155.614 105.481L148.676 98.5527Z" fill="#FACD49"/>
<path d="M146.887 105.502L148.698 107.312L155.626 100.374L153.815 98.5646L146.887 105.502Z" fill="#FACD49"/>
<path d="M166.907 98.5419L165.098 100.354L172.036 107.282L173.845 105.47L166.907 98.5419Z" fill="#FACD49"/>
<path d="M165.092 105.488L166.904 107.297L173.832 100.359L172.021 98.55L165.092 105.488Z" fill="#FACD49"/>
<path d="M93.9609 8.93156L92.1519 10.7432L99.0897 17.6713L100.899 15.8597L93.9609 8.93156Z" fill="#FACD49"/>
<path d="M92.1515 15.8745L93.9631 17.6836L100.891 10.7457L99.0797 8.93667L92.1515 15.8745Z" fill="#FACD49"/>
<path d="M112.178 8.90715L110.369 10.7188L117.307 17.6469L119.116 15.8353L112.178 8.90715Z" fill="#FACD49"/>
<path d="M110.372 15.8589L112.183 17.668L119.111 10.7301L117.3 8.92105L110.372 15.8589Z" fill="#FACD49"/>
<path d="M130.411 8.90226L128.602 10.7139L135.54 17.642L137.349 15.8304L130.411 8.90226Z" fill="#FACD49"/>
<path d="M128.598 15.8442L130.41 17.6533L137.338 10.7155L135.526 8.9064L128.598 15.8442Z" fill="#FACD49"/>
<path d="M148.632 8.90129L146.823 10.7129L153.761 17.6411L155.57 15.8295L148.632 8.90129Z" fill="#FACD49"/>
<path d="M146.828 15.8257L148.64 17.6348L155.568 10.6969L153.756 8.88784L146.828 15.8257Z" fill="#FACD49"/>
<path d="M166.84 8.88664L165.031 10.6982L171.969 17.6264L173.778 15.8148L166.84 8.88664Z" fill="#FACD49"/>
<path d="M165.045 15.8208L166.856 17.6299L173.784 10.692L171.973 8.88296L165.045 15.8208Z" fill="#FACD49"/>
<path d="M93.9711 27.247L92.162 29.0586L99.0998 35.9868L100.909 34.1752L93.9711 27.247Z" fill="#FACD49"/>
<path d="M92.1657 34.1939L93.9773 36.0029L100.905 29.0651L99.0939 27.256L92.1657 34.1939Z" fill="#FACD49"/>
<path d="M112.193 27.246L110.384 29.0576L117.322 35.9858L119.131 34.1742L112.193 27.246Z" fill="#FACD49"/>
<path d="M110.397 34.189L112.208 35.998L119.136 29.0602L117.325 27.2511L110.397 34.189Z" fill="#FACD49"/>
<path d="M130.424 27.2216L128.615 29.0332L135.553 35.9614L137.362 34.1498L130.424 27.2216Z" fill="#FACD49"/>
<path d="M128.602 34.1743L130.414 35.9834L137.342 29.0456L135.53 27.2365L128.602 34.1743Z" fill="#FACD49"/>
<path d="M148.642 27.2167L146.833 29.0283L153.771 35.9565L155.58 34.1449L148.642 27.2167Z" fill="#FACD49"/>
<path d="M146.828 34.1587L148.64 35.9678L155.568 29.0299L153.756 27.2209L146.828 34.1587Z" fill="#FACD49"/>
<path d="M166.864 27.2157L165.055 29.0273L171.993 35.9555L173.802 34.1439L166.864 27.2157Z" fill="#FACD49"/>
<path d="M165.059 34.1538L166.871 35.9629L173.799 29.025L171.987 27.216L165.059 34.1538Z" fill="#FACD49"/>
<path d="M93.9897 44.3066L92.1807 46.1182L99.1185 53.0463L100.928 51.2347L93.9897 44.3066Z" fill="#FACD49"/>
<path d="M92.1756 51.2388L93.9872 53.0479L100.915 46.11L99.1037 44.3009L92.1756 51.2388Z" fill="#FACD49"/>
<path d="M112.211 44.2909L110.402 46.1025L117.34 53.0307L119.149 51.2191L112.211 44.2909Z" fill="#FACD49"/>
<path d="M110.406 51.2329L112.218 53.042L119.146 46.1041L117.334 44.2951L110.406 51.2329Z" fill="#FACD49"/>
<path d="M130.419 44.2763L128.61 46.0879L135.548 53.0161L137.357 51.2045L130.419 44.2763Z" fill="#FACD49"/>
<path d="M128.622 51.228L130.434 53.0371L137.362 46.0993L135.55 44.2902L128.622 51.228Z" fill="#FACD49"/>
<path d="M148.651 44.2655L146.842 46.0771L153.779 53.0053L155.588 51.1937L148.651 44.2655Z" fill="#FACD49"/>
<path d="M146.828 51.2134L148.64 53.0225L155.568 46.0846L153.756 44.2755L146.828 51.2134Z" fill="#FACD49"/>
<path d="M166.868 44.2607L165.059 46.0723L171.997 53.0004L173.806 51.1888L166.868 44.2607Z" fill="#FACD49"/>
<path d="M165.069 51.1841L166.88 52.9932L173.808 46.0553L171.997 44.2462L165.069 51.1841Z" fill="#FACD49"/>
<path d="M183.367 171.751L181.558 173.562L188.496 180.491L190.305 178.679L183.367 171.751Z" fill="#FACD49"/>
<path d="M181.555 178.691L183.366 180.5L190.294 173.562L188.483 171.753L181.555 178.691Z" fill="#FACD49"/>
<path d="M201.589 171.736L199.78 173.548L206.718 180.476L208.527 178.664L201.589 171.736Z" fill="#FACD49"/>
<path d="M199.786 178.686L201.597 180.495L208.525 173.557L206.714 171.748L199.786 178.686Z" fill="#FACD49"/>
<path d="M219.831 171.735L218.022 173.547L224.96 180.475L226.769 178.663L219.831 171.735Z" fill="#FACD49"/>
<path d="M218.001 178.662L219.813 180.471L226.741 173.533L224.93 171.724L218.001 178.662Z" fill="#FACD49"/>
<path d="M238.038 171.722L236.229 173.533L243.167 180.461L244.976 178.65L238.038 171.722Z" fill="#FACD49"/>
<path d="M236.217 178.657L238.029 180.466L244.957 173.528L243.145 171.719L236.217 178.657Z" fill="#FACD49"/>
<path d="M256.26 171.692L254.451 173.504L261.389 180.432L263.198 178.62L256.26 171.692Z" fill="#FACD49"/>
<path d="M254.462 178.651L256.274 180.46L263.202 173.522L261.391 171.713L254.462 178.651Z" fill="#FACD49"/>
<path d="M183.391 190.081L181.582 191.893L188.52 198.821L190.329 197.009L183.391 190.081Z" fill="#FACD49"/>
<path d="M181.569 197.025L183.381 198.834L190.309 191.896L188.497 190.087L181.569 197.025Z" fill="#FACD49"/>
<path d="M201.598 190.066L199.789 191.878L206.727 198.806L208.536 196.994L201.598 190.066Z" fill="#FACD49"/>
<path d="M199.785 197.02L201.596 198.829L208.524 191.891L206.713 190.082L199.785 197.02Z" fill="#FACD49"/>
<path d="M219.831 190.042L218.022 191.854L224.959 198.782L226.769 196.97L219.831 190.042Z" fill="#FACD49"/>
<path d="M218.006 196.991L219.817 198.8L226.745 191.862L224.934 190.053L218.006 196.991Z" fill="#FACD49"/>
<path d="M238.062 190.037L236.253 191.849L243.19 198.777L244.999 196.965L238.062 190.037Z" fill="#FACD49"/>
<path d="M236.245 196.975L238.057 198.784L244.985 191.846L243.173 190.037L236.245 196.975Z" fill="#FACD49"/>
<path d="M256.27 190.036L254.461 191.848L261.398 198.776L263.208 196.964L256.27 190.036Z" fill="#FACD49"/>
<path d="M254.462 196.971L256.273 198.78L263.201 191.842L261.39 190.033L254.462 196.971Z" fill="#FACD49"/>
<path d="M183.395 207.14L181.586 208.951L188.524 215.879L190.333 214.068L183.395 207.14Z" fill="#FACD49"/>
<path d="M181.579 214.069L183.39 215.878L190.318 208.94L188.507 207.131L181.579 214.069Z" fill="#FACD49"/>
<path d="M201.617 207.111L199.808 208.923L206.746 215.851L208.555 214.039L201.617 207.111Z" fill="#FACD49"/>
<path d="M199.795 214.064L201.607 215.873L208.535 208.935L206.724 207.126L199.795 214.064Z" fill="#FACD49"/>
<path d="M219.839 207.083L218.03 208.895L224.968 215.823L226.777 214.011L219.839 207.083Z" fill="#FACD49"/>
<path d="M218.04 214.045L219.851 215.854L226.78 208.917L224.968 207.108L218.04 214.045Z" fill="#FACD49"/>
<path d="M238.056 207.072L236.247 208.884L243.185 215.812L244.994 214L238.056 207.072Z" fill="#FACD49"/>
<path d="M236.245 214.031L238.057 215.84L244.985 208.902L243.173 207.093L236.245 214.031Z" fill="#FACD49"/>
<path d="M256.288 207.081L254.479 208.893L261.417 215.821L263.226 214.009L256.288 207.081Z" fill="#FACD49"/>
<path d="M254.458 214.016L256.269 215.825L263.197 208.887L261.386 207.078L254.458 214.016Z" fill="#FACD49"/>
<path d="M183.342 117.437L181.533 119.249L188.471 126.177L190.28 124.366L183.342 117.437Z" fill="#FACD49"/>
<path d="M181.525 124.403L183.337 126.212L190.265 119.274L188.453 117.465L181.525 124.403Z" fill="#FACD49"/>
<path d="M201.56 117.446L199.751 119.258L206.689 126.186L208.498 124.374L201.56 117.446Z" fill="#FACD49"/>
<path d="M199.752 124.375L201.563 126.184L208.492 119.246L206.68 117.437L199.752 124.375Z" fill="#FACD49"/>
<path d="M219.782 117.432L217.973 119.243L224.911 126.171L226.72 124.36L219.782 117.432Z" fill="#FACD49"/>
<path d="M217.953 124.383L219.765 126.192L226.693 119.255L224.881 117.445L217.953 124.383Z" fill="#FACD49"/>
<path d="M237.989 117.417L236.18 119.229L243.118 126.157L244.927 124.345L237.989 117.417Z" fill="#FACD49"/>
<path d="M236.183 124.364L237.995 126.173L244.923 119.235L243.111 117.426L236.183 124.364Z" fill="#FACD49"/>
<path d="M256.222 117.406L254.413 119.218L261.351 126.146L263.16 124.334L256.222 117.406Z" fill="#FACD49"/>
<path d="M254.404 124.349L256.216 126.158L263.144 119.22L261.332 117.411L254.404 124.349Z" fill="#FACD49"/>
<path d="M183.342 135.776L181.533 137.588L188.471 144.516L190.28 142.704L183.342 135.776Z" fill="#FACD49"/>
<path d="M181.535 142.732L183.347 144.541L190.275 137.603L188.463 135.794L181.535 142.732Z" fill="#FACD49"/>
<path d="M201.573 135.767L199.764 137.578L206.702 144.506L208.511 142.695L201.573 135.767Z" fill="#FACD49"/>
<path d="M199.755 142.718L201.567 144.527L208.495 137.589L206.683 135.78L199.755 142.718Z" fill="#FACD49"/>
<path d="M219.791 135.761L217.982 137.572L224.92 144.5L226.729 142.689L219.791 135.761Z" fill="#FACD49"/>
<path d="M217.981 142.702L219.793 144.511L226.721 137.573L224.909 135.764L217.981 142.702Z" fill="#FACD49"/>
<path d="M238.013 135.746L236.204 137.558L243.142 144.486L244.951 142.674L238.013 135.746Z" fill="#FACD49"/>
<path d="M236.198 142.697L238.009 144.506L244.937 137.568L243.126 135.759L236.198 142.697Z" fill="#FACD49"/>
<path d="M256.232 135.722L254.423 137.533L261.361 144.461L263.17 142.65L256.232 135.722Z" fill="#FACD49"/>
<path d="M254.418 142.668L256.23 144.478L263.158 137.54L261.347 135.731L254.418 142.668Z" fill="#FACD49"/>
<path d="M183.36 152.836L181.551 154.647L188.489 161.576L190.298 159.764L183.36 152.836Z" fill="#FACD49"/>
<path d="M181.531 159.777L183.343 161.586L190.271 154.648L188.459 152.839L181.531 159.777Z" fill="#FACD49"/>
<path d="M201.578 152.811L199.769 154.623L206.707 161.551L208.516 159.74L201.578 152.811Z" fill="#FACD49"/>
<path d="M199.751 159.762L201.562 161.571L208.491 154.633L206.679 152.824L199.751 159.762Z" fill="#FACD49"/>
<path d="M219.811 152.807L218.001 154.618L224.939 161.546L226.748 159.735L219.811 152.807Z" fill="#FACD49"/>
<path d="M217.991 159.748L219.803 161.557L226.731 154.619L224.92 152.81L217.991 159.748Z" fill="#FACD49"/>
<path d="M238.018 152.792L236.208 154.604L243.146 161.532L244.955 159.72L238.018 152.792Z" fill="#FACD49"/>
<path d="M236.208 159.743L238.019 161.552L244.947 154.614L243.136 152.805L236.208 159.743Z" fill="#FACD49"/>
<path d="M256.24 152.777L254.431 154.589L261.369 161.517L263.178 159.705L256.24 152.777Z" fill="#FACD49"/>
<path d="M254.438 159.723L256.25 161.532L263.178 154.594L261.366 152.785L254.438 159.723Z" fill="#FACD49"/>
<path d="M183.304 63.1708L181.495 64.9824L188.433 71.9106L190.242 70.099L183.304 63.1708Z" fill="#FACD49"/>
<path d="M181.488 70.1011L183.299 71.9102L190.227 64.9723L188.416 63.1632L181.488 70.1011Z" fill="#FACD49"/>
<path d="M201.511 63.1425L199.702 64.9541L206.64 71.8823L208.449 70.0707L201.511 63.1425Z" fill="#FACD49"/>
<path d="M199.704 70.0962L201.515 71.9053L208.444 64.9674L206.632 63.1583L199.704 70.0962Z" fill="#FACD49"/>
<path d="M219.744 63.1318L217.935 64.9434L224.872 71.8715L226.681 70.0599L219.744 63.1318Z" fill="#FACD49"/>
<path d="M217.938 70.0816L219.75 71.8906L226.678 64.9528L224.867 63.1437L217.938 70.0816Z" fill="#FACD49"/>
<path d="M237.965 63.1171L236.156 64.9287L243.094 71.8569L244.903 70.0453L237.965 63.1171Z" fill="#FACD49"/>
<path d="M236.154 70.0757L237.966 71.8848L244.894 64.9469L243.082 63.1379L236.154 70.0757Z" fill="#FACD49"/>
<path d="M256.187 63.1161L254.378 64.9277L261.316 71.8559L263.125 70.0443L256.187 63.1161Z" fill="#FACD49"/>
<path d="M254.356 70.0708L256.168 71.8799L263.096 64.942L261.284 63.133L254.356 70.0708Z" fill="#FACD49"/>
<path d="M183.314 81.4862L181.505 83.2979L188.443 90.226L190.252 88.4144L183.314 81.4862Z" fill="#FACD49"/>
<path d="M181.502 88.4341L183.313 90.2432L190.242 83.3053L188.43 81.4962L181.502 88.4341Z" fill="#FACD49"/>
<path d="M201.535 81.4716L199.726 83.2832L206.664 90.2114L208.473 88.3998L201.535 81.4716Z" fill="#FACD49"/>
<path d="M199.732 88.4155L201.544 90.2246L208.472 83.2868L206.66 81.4777L199.732 88.4155Z" fill="#FACD49"/>
<path d="M219.757 81.4706L217.948 83.2822L224.886 90.2104L226.695 88.3988L219.757 81.4706Z" fill="#FACD49"/>
<path d="M217.934 88.4097L219.746 90.2188L226.674 83.2809L224.862 81.4718L217.934 88.4097Z" fill="#FACD49"/>
<path d="M237.975 81.4462L236.166 83.2578L243.104 90.186L244.913 88.3744L237.975 81.4462Z" fill="#FACD49"/>
<path d="M236.154 88.395L237.966 90.2041L244.894 83.2663L243.082 81.4572L236.154 88.395Z" fill="#FACD49"/>
<path d="M256.197 81.4316L254.388 83.2432L261.326 90.1713L263.135 88.3597L256.197 81.4316Z" fill="#FACD49"/>
<path d="M254.384 88.3901L256.196 90.1992L263.124 83.2614L261.313 81.4523L254.384 88.3901Z" fill="#FACD49"/>
<path d="M183.332 98.5322L181.523 100.344L188.461 107.272L190.27 105.46L183.332 98.5322Z" fill="#FACD49"/>
<path d="M181.526 105.466L183.338 107.275L190.266 100.338L188.454 98.5285L181.526 105.466Z" fill="#FACD49"/>
<path d="M201.554 98.5312L199.745 100.343L206.683 107.271L208.492 105.459L201.554 98.5312Z" fill="#FACD49"/>
<path d="M199.742 105.46L201.553 107.27L208.482 100.332L206.67 98.5226L199.742 105.46Z" fill="#FACD49"/>
<path d="M219.761 98.5302L217.952 100.342L224.89 107.27L226.699 105.458L219.761 98.5302Z" fill="#FACD49"/>
<path d="M217.944 105.469L219.755 107.278L226.683 100.34L224.872 98.5314L217.944 105.469Z" fill="#FACD49"/>
<path d="M237.994 98.4911L236.185 100.303L243.123 107.231L244.932 105.419L237.994 98.4911Z" fill="#FACD49"/>
<path d="M236.164 105.44L237.976 107.249L244.904 100.311L243.093 98.5021L236.164 105.44Z" fill="#FACD49"/>
<path d="M256.202 98.4911L254.393 100.303L261.331 107.231L263.14 105.419L256.202 98.4911Z" fill="#FACD49"/>
<path d="M254.395 105.435L256.207 107.244L263.135 100.306L261.323 98.4972L254.395 105.435Z" fill="#FACD49"/>
<path d="M183.269 8.87981L181.46 10.6914L188.398 17.6196L190.207 15.808L183.269 8.87981Z" fill="#FACD49"/>
<path d="M181.454 15.8218L183.265 17.6309L190.193 10.693L188.382 8.88395L181.454 15.8218Z" fill="#FACD49"/>
<path d="M201.487 8.85538L199.678 10.667L206.616 17.5952L208.425 15.7835L201.487 8.85538Z" fill="#FACD49"/>
<path d="M199.674 15.7935L201.486 17.6025L208.414 10.6647L206.602 8.85561L199.674 15.7935Z" fill="#FACD49"/>
<path d="M219.695 8.84075L217.885 10.6523L224.823 17.5805L226.632 15.7689L219.695 8.84075Z" fill="#FACD49"/>
<path d="M217.89 15.7876L219.702 17.5967L226.63 10.6588L224.818 8.84976L217.89 15.7876Z" fill="#FACD49"/>
<path d="M237.916 8.8261L236.107 10.6377L243.045 17.5659L244.854 15.7543L237.916 8.8261Z" fill="#FACD49"/>
<path d="M236.121 15.7837L237.932 17.5928L244.861 10.6549L243.049 8.84586L236.121 15.7837Z" fill="#FACD49"/>
<path d="M256.158 8.82511L254.349 10.6367L261.287 17.5649L263.096 15.7533L256.158 8.82511Z" fill="#FACD49"/>
<path d="M254.351 15.7446L256.163 17.5537L263.091 10.6159L261.279 8.80678L254.351 15.7446Z" fill="#FACD49"/>
<path d="M183.279 27.1962L181.47 29.0078L188.408 35.936L190.217 34.1244L183.279 27.1962Z" fill="#FACD49"/>
<path d="M181.468 34.1421L183.28 35.9512L190.208 29.0133L188.396 27.2042L181.468 34.1421Z" fill="#FACD49"/>
<path d="M201.511 27.1855L199.702 28.9971L206.64 35.9252L208.449 34.1136L201.511 27.1855Z" fill="#FACD49"/>
<path d="M199.674 34.1275L201.486 35.9365L208.414 28.9987L206.602 27.1896L199.674 34.1275Z" fill="#FACD49"/>
<path d="M219.705 27.1562L217.896 28.9678L224.834 35.8959L226.643 34.0843L219.705 27.1562Z" fill="#FACD49"/>
<path d="M217.905 34.1226L219.717 35.9316L226.645 28.9938L224.833 27.1847L217.905 34.1226Z" fill="#FACD49"/>
<path d="M237.927 27.1562L236.118 28.9678L243.056 35.8959L244.865 34.0843L237.927 27.1562Z" fill="#FACD49"/>
<path d="M236.135 34.103L237.947 35.9121L244.875 28.9743L243.063 27.1652L236.135 34.103Z" fill="#FACD49"/>
<path d="M256.148 27.1552L254.339 28.9668L261.277 35.895L263.086 34.0834L256.148 27.1552Z" fill="#FACD49"/>
<path d="M254.336 34.1128L256.148 35.9219L263.076 28.984L261.265 27.1749L254.336 34.1128Z" fill="#FACD49"/>
<path d="M183.283 44.2411L181.474 46.0527L188.412 52.9809L190.221 51.1693L183.283 44.2411Z" fill="#FACD49"/>
<path d="M181.478 51.187L183.29 52.9961L190.218 46.0582L188.406 44.2492L181.478 51.187Z" fill="#FACD49"/>
<path d="M201.506 44.2402L199.697 46.0518L206.634 52.9799L208.443 51.1683L201.506 44.2402Z" fill="#FACD49"/>
<path d="M199.694 51.1812L201.506 52.9902L208.434 46.0524L206.622 44.2433L199.694 51.1812Z" fill="#FACD49"/>
<path d="M219.723 44.2011L217.914 46.0127L224.852 52.9409L226.661 51.1292L219.723 44.2011Z" fill="#FACD49"/>
<path d="M217.929 51.1528L219.741 52.9619L226.669 46.0241L224.857 44.215L217.929 51.1528Z" fill="#FACD49"/>
<path d="M237.945 44.2011L236.136 46.0127L243.074 52.9409L244.883 51.1293L237.945 44.2011Z" fill="#FACD49"/>
<path d="M236.13 51.147L237.942 52.9561L244.87 46.0182L243.059 44.2091L236.13 51.147Z" fill="#FACD49"/>
<path d="M256.167 44.2001L254.358 46.0117L261.296 52.9399L263.105 51.1283L256.167 44.2001Z" fill="#FACD49"/>
<path d="M254.347 51.1568L256.158 52.9658L263.086 46.028L261.275 44.2189L254.347 51.1568Z" fill="#FACD49"/>
<path d="M275.547 171.695L273.737 173.507L280.675 180.435L282.484 178.623L275.547 171.695Z" fill="#FACD49"/>
<path d="M273.722 178.624L275.534 180.433L282.462 173.495L280.65 171.686L273.722 178.624Z" fill="#FACD49"/>
<path d="M275.547 190.02L273.738 191.832L280.676 198.76L282.485 196.949L275.547 190.02Z" fill="#FACD49"/>
<path d="M273.732 196.966L275.544 198.775L282.472 191.838L280.66 190.028L273.732 196.966Z" fill="#FACD49"/>
<path d="M275.551 207.066L273.742 208.878L280.68 215.806L282.489 213.995L275.551 207.066Z" fill="#FACD49"/>
<path d="M273.743 214.011L275.554 215.82L282.482 208.882L280.671 207.073L273.743 214.011Z" fill="#FACD49"/>
<path d="M275.498 117.391L273.689 119.202L280.627 126.13L282.436 124.319L275.498 117.391Z" fill="#FACD49"/>
<path d="M273.674 124.344L275.486 126.153L282.414 119.215L280.602 117.406L273.674 124.344Z" fill="#FACD49"/>
<path d="M275.508 135.72L273.699 137.531L280.637 144.459L282.446 142.648L275.508 135.72Z" fill="#FACD49"/>
<path d="M273.703 142.664L275.515 144.473L282.443 137.535L280.631 135.726L273.703 142.664Z" fill="#FACD49"/>
<path d="M275.527 152.766L273.718 154.577L280.655 161.505L282.464 159.694L275.527 152.766Z" fill="#FACD49"/>
<path d="M273.712 159.708L275.524 161.518L282.452 154.58L280.641 152.771L273.712 159.708Z" fill="#FACD49"/>
<path d="M275.45 63.0995L273.641 64.9111L280.578 71.8393L282.388 70.0277L275.45 63.0995Z" fill="#FACD49"/>
<path d="M273.641 70.0513L275.453 71.8604L282.381 64.9225L280.569 63.1134L273.641 70.0513Z" fill="#FACD49"/>
<path d="M275.459 81.4286L273.65 83.2402L280.588 90.1684L282.397 88.3568L275.459 81.4286Z" fill="#FACD49"/>
<path d="M273.64 88.3843L275.452 90.1934L282.38 83.2555L280.569 81.4464L273.64 88.3843Z" fill="#FACD49"/>
<path d="M275.479 98.4745L273.67 100.286L280.608 107.214L282.417 105.403L275.479 98.4745Z" fill="#FACD49"/>
<path d="M273.651 105.43L275.463 107.239L282.391 100.301L280.579 98.4923L273.651 105.43Z" fill="#FACD49"/>
<path d="M275.421 8.8095L273.612 10.6211L280.55 17.5493L282.359 15.7377L275.421 8.8095Z" fill="#FACD49"/>
<path d="M273.607 15.7534L275.418 17.5625L282.347 10.6247L280.535 8.81559L273.607 15.7534Z" fill="#FACD49"/>
<path d="M275.446 27.1386L273.637 28.9502L280.574 35.8784L282.384 34.0668L275.446 27.1386Z" fill="#FACD49"/>
<path d="M273.621 34.0728L275.433 35.8818L282.361 28.944L280.549 27.1349L273.621 34.0728Z" fill="#FACD49"/>
<path d="M275.45 44.1845L273.641 45.9961L280.579 52.9243L282.388 51.1126L275.45 44.1845Z" fill="#FACD49"/>
<path d="M273.631 51.1177L275.442 52.9268L282.371 45.9889L280.559 44.1798L273.631 51.1177Z" fill="#FACD49"/>
</g>
<path d="M99.3136 0H95.6561V9.1436H99.3136V0Z" fill="#FF5722"/>
<path d="M99.3136 0H95.6561V9.1436H99.3136V0Z" fill="#FF5722"/>
<path d="M99.3136 150.883H95.6561V160.026H99.3136V150.883Z" fill="#FF5722"/>
<path d="M26.6148 78.1846H17.4712V81.842H26.6148V78.1846Z" fill="#FF5722"/>
<path d="M26.6148 78.1846H17.4712V81.842H26.6148V78.1846Z" fill="#FF5722"/>
<path d="M177.498 78.1846H168.354V81.842H177.498V78.1846Z" fill="#FF5722"/>
<path d="M42.211 22.1423L39.6248 24.7285L46.0903 31.194L48.6765 28.6078L42.211 22.1423Z" fill="#FF5722"/>
<path d="M42.211 22.1423L39.6248 24.7285L46.0903 31.194L48.6765 28.6078L42.211 22.1423Z" fill="#FF5722"/>
<path d="M148.887 128.842L146.301 131.428L152.767 137.893L155.353 135.307L148.887 128.842Z" fill="#FF5722"/>
<path d="M46.0823 128.828L39.6179 135.295L42.2046 137.881L48.6689 131.414L46.0823 128.828Z" fill="#FF5722"/>
<path d="M46.0823 128.828L39.6179 135.295L42.2046 137.881L48.6689 131.414L46.0823 128.828Z" fill="#FF5722"/>
<path d="M152.769 22.1388L146.304 28.6055L148.891 31.1912L155.355 24.7246L152.769 22.1388Z" fill="#FF5722"/>
<path d="M81.0345 1.69012L77.4733 2.52344L79.5566 11.4265L83.1178 10.5932L81.0345 1.69012Z" fill="#FF5722"/>
<path d="M81.0345 1.69012L77.4733 2.52344L79.5566 11.4265L83.1178 10.5932L81.0345 1.69012Z" fill="#FF5722"/>
<path d="M115.418 148.61L111.857 149.443L113.94 158.346L117.501 157.513L115.418 148.61Z" fill="#FF5722"/>
<path d="M28.0701 94.3794L19.1677 96.4658L20.0023 100.027L28.9047 97.9404L28.0701 94.3794Z" fill="#FF5722"/>
<path d="M28.0701 94.3794L19.1677 96.4658L20.0023 100.027L28.9047 97.9404L28.0701 94.3794Z" fill="#FF5722"/>
<path d="M174.98 60.0079L166.077 62.0928L166.911 65.6539L175.814 63.569L174.98 60.0079Z" fill="#FF5722"/>
<path d="M30.4726 36.2643L28.5442 39.3721L36.3136 44.1931L38.242 41.0853L30.4726 36.2643Z" fill="#FF5722"/>
<path d="M30.4726 36.2643L28.5442 39.3721L36.3136 44.1931L38.242 41.0853L30.4726 36.2643Z" fill="#FF5722"/>
<path d="M158.663 115.824L156.734 118.932L164.504 123.753L166.432 120.645L158.663 115.824Z" fill="#FF5722"/>
<path d="M58.5705 139.256L53.7482 147.024L56.8556 148.953L61.6779 141.185L58.5705 139.256Z" fill="#FF5722"/>
<path d="M58.5705 139.256L53.7482 147.024L56.8556 148.953L61.6779 141.185L58.5705 139.256Z" fill="#FF5722"/>
<path d="M138.114 11.0596L133.292 18.8281L136.399 20.7571L141.221 12.9885L138.114 11.0596Z" fill="#FF5722"/>
<path d="M69.6732 4.95728L66.2738 6.30664L69.6472 14.8052L73.0466 13.4558L69.6732 4.95728Z" fill="#FF5722"/>
<path d="M69.6732 4.95728L66.2738 6.30664L69.6472 14.8052L73.0466 13.4558L69.6732 4.95728Z" fill="#FF5722"/>
<path d="M125.325 145.208L121.926 146.558L125.299 155.056L128.699 153.707L125.325 145.208Z" fill="#FF5722"/>
<path d="M30.9358 104.447L22.4373 107.82L23.7866 111.22L32.2852 107.846L30.9358 104.447Z" fill="#FF5722"/>
<path d="M30.9358 104.447L22.4373 107.82L23.7866 111.22L32.2852 107.846L30.9358 104.447Z" fill="#FF5722"/>
<path d="M171.187 48.7946L162.688 52.168L164.038 55.5674L172.536 52.194L171.187 48.7946Z" fill="#FF5722"/>
<path d="M24.7576 46.614L23.3074 49.9717L31.7015 53.5972L33.1517 50.2395L24.7576 46.614Z" fill="#FF5722"/>
<path d="M24.7576 46.614L23.3074 49.9717L31.7015 53.5972L33.1517 50.2395L24.7576 46.614Z" fill="#FF5722"/>
<path d="M163.289 106.442L161.839 109.8L170.233 113.425L171.683 110.068L163.289 106.442Z" fill="#FF5722"/>
<path d="M67.7239 144.364L64.0999 152.759L67.4578 154.208L71.0818 145.814L67.7239 144.364Z" fill="#FF5722"/>
<path d="M67.7239 144.364L64.0999 152.759L67.4578 154.208L71.0818 145.814L67.7239 144.364Z" fill="#FF5722"/>
<path d="M127.521 5.83181L123.897 14.2266L127.255 15.6762L130.879 7.28143L127.521 5.83181Z" fill="#FF5722"/>
<path d="M53.3047 13.2827L50.3021 15.3711L55.5231 22.8775L58.5257 20.7891L53.3047 13.2827Z" fill="#FF5722"/>
<path d="M53.3047 13.2827L50.3021 15.3711L55.5231 22.8775L58.5257 20.7891L53.3047 13.2827Z" fill="#FF5722"/>
<path d="M139.459 137.143L136.456 139.231L141.677 146.738L144.68 144.649L139.459 137.143Z" fill="#FF5722"/>
<path d="M38.265 118.973L30.7585 124.194L32.8469 127.197L40.3534 121.976L38.265 118.973Z" fill="#FF5722"/>
<path d="M38.265 118.973L30.7585 124.194L32.8469 127.197L40.3534 121.976L38.265 118.973Z" fill="#FF5722"/>
<path d="M162.135 32.8376L154.629 38.0586L156.717 41.0612L164.224 35.8402L162.135 32.8376Z" fill="#FF5722"/>
<path d="M19.053 64.0671L18.4066 67.667L27.4063 69.283L28.0527 65.6832L19.053 64.0671Z" fill="#FF5722"/>
<path d="M19.053 64.0671L18.4066 67.667L27.4063 69.283L28.0527 65.6832L19.053 64.0671Z" fill="#FF5722"/>
<path d="M167.573 90.7419L166.927 94.3418L175.927 95.9578L176.573 92.358L167.573 90.7419Z" fill="#FF5722"/>
<path d="M83.1692 149.442L81.5547 158.442L85.1547 159.088L86.7691 150.088L83.1692 149.442Z" fill="#FF5722"/>
<path d="M83.1692 149.442L81.5547 158.442L85.1547 159.088L86.7691 150.088L83.1692 149.442Z" fill="#FF5722"/>
<path d="M109.822 0.930725L108.207 9.93066L111.807 10.5765L113.422 1.57652L109.822 0.930725Z" fill="#FF5722"/>
</g>
<defs>
<clipPath id="clip0_94_2344">
<rect width="355.377" height="216" fill="white"/>
</clipPath>
</defs>
</svg>
