<svg width="114" height="114" viewBox="0 0 114 114" fill="none" xmlns="http://www.w3.org/2000/svg">
<rect x="0.888184" y="0.859375" width="112.961" height="112.961" rx="33.8882" fill="#F411CF"/>
<path fill-rule="evenodd" clip-rule="evenodd" d="M52.1593 37.0068H62.5776C72.4 37.0068 77.3112 37.0068 80.3626 39.9845C82.4637 42.0347 83.1182 44.9453 83.3218 49.6881C83.3624 50.6287 83.3826 51.099 83.2031 51.4128C83.0236 51.7265 82.3068 52.1181 80.8731 52.9013C79.281 53.7711 78.2049 55.4328 78.2049 57.3397C78.2049 59.2467 79.281 60.9084 80.8731 61.7782C82.3068 62.5615 83.0236 62.9529 83.2031 63.2668C83.3826 63.5804 83.3624 64.0509 83.3218 64.9913C83.1182 69.7342 82.4637 72.6448 80.3626 74.6949C77.3112 77.6727 72.4 77.6727 62.5776 77.6727H52.1593C42.3369 77.6727 37.4257 77.6727 34.3743 74.6949C32.2733 72.6448 31.6188 69.7342 31.415 64.9913C31.3746 64.0509 31.3544 63.5804 31.5339 63.2668C31.7135 62.9529 32.4302 62.5615 33.8637 61.7782C35.4558 60.9084 36.5319 59.2467 36.5319 57.3397C36.5319 55.4328 35.4558 53.7711 33.8637 52.9013C32.4302 52.1181 31.7135 51.7265 31.5339 51.4128C31.3544 51.099 31.3746 50.6287 31.415 49.6881C31.6188 44.9453 32.2733 42.0347 34.3743 39.9845C37.4257 37.0068 42.3369 37.0068 52.1593 37.0068ZM66.586 48.367C67.349 49.1114 67.349 50.3184 66.586 51.0628L50.9587 66.3124C50.1958 67.0568 48.959 67.0568 48.1961 66.3124C47.4333 65.568 47.4333 64.3612 48.1961 63.6168L63.8234 48.367C64.5865 47.6226 65.8232 47.6226 66.586 48.367ZM63.9024 66.2354C65.341 66.2354 66.507 65.0975 66.507 63.6938C66.507 62.29 65.341 61.1522 63.9024 61.1522C62.4641 61.1522 61.2978 62.29 61.2978 63.6938C61.2978 65.0975 62.4641 66.2354 63.9024 66.2354ZM50.8797 53.5273C52.318 53.5273 53.4843 52.3894 53.4843 50.9857C53.4843 49.582 52.318 48.4441 50.8797 48.4441C49.4412 48.4441 48.2751 49.582 48.2751 50.9857C48.2751 52.3894 49.4412 53.5273 50.8797 53.5273Z" fill="white"/>
</svg>
