<svg width="192" height="176" viewBox="0 0 192 176" fill="none" xmlns="http://www.w3.org/2000/svg">
<g clip-path="url(#clip0_94_3432)">
<path d="M186.946 128.065C188.449 128.065 189.671 129.243 189.671 130.69C189.671 132.137 188.449 133.315 186.946 133.315C185.442 133.315 184.22 132.137 184.22 130.69C184.22 129.243 185.442 128.065 186.946 128.065Z" fill="#FF5722"/>
<path d="M140.309 133.315C138.803 133.315 137.583 132.14 137.583 130.69C137.583 129.241 138.803 128.065 140.309 128.065C141.814 128.065 143.034 129.241 143.034 130.69C143.034 132.14 141.814 133.315 140.309 133.315Z" fill="#FF5722"/>
<path d="M163.627 128.065C165.131 128.065 166.353 129.243 166.353 130.69C166.353 132.137 165.131 133.315 163.627 133.315C162.123 133.315 160.902 132.137 160.902 130.69C160.902 129.243 162.123 128.065 163.627 128.065Z" fill="#FF5722"/>
<path d="M164.013 106.728C165.517 106.728 166.739 107.905 166.739 109.352C166.739 110.799 165.517 111.977 164.013 111.977C162.51 111.977 161.288 110.799 161.288 109.352C161.288 107.905 162.51 106.728 164.013 106.728Z" fill="#FF5722"/>
<path d="M187.332 106.728C188.836 106.728 190.058 107.905 190.058 109.352C190.058 110.799 188.836 111.977 187.332 111.977C185.828 111.977 184.607 110.799 184.607 109.352C184.607 107.905 185.828 106.728 187.332 106.728Z" fill="#FF5722"/>
<path d="M117.376 106.728C118.88 106.728 120.102 107.905 120.102 109.352C120.102 110.799 118.88 111.977 117.376 111.977C115.873 111.977 114.651 110.799 114.651 109.352C114.651 107.905 115.873 106.728 117.376 106.728Z" fill="#FF5722"/>
<path d="M140.695 106.728C142.199 106.728 143.42 107.905 143.42 109.352C143.42 110.799 142.199 111.977 140.695 111.977C139.191 111.977 137.969 110.799 137.969 109.352C137.969 107.905 139.191 106.728 140.695 106.728Z" fill="#FF5722"/>
<path d="M186.946 170.761C188.449 170.761 189.671 171.938 189.671 173.386C189.671 174.833 188.449 176.01 186.946 176.01C185.442 176.01 184.22 174.833 184.22 173.386C184.22 171.938 185.442 170.761 186.946 170.761Z" fill="#FF5722"/>
<path d="M164.013 149.413C165.517 149.413 166.739 150.591 166.739 152.038C166.739 153.485 165.517 154.663 164.013 154.663C162.51 154.663 161.288 153.485 161.288 152.038C161.288 150.591 162.51 149.413 164.013 149.413Z" fill="#FF5722"/>
<path d="M187.332 149.413C188.836 149.413 190.058 150.591 190.058 152.038C190.058 153.485 188.836 154.663 187.332 154.663C185.828 154.663 184.607 153.485 184.607 152.038C184.607 150.591 185.828 149.413 187.332 149.413Z" fill="#FF5722"/>
<path d="M94.444 85.3799C95.9478 85.3799 97.1696 86.5575 97.1696 88.0047C97.1696 89.4518 95.9478 90.6294 94.444 90.6294C92.9402 90.6294 91.7185 89.4518 91.7185 88.0047C91.7185 86.5575 92.9402 85.3799 94.444 85.3799Z" fill="#FF5722"/>
<path d="M141.081 85.3799C142.585 85.3799 143.807 86.5575 143.807 88.0047C143.807 89.4518 142.585 90.6294 141.081 90.6294C139.577 90.6294 138.356 89.4518 138.356 88.0047C138.356 86.5575 139.577 85.3799 141.081 85.3799Z" fill="#FF5722"/>
<path d="M117.763 90.6294C116.257 90.6294 115.037 89.4543 115.037 88.0047C115.037 86.555 116.257 85.3799 117.763 85.3799C119.268 85.3799 120.488 86.555 120.488 88.0047C120.488 89.4543 119.268 90.6294 117.763 90.6294Z" fill="#FF5722"/>
<path d="M164.41 85.3799C165.914 85.3799 167.136 86.5575 167.136 88.0047C167.136 89.4518 165.914 90.6294 164.41 90.6294C162.907 90.6294 161.685 89.4518 161.685 88.0047C161.685 86.5575 162.896 85.3799 164.41 85.3799Z" fill="#FF5722"/>
<path d="M187.729 85.3799C189.233 85.3799 190.454 86.5575 190.454 88.0047C190.454 89.4518 189.233 90.6294 187.729 90.6294C186.225 90.6294 185.003 89.4518 185.003 88.0047C185.003 86.5575 186.225 85.3799 187.729 85.3799Z" fill="#FF5722"/>
<path d="M94.8409 64.0322C96.3446 64.0322 97.5664 65.2099 97.5664 66.657C97.5664 68.1041 96.3446 69.2818 94.8409 69.2818C93.3371 69.2818 92.1153 68.1041 92.1153 66.657C92.1153 65.2099 93.3371 64.0322 94.8409 64.0322Z" fill="#FF5722"/>
<path d="M118.159 64.0322C119.663 64.0322 120.885 65.2099 120.885 66.657C120.885 68.1041 119.663 69.2818 118.159 69.2818C116.656 69.2818 115.434 68.1041 115.434 66.657C115.434 65.2099 116.656 64.0322 118.159 64.0322Z" fill="#FF5722"/>
<path d="M141.478 64.0322C142.982 64.0322 144.204 65.2099 144.204 66.657C144.204 68.1041 142.982 69.2818 141.478 69.2818C139.974 69.2818 138.753 68.1041 138.753 66.657C138.753 65.2099 139.974 64.0322 141.478 64.0322Z" fill="#FF5722"/>
<path d="M71.5118 64.0322C73.0155 64.0322 74.2373 65.2099 74.2373 66.657C74.2373 68.1041 73.0155 69.2818 71.5118 69.2818C70.008 69.2818 68.7862 68.1041 68.7862 66.657C68.7862 65.2099 70.008 64.0322 71.5118 64.0322Z" fill="#FF5722"/>
<path d="M188.115 64.0322C189.619 64.0322 190.841 65.2099 190.841 66.657C190.841 68.1041 189.619 69.2818 188.115 69.2818C186.612 69.2818 185.39 68.1041 185.39 66.657C185.39 65.2099 186.612 64.0322 188.115 64.0322Z" fill="#FF5722"/>
<path d="M164.797 64.0322C166.3 64.0322 167.522 65.2099 167.522 66.657C167.522 68.1041 166.3 69.2818 164.797 69.2818C163.293 69.2818 162.071 68.1041 162.071 66.657C162.071 65.2099 163.293 64.0322 164.797 64.0322Z" fill="#FF5722"/>
<path d="M188.502 42.6855C190.005 42.6855 191.227 43.8632 191.227 45.3103C191.227 46.7575 190.005 47.9351 188.502 47.9351C186.998 47.9351 185.776 46.7575 185.776 45.3103C185.776 43.8632 186.998 42.6855 188.502 42.6855Z" fill="#FF5722"/>
<path d="M95.2272 47.9351C93.7219 47.9351 92.5017 46.76 92.5017 45.3103C92.5017 43.8607 93.7219 42.6855 95.2272 42.6855C96.7325 42.6855 97.9528 43.8607 97.9528 45.3103C97.9528 46.76 96.7325 47.9351 95.2272 47.9351Z" fill="#FF5722"/>
<path d="M48.59 47.9351C47.0847 47.9351 45.8644 46.76 45.8644 45.3103C45.8644 43.8607 47.0847 42.6855 48.59 42.6855C50.0953 42.6855 51.3156 43.8607 51.3156 45.3103C51.3156 46.76 50.0953 47.9351 48.59 47.9351Z" fill="#FF5722"/>
<path d="M118.546 42.6855C120.05 42.6855 121.271 43.8632 121.271 45.3103C121.271 46.7575 120.05 47.9351 118.546 47.9351C117.042 47.9351 115.82 46.7575 115.82 45.3103C115.82 43.8632 117.042 42.6855 118.546 42.6855Z" fill="#FF5722"/>
<path d="M141.864 42.6855C143.368 42.6855 144.59 43.8632 144.59 45.3103C144.59 46.7575 143.368 47.9351 141.864 47.9351C140.361 47.9351 139.139 46.7575 139.139 45.3103C139.139 43.8632 140.361 42.6855 141.864 42.6855Z" fill="#FF5722"/>
<path d="M165.183 42.6855C166.687 42.6855 167.909 43.8632 167.909 45.3103C167.909 46.7575 166.687 47.9351 165.183 47.9351C163.679 47.9351 162.457 46.7575 162.457 45.3103C162.457 43.8632 163.679 42.6855 165.183 42.6855Z" fill="#FF5722"/>
<path d="M71.9086 42.6855C73.4124 42.6855 74.6342 43.8632 74.6342 45.3103C74.6342 46.7575 73.4124 47.9351 71.9086 47.9351C70.4048 47.9351 69.183 46.7575 69.183 45.3103C69.183 43.8632 70.4048 42.6855 71.9086 42.6855Z" fill="#FF5722"/>
<path d="M188.888 26.5875C187.383 26.5875 186.163 25.4123 186.163 23.9627C186.163 22.513 187.383 21.3379 188.888 21.3379C190.393 21.3379 191.614 22.513 191.614 23.9627C191.614 25.4123 190.393 26.5875 188.888 26.5875Z" fill="#FF5722"/>
<path d="M72.295 21.3477C73.7987 21.3477 75.0205 22.5253 75.0205 23.9724C75.0205 25.4196 73.7987 26.5972 72.295 26.5972C70.7912 26.5972 69.5694 25.4196 69.5694 23.9724C69.5694 22.5253 70.7912 21.3477 72.295 21.3477Z" fill="#FF5722"/>
<path d="M165.569 21.3477C167.073 21.3477 168.295 22.5253 168.295 23.9724C168.295 25.4196 167.073 26.5972 165.569 26.5972C164.066 26.5972 162.844 25.4196 162.844 23.9724C162.844 22.5253 164.066 21.3477 165.569 21.3477Z" fill="#FF5722"/>
<path d="M118.932 21.3477C120.436 21.3477 121.658 22.5253 121.658 23.9724C121.658 25.4196 120.436 26.5972 118.932 26.5972C117.429 26.5972 116.207 25.4196 116.207 23.9724C116.207 22.5253 117.429 21.3477 118.932 21.3477Z" fill="#FF5722"/>
<path d="M142.251 21.3477C143.755 21.3477 144.976 22.5253 144.976 23.9724C144.976 25.4196 143.755 26.5972 142.251 26.5972C140.747 26.5972 139.525 25.4196 139.525 23.9724C139.525 22.5253 140.747 21.3477 142.251 21.3477Z" fill="#FF5722"/>
<path d="M95.6136 21.3477C97.1173 21.3477 98.3391 22.5253 98.3391 23.9724C98.3391 25.4196 97.1173 26.5972 95.6136 26.5972C94.1098 26.5972 92.888 25.4196 92.888 23.9724C92.888 22.5253 94.1098 21.3477 95.6136 21.3477Z" fill="#FF5722"/>
<path d="M25.6577 21.3477C27.1615 21.3477 28.3833 22.5253 28.3833 23.9724C28.3833 25.4196 27.1615 26.5972 25.6577 26.5972C24.154 26.5972 22.9322 25.4196 22.9322 23.9724C22.9322 22.5253 24.1436 21.3477 25.6577 21.3477Z" fill="#FF5722"/>
<path d="M48.9764 21.3477C50.4801 21.3477 51.7019 22.5253 51.7019 23.9724C51.7019 25.4196 50.4801 26.5972 48.9764 26.5972C47.4726 26.5972 46.2508 25.4196 46.2508 23.9724C46.2508 22.5253 47.4622 21.3477 48.9764 21.3477Z" fill="#FF5722"/>
<path d="M165.956 5.23979C164.452 5.23979 163.23 4.06214 163.23 2.61501C163.23 1.16789 164.452 -0.00976562 165.956 -0.00976562C167.46 -0.00976562 168.681 1.16789 168.681 2.61501C168.681 4.06214 167.46 5.23979 165.956 5.23979Z" fill="#FF5722"/>
<path d="M189.274 5.23958C187.771 5.23958 186.549 4.06192 186.549 2.6148C186.549 1.16768 187.781 0 189.274 0C190.768 0 192 1.17766 192 2.62478C192 4.0719 190.778 5.24956 189.274 5.24956V5.23958Z" fill="#FF5722"/>
<path d="M26.0442 5.24956C24.5389 5.24956 23.3187 4.07441 23.3187 2.62478C23.3187 1.17515 24.5389 0 26.0442 0C27.5495 0 28.7698 1.17515 28.7698 2.62478C28.7698 4.07441 27.5495 5.24956 26.0442 5.24956Z" fill="#FF5722"/>
<path d="M96 5.23979C94.4963 5.23979 93.2745 4.06214 93.2745 2.61501C93.2745 1.16789 94.4963 -0.00976562 96 -0.00976562C97.5038 -0.00976562 98.7256 1.16789 98.7256 2.61501C98.7256 4.06214 97.5038 5.23979 96 5.23979Z" fill="#FF5722"/>
<path d="M72.6814 5.23979C71.1777 5.23979 69.9559 4.06214 69.9559 2.61501C69.9559 1.16789 71.1777 -0.00976562 72.6814 -0.00976562C74.1852 -0.00976562 75.407 1.16789 75.407 2.61501C75.407 4.06214 74.1852 5.23979 72.6814 5.23979Z" fill="#FF5722"/>
<path d="M49.3628 5.23979C47.8591 5.23979 46.6373 4.06214 46.6373 2.61501C46.6373 1.16789 47.8591 -0.00976562 49.3628 -0.00976562C50.8666 -0.00976562 52.0884 1.16789 52.0884 2.61501C52.0884 4.06214 50.8666 5.23979 49.3628 5.23979Z" fill="#FF5722"/>
<path d="M142.637 5.23979C141.133 5.23979 139.912 4.06214 139.912 2.61501C139.912 1.16789 141.133 -0.00976562 142.637 -0.00976562C144.141 -0.00976562 145.363 1.16789 145.363 2.61501C145.363 4.06214 144.141 5.23979 142.637 5.23979Z" fill="#FF5722"/>
<path d="M2.72562 5.23979C1.22187 5.23979 6.62804e-05 4.06214 6.62804e-05 2.61501C6.62804e-05 1.16789 1.21142 -0.00976562 2.72562 -0.00976562C4.23981 -0.00976562 5.45117 1.16789 5.45117 2.61501C5.45117 4.06214 4.22937 5.23979 2.72562 5.23979Z" fill="#FF5722"/>
<path d="M119.319 5.23979C117.815 5.23979 116.593 4.06214 116.593 2.61501C116.593 1.16789 117.815 -0.00976562 119.319 -0.00976562C120.822 -0.00976562 122.044 1.16789 122.044 2.61501C122.044 4.06214 120.822 5.23979 119.319 5.23979Z" fill="#FF5722"/>
</g>
<defs>
<clipPath id="clip0_94_3432">
<rect width="192" height="176" fill="white" transform="matrix(-1 0 0 1 192 0)"/>
</clipPath>
</defs>
</svg>
