<svg width="17" height="17" viewBox="0 0 17 17" fill="none" xmlns="http://www.w3.org/2000/svg">
<g clip-path="url(#clip0_165_4963)">
<path d="M4.3992 4.93359L2.97322 5.04376C2.57643 5.07443 2.22304 5.28239 2.00361 5.61431L0.359065 8.10158C0.19264 8.35329 0.166183 8.6683 0.288245 8.94425C0.410339 9.2202 0.661246 9.4125 0.959409 9.4587L2.26506 9.6609C2.57049 8.04005 3.30164 6.42319 4.3992 4.93359Z" fill="#FFB226"/>
<path d="M7.5 14.8939L7.70224 16.1996C7.74843 16.4977 7.94073 16.7486 8.21665 16.8707C8.33145 16.9215 8.45296 16.9466 8.57387 16.9466C8.7437 16.9466 8.91234 16.8971 9.05935 16.7999L11.5467 15.1554C11.8786 14.9359 12.0866 14.5825 12.1172 14.1857L12.2273 12.7598C10.7377 13.8574 9.12088 14.5885 7.5 14.8939Z" fill="#FFB226"/>
<path d="M7.00837 13.9885C7.0537 13.9885 7.09928 13.9847 7.14477 13.9771C7.82384 13.8636 8.47835 13.6723 9.10271 13.422L3.73642 8.05566C3.48606 8.67999 3.29478 9.3345 3.18124 10.0136C3.13649 10.2813 3.22628 10.554 3.41816 10.7459L6.41246 13.7402C6.57178 13.8995 6.78681 13.9885 7.00837 13.9885Z" fill="#FFB226"/>
<path d="M15.3592 7.78476C16.6724 5.24599 16.7211 2.56313 16.6524 1.3049C16.6289 0.873776 16.2852 0.53006 15.854 0.506561C15.6492 0.495374 15.4064 0.487305 15.1327 0.487305C13.7258 0.487305 11.4995 0.700407 9.37418 1.79974C7.68511 2.67339 5.47028 4.5971 4.16357 7.1252C4.179 7.13726 4.19408 7.15005 4.20829 7.16426L9.99475 12.9507C10.009 12.9649 10.0217 12.98 10.0338 12.9954C12.5619 11.6887 14.4856 9.47383 15.3592 7.78476ZM9.78238 3.96689C10.7224 3.02688 12.252 3.02679 13.1921 3.96689C13.6474 4.42225 13.8982 5.02774 13.8982 5.67174C13.8982 6.31574 13.6474 6.92123 13.1921 7.37659C12.7221 7.84655 12.1046 8.08157 11.4872 8.08164C10.8697 8.08167 10.2525 7.84668 9.78238 7.37659C9.32699 6.92123 9.07618 6.31574 9.07618 5.67174C9.07618 5.02774 9.32699 4.42225 9.78238 3.96689Z" fill="#232536"/>
<path d="M10.4647 6.69443C11.0287 7.25845 11.9465 7.25848 12.5106 6.69443C12.7838 6.42118 12.9343 6.05791 12.9343 5.6715C12.9343 5.28509 12.7838 4.92183 12.5106 4.64861C12.2286 4.36658 11.8581 4.22559 11.4876 4.22559C11.1172 4.22559 10.7467 4.36658 10.4647 4.64861C10.1915 4.92183 10.041 5.28509 10.041 5.6715C10.041 6.05791 10.1915 6.42121 10.4647 6.69443Z" fill="#232536"/>
<path d="M0.704392 14.0515C0.827806 14.0515 0.951219 14.0044 1.04535 13.9102L2.61969 12.3359C2.80801 12.1476 2.80801 11.8423 2.61969 11.6539C2.43141 11.4656 2.12607 11.4656 1.93775 11.6539L0.363407 13.2283C0.175088 13.4166 0.175088 13.7219 0.363407 13.9102C0.457566 14.0044 0.580979 14.0515 0.704392 14.0515Z" fill="#FFB226"/>
<path d="M4.0624 13.0963C3.87411 12.908 3.56878 12.908 3.38046 13.0963L0.353641 16.1231C0.165323 16.3115 0.165323 16.6168 0.353641 16.8051C0.4478 16.8992 0.571214 16.9463 0.694627 16.9463C0.81804 16.9463 0.941453 16.8992 1.03558 16.805L4.06237 13.7783C4.25072 13.5899 4.25072 13.2846 4.0624 13.0963Z" fill="#FFB226"/>
<path d="M4.82346 14.5397L3.24915 16.114C3.06083 16.3023 3.06083 16.6076 3.24915 16.796C3.34331 16.8901 3.46672 16.9372 3.5901 16.9372C3.71348 16.9372 3.83693 16.8902 3.93106 16.796L5.5054 15.2216C5.69372 15.0333 5.69372 14.728 5.5054 14.5397C5.31711 14.3514 5.01178 14.3514 4.82346 14.5397Z" fill="#FFB226"/>
</g>
<defs>
<clipPath id="clip0_165_4963">
<rect width="16.4594" height="16.4594" fill="white" transform="translate(0.212402 0.487305)"/>
</clipPath>
</defs>
</svg>
