<svg width="46" height="47" viewBox="0 0 46 47" fill="none" xmlns="http://www.w3.org/2000/svg">
<g clip-path="url(#clip0_334_2964)">
<path d="M22.8232 46.1074C35.3273 46.1074 45.4639 35.9709 45.4639 23.4668C45.4639 10.9627 35.3273 0.826172 22.8232 0.826172C10.3192 0.826172 0.182617 10.9627 0.182617 23.4668C0.182617 35.9709 10.3192 46.1074 22.8232 46.1074Z" fill="url(#paint0_linear_334_2964)"/>
<path d="M22.8232 46.1074C35.3273 46.1074 45.4639 35.9709 45.4639 23.4668C45.4639 10.9627 35.3273 0.826172 22.8232 0.826172C10.3192 0.826172 0.182617 10.9627 0.182617 23.4668C0.182617 35.9709 10.3192 46.1074 22.8232 46.1074Z" fill="url(#paint1_radial_334_2964)"/>
<path d="M22.8233 5.69922C13.352 5.74883 5.10528 13.9953 5.05567 23.4668C5.05275 28.2452 7.15797 32.614 10.4129 35.8771C16.7401 34.135 23.1502 32.1993 29.5937 30.2371C27.3952 22.0951 25.0328 13.8866 22.8233 5.69922Z" fill="url(#paint2_linear_334_2964)"/>
<path d="M22.8234 23.4668C18.6355 27.6547 14.4477 31.8425 10.4131 35.8771C13.6762 39.1319 18.0451 41.2374 22.8234 41.2344C27.6017 41.2374 31.9706 39.132 35.2338 35.8771C35.3359 31.7404 35.3869 27.6036 35.3869 23.4668C31.1991 23.4668 27.0113 23.4668 22.8234 23.4668Z" fill="url(#paint3_linear_334_2964)"/>
<path d="M39.9096 18.7949C34.2343 20.2798 28.5288 21.8729 22.8232 23.466L35.2336 35.8763C38.4884 32.613 40.5938 28.2445 40.5908 23.466C40.5909 21.8506 40.3519 20.2865 39.9096 18.7949Z" fill="url(#paint4_linear_334_2964)"/>
<path d="M39.9096 18.7958C37.6881 11.485 30.7231 5.70957 22.8232 5.69922V23.4668H35.1518C37.7951 23.4612 39.9399 21.3724 39.9096 18.7958Z" fill="url(#paint5_linear_334_2964)"/>
<path d="M22.8227 35.7948C29.6315 35.7948 35.1512 30.2751 35.1512 23.4662C35.1512 16.6574 29.6315 11.1377 22.8227 11.1377C16.0138 11.1377 10.4941 16.6574 10.4941 23.4662C10.4941 30.2751 16.0138 35.7948 22.8227 35.7948Z" fill="url(#paint6_linear_334_2964)"/>
<path d="M22.8227 35.7948C29.6315 35.7948 35.1512 30.2751 35.1512 23.4662C35.1512 16.6574 29.6315 11.1377 22.8227 11.1377C16.0138 11.1377 10.4941 16.6574 10.4941 23.4662C10.4941 30.2751 16.0138 35.7948 22.8227 35.7948Z" fill="url(#paint7_radial_334_2964)"/>
<path d="M16.0535 16.6963C14.3084 18.4428 13.2143 20.8334 13.2148 23.4666C13.2227 28.7196 17.5709 33.0678 22.8238 33.0756C25.4571 33.0762 27.8478 31.9821 29.5942 30.237C28.7168 26.6331 27.8083 23.0177 26.8937 19.3967C23.2728 18.4822 19.6573 17.5737 16.0535 16.6963Z" fill="url(#paint8_linear_334_2964)"/>
<path d="M16.0527 16.698L22.8231 23.4684C24.1828 22.0784 25.5426 20.6884 26.8969 19.3038C25.5342 17.4896 24.1731 15.6724 22.8231 13.8594C20.19 13.8589 17.7992 14.9528 16.0527 16.698Z" fill="url(#paint9_linear_334_2964)"/>
<path d="M31.3685 19.1182C28.5285 20.5515 25.6759 22.0096 22.8232 23.4676L29.5936 30.238C31.3387 28.4916 32.4327 26.1007 32.4322 23.4676C32.4324 21.9038 32.0472 20.4268 31.3685 19.1182Z" fill="url(#paint10_linear_334_2964)"/>
<path d="M31.3685 19.1189C29.7568 16.0214 26.523 13.8593 22.8232 13.8594V23.4684H26.9932C29.4137 23.4663 31.3756 21.5215 31.3685 19.1189Z" fill="url(#paint11_linear_334_2964)"/>
<path d="M22.8233 19.2979C20.5246 19.2985 18.654 21.1693 18.6533 23.4678C18.6539 25.7663 20.5246 27.637 22.8233 27.6377C25.1219 27.6372 26.9926 25.7664 26.9932 23.4678C26.9925 21.1693 25.1219 19.2985 22.8233 19.2979Z" fill="url(#paint12_linear_334_2964)"/>
<path d="M22.8233 19.2979C20.5246 19.2985 18.654 21.1693 18.6533 23.4678C18.6539 25.7663 20.5246 27.637 22.8233 27.6377C25.1219 27.6372 26.9926 25.7664 26.9932 23.4678C26.9925 21.1693 25.1219 19.2985 22.8233 19.2979Z" fill="url(#paint13_radial_334_2964)"/>
</g>
<defs>
<linearGradient id="paint0_linear_334_2964" x1="6.81384" y1="39.4761" x2="38.8326" y2="7.45749" gradientUnits="userSpaceOnUse">
<stop stop-color="#FF4747"/>
<stop offset="1" stop-color="#FFFA78"/>
</linearGradient>
<radialGradient id="paint1_radial_334_2964" cx="0" cy="0" r="1" gradientUnits="userSpaceOnUse" gradientTransform="translate(22.8232 23.4668) scale(22.6406)">
<stop stop-color="#FF4747" stop-opacity="0.6"/>
<stop offset="1" stop-color="#FFF200" stop-opacity="0"/>
</radialGradient>
<linearGradient id="paint2_linear_334_2964" x1="-14.8293" y1="55.4729" x2="25.4062" y2="15.2373" gradientUnits="userSpaceOnUse">
<stop stop-color="#FFFA78"/>
<stop offset="0.458" stop-color="#FFFCB4"/>
<stop offset="1" stop-color="white"/>
</linearGradient>
<linearGradient id="paint3_linear_334_2964" x1="3.08106" y1="55.6196" x2="39.0784" y2="19.6221" gradientUnits="userSpaceOnUse">
<stop stop-color="#FFCB00"/>
<stop offset="1" stop-color="#FFFA78"/>
</linearGradient>
<linearGradient id="paint4_linear_334_2964" x1="23.9367" y1="34.7628" x2="89.2693" y2="-30.5698" gradientUnits="userSpaceOnUse">
<stop stop-color="#FF3838"/>
<stop offset="1" stop-color="#FFF200"/>
</linearGradient>
<linearGradient id="paint5_linear_334_2964" x1="9.57759" y1="34.9981" x2="74.5335" y2="-29.9578" gradientUnits="userSpaceOnUse">
<stop stop-color="#FF3838"/>
<stop offset="1" stop-color="#FFF200"/>
</linearGradient>
<linearGradient id="paint6_linear_334_2964" x1="0.214502" y1="46.0745" x2="43.4072" y2="2.88183" gradientUnits="userSpaceOnUse">
<stop stop-color="#FF4747"/>
<stop offset="1" stop-color="#FFFA78"/>
</linearGradient>
<radialGradient id="paint7_radial_334_2964" cx="0" cy="0" r="1" gradientUnits="userSpaceOnUse" gradientTransform="translate(22.8227 23.4662) scale(14.7788)">
<stop stop-color="#FFF200" stop-opacity="0"/>
<stop offset="0.2919" stop-color="#FFF001" stop-opacity="0.175"/>
<stop offset="0.4461" stop-color="#FFE804" stop-opacity="0.268"/>
<stop offset="0.5681" stop-color="#FFDA0A" stop-opacity="0.341"/>
<stop offset="0.6733" stop-color="#FFC712" stop-opacity="0.404"/>
<stop offset="0.7676" stop-color="#FFAE1C" stop-opacity="0.461"/>
<stop offset="0.8542" stop-color="#FF9029" stop-opacity="0.513"/>
<stop offset="0.9331" stop-color="#FF6C38" stop-opacity="0.56"/>
<stop offset="1" stop-color="#FF4747" stop-opacity="0.6"/>
</radialGradient>
<linearGradient id="paint8_linear_334_2964" x1="-3.22207" y1="49.5125" x2="32.7298" y2="13.5607" gradientUnits="userSpaceOnUse">
<stop stop-color="#FFCB00"/>
<stop offset="1" stop-color="#FFFA78"/>
</linearGradient>
<linearGradient id="paint9_linear_334_2964" x1="-15.5669" y1="55.088" x2="24.8061" y2="14.715" gradientUnits="userSpaceOnUse">
<stop stop-color="#FFFA78"/>
<stop offset="0.458" stop-color="#FFFCB4"/>
<stop offset="1" stop-color="white"/>
</linearGradient>
<linearGradient id="paint10_linear_334_2964" x1="19.4354" y1="33.6259" x2="84.9933" y2="-31.932" gradientUnits="userSpaceOnUse">
<stop stop-color="#FF3838"/>
<stop offset="1" stop-color="#FFF200"/>
</linearGradient>
<linearGradient id="paint11_linear_334_2964" x1="9.1514" y1="35.3325" x2="74.6636" y2="-30.1797" gradientUnits="userSpaceOnUse">
<stop stop-color="#FF3838"/>
<stop offset="1" stop-color="#FFF200"/>
</linearGradient>
<linearGradient id="paint12_linear_334_2964" x1="0.102071" y1="46.1891" x2="43.5106" y2="2.78054" gradientUnits="userSpaceOnUse">
<stop stop-color="#FF4747"/>
<stop offset="1" stop-color="#FFFA78"/>
</linearGradient>
<radialGradient id="paint13_radial_334_2964" cx="0" cy="0" r="1" gradientUnits="userSpaceOnUse" gradientTransform="translate(22.8233 23.4678) scale(5.8633)">
<stop stop-color="#FFF200" stop-opacity="0"/>
<stop offset="0.114" stop-color="#FFE904" stop-opacity="0.068"/>
<stop offset="0.2999" stop-color="#FFD10E" stop-opacity="0.18"/>
<stop offset="0.5344" stop-color="#FFA91E" stop-opacity="0.321"/>
<stop offset="0.8057" stop-color="#FF7335" stop-opacity="0.483"/>
<stop offset="1" stop-color="#FF4747" stop-opacity="0.6"/>
</radialGradient>
<clipPath id="clip0_334_2964">
<rect x="0.182617" y="0.826172" width="45.2812" height="45.2812" rx="22.6406" fill="white"/>
</clipPath>
</defs>
</svg>
