<svg width="18" height="18" viewBox="0 0 18 18" fill="none" xmlns="http://www.w3.org/2000/svg">
<path d="M9.81231 1.85757L1.94723 0.66283C1.58226 0.605938 1.20978 0.705768 0.930684 0.941924C0.65159 1.18559 0.487354 1.53554 0.487354 1.9005V16.9791C0.487354 17.373 0.809385 17.6951 1.20334 17.6951H3.52948V13.938C3.52948 13.2435 4.08766 12.6853 4.78218 12.6853H6.5716C7.26611 12.6853 7.8243 13.2435 7.8243 13.938V17.6951H10.8653V3.09631C10.8643 2.48016 10.4199 1.95847 9.81231 1.85757V1.85757ZM4.42365 11.0752H3.35021C3.05394 11.0752 2.81349 10.8347 2.81349 10.5385C2.81349 10.2422 3.05394 10.0017 3.35021 10.0017H4.42365C4.71992 10.0017 4.96037 10.2422 4.96037 10.5385C4.96037 10.8347 4.71992 11.0752 4.42365 11.0752ZM4.42365 8.9283H3.35021C3.05394 8.9283 2.81349 8.68785 2.81349 8.39158C2.81349 8.09531 3.05394 7.85486 3.35021 7.85486H4.42365C4.71992 7.85486 4.96037 8.09531 4.96037 8.39158C4.96037 8.68785 4.71992 8.9283 4.42365 8.9283ZM4.42365 6.78142H3.35021C3.05394 6.78142 2.81349 6.54097 2.81349 6.24471C2.81349 5.94844 3.05394 5.70799 3.35021 5.70799H4.42365C4.71992 5.70799 4.96037 5.94844 4.96037 6.24471C4.96037 6.54097 4.71992 6.78142 4.42365 6.78142ZM4.42365 4.63455H3.35021C3.05394 4.63455 2.81349 4.3941 2.81349 4.09783C2.81349 3.80156 3.05394 3.56111 3.35021 3.56111H4.42365C4.71992 3.56111 4.96037 3.80156 4.96037 4.09783C4.96037 4.3941 4.71992 4.63455 4.42365 4.63455ZM8.00142 11.0752H6.92798C6.63171 11.0752 6.39126 10.8347 6.39126 10.5385C6.39126 10.2422 6.63171 10.0017 6.92798 10.0017H8.00142C8.29769 10.0017 8.53814 10.2422 8.53814 10.5385C8.53814 10.8347 8.29769 11.0752 8.00142 11.0752ZM8.00142 8.9283H6.92798C6.63171 8.9283 6.39126 8.68785 6.39126 8.39158C6.39126 8.09531 6.63171 7.85486 6.92798 7.85486H8.00142C8.29769 7.85486 8.53814 8.09531 8.53814 8.39158C8.53814 8.68785 8.29769 8.9283 8.00142 8.9283ZM8.00142 6.78142H6.92798C6.63171 6.78142 6.39126 6.54097 6.39126 6.24471C6.39126 5.94844 6.63171 5.70799 6.92798 5.70799H8.00142C8.29769 5.70799 8.53814 5.94844 8.53814 6.24471C8.53814 6.54097 8.29769 6.78142 8.00142 6.78142ZM8.00142 4.63455H6.92798C6.63171 4.63455 6.39126 4.3941 6.39126 4.09783C6.39126 3.80156 6.63171 3.56111 6.92798 3.56111H8.00142C8.29769 3.56111 8.53814 3.80156 8.53814 4.09783C8.53814 4.3941 8.29769 4.63455 8.00142 4.63455Z" fill="#232536"/>
<path d="M16.6749 8.27818L11.5793 7.21118V17.6944H16.4097C17.0999 17.6944 17.6624 17.133 17.6624 16.4417V9.5019C17.6624 8.91043 17.2588 8.40699 16.6749 8.27818ZM14.9788 15.5475H13.9054C13.6091 15.5475 13.3687 15.307 13.3687 15.0108C13.3687 14.7145 13.6091 14.4741 13.9054 14.4741H14.9788C15.2751 14.4741 15.5155 14.7145 15.5155 15.0108C15.5155 15.307 15.2751 15.5475 14.9788 15.5475ZM14.9788 13.4006H13.9054C13.6091 13.4006 13.3687 13.1602 13.3687 12.8639C13.3687 12.5676 13.6091 12.3272 13.9054 12.3272H14.9788C15.2751 12.3272 15.5155 12.5676 15.5155 12.8639C15.5155 13.1602 15.2751 13.4006 14.9788 13.4006ZM14.9788 11.2537H13.9054C13.6091 11.2537 13.3687 11.0133 13.3687 10.717C13.3687 10.4208 13.6091 10.1803 13.9054 10.1803H14.9788C15.2751 10.1803 15.5155 10.4208 15.5155 10.717C15.5155 11.0133 15.2751 11.2537 14.9788 11.2537Z" fill="#FFD050"/>
</svg>
