<svg width="18" height="18" viewBox="0 0 18 18" fill="none" xmlns="http://www.w3.org/2000/svg">
<g clip-path="url(#clip0_165_4945)">
<path d="M4.3133 11.5264H2.46422C1.7974 11.5264 1.25488 12.0935 1.25488 12.7907V16.8862C1.25488 17.3143 1.58807 17.6626 1.99756 17.6626H4.77991C5.18943 17.6626 5.52261 17.3143 5.52261 16.8862V12.7907C5.52261 12.0935 4.98013 11.5264 4.3133 11.5264Z" fill="#232536"/>
<path d="M9.74104 9.03906H7.89196C7.22514 9.03906 6.68262 9.60624 6.68262 10.3033V16.8863C6.68262 17.3144 7.0158 17.6627 7.42532 17.6627H10.2077C10.6172 17.6627 10.9504 17.3144 10.9504 16.8863V10.3034C10.9504 9.60621 10.4079 9.03906 9.74104 9.03906Z" fill="#232536"/>
<path d="M15.2698 6.20508H13.4208C12.7539 6.20508 12.2114 6.77226 12.2114 7.46936V16.8865C12.2114 17.3146 12.5446 17.6629 12.9541 17.6629H15.7365C16.146 17.6629 16.4791 17.3146 16.4791 16.8865V7.46936C16.4792 6.77226 15.9366 6.20508 15.2698 6.20508Z" fill="#232536"/>
<path d="M13.7976 0.965805C13.5714 0.631563 13.2036 0.454814 12.8135 0.492251L9.32115 0.830049C8.93117 0.867787 8.60058 1.11233 8.43687 1.48424C8.27314 1.85616 8.31042 2.27778 8.53663 2.61203L8.73159 2.90004L4.39693 6.03143L4.3925 6.03469C4.08492 6.26222 3.88053 6.6014 3.81696 6.98968C3.7534 7.37796 3.83824 7.76886 4.05588 8.09043C4.27352 8.41195 4.59795 8.62567 4.96935 8.69215C5.04982 8.70655 5.13039 8.71369 5.21041 8.71369C5.49868 8.71369 5.77947 8.62124 6.01983 8.44422L10.3614 5.3079L10.5627 5.60514C10.7688 5.9097 11.0925 6.0837 11.4434 6.0837C11.4776 6.0837 11.5121 6.08202 11.5467 6.0787C11.9367 6.04096 12.2673 5.79638 12.431 5.42444L13.8974 2.09359C14.0612 1.72161 14.0239 1.30001 13.7976 0.965805Z" fill="#FFD050"/>
</g>
<defs>
<clipPath id="clip0_165_4945">
<rect width="16.4283" height="17.175" fill="white" transform="translate(0.65332 0.487305)"/>
</clipPath>
</defs>
</svg>
