<svg width="47" height="46" viewBox="0 0 47 46" fill="none" xmlns="http://www.w3.org/2000/svg">
<path d="M23.583 45.3359C36.0871 45.3359 46.2236 35.1994 46.2236 22.6953C46.2236 10.1912 36.0871 0.0546875 23.583 0.0546875C11.0789 0.0546875 0.942383 10.1912 0.942383 22.6953C0.942383 35.1994 11.0789 45.3359 23.583 45.3359Z" fill="url(#paint0_linear_334_2981)"/>
<path d="M23.583 45.3359C36.0871 45.3359 46.2236 35.1994 46.2236 22.6953C46.2236 10.1912 36.0871 0.0546875 23.583 0.0546875C11.0789 0.0546875 0.942383 10.1912 0.942383 22.6953C0.942383 35.1994 11.0789 45.3359 23.583 45.3359Z" fill="url(#paint1_radial_334_2981)"/>
<path d="M32.4109 25.5557C32.3868 29.0876 32.3182 32.6194 32.2051 36.1514C33.3106 36.1155 34.4161 36.0727 35.5216 36.0229C36.2535 35.9893 36.8776 35.3652 36.9112 34.6332C37.024 32.1276 37.1012 29.622 37.1429 27.1164C35.5698 26.6084 33.9918 26.0865 32.4109 25.5557Z" fill="url(#paint2_linear_334_2981)"/>
<path d="M33.5798 34.765C33.6824 31.6923 33.7457 28.6196 33.77 25.5469C30.3743 25.5733 26.9787 25.5865 23.583 25.5865C25.8468 29.1551 28.092 32.718 30.216 36.2096C30.8793 36.193 31.5426 36.174 32.2059 36.1524C32.9378 36.1283 33.5544 35.5049 33.5798 34.765Z" fill="url(#paint3_linear_334_2981)"/>
<path d="M20.3564 34.0105C21.4397 34.7754 22.5163 35.5372 23.584 36.2924C25.795 36.2924 28.006 36.2647 30.217 36.2095C30.2906 33.2064 30.3398 30.2033 30.3643 27.2002C26.9944 29.48 23.6379 31.7805 20.3564 34.0105Z" fill="url(#paint4_linear_334_2981)"/>
<path d="M20.3027 25.5808C20.3098 28.3903 20.3271 31.1997 20.3547 34.0092C21.4306 34.0199 22.5064 34.0252 23.5823 34.0252C27.2611 34.021 30.3217 30.9236 30.3627 27.1988C30.3671 26.655 30.3708 26.1112 30.3737 25.5674C27.0167 25.5847 23.6597 25.5892 20.3027 25.5808Z" fill="url(#paint5_linear_334_2981)"/>
<path d="M37.1449 18.2725C34.2448 17.6915 31.3489 17.1085 28.46 16.54C30.2455 20.1115 32.0371 23.6662 33.7548 27.1643C34.8849 27.1505 36.0149 27.1344 37.1449 27.116C37.1941 24.1681 37.1941 21.2203 37.1449 18.2725Z" fill="url(#paint6_linear_334_2981)"/>
<path d="M20.3163 16.5302C20.2972 20.0938 20.2947 23.6574 20.3087 27.2211C24.7903 27.2387 29.2719 27.2201 33.7535 27.1654C33.7971 23.6457 33.7892 20.1259 33.7298 16.6062C29.2587 16.5316 24.7875 16.5063 20.3163 16.5302Z" fill="url(#paint7_linear_334_2981)"/>
<path d="M35.5216 9.36678C34.4161 9.31699 33.3106 9.27419 32.2051 9.23828C32.2869 11.7917 32.3454 14.3452 32.3806 16.8986C32.8379 17.3417 33.2954 17.7839 33.7528 18.2248C34.8829 18.2386 36.0129 18.2548 37.1429 18.2732C37.1012 15.7676 37.0239 13.262 36.9111 10.7564C36.8776 10.0244 36.2535 9.40039 35.5216 9.36678Z" fill="url(#paint8_linear_334_2981)"/>
<path d="M32.2064 9.23677C29.3321 9.14338 26.4578 9.09668 23.5835 9.09668C22.516 12.1182 21.4128 15.1461 20.3096 18.1676C24.7911 18.15 29.2726 18.1686 33.7541 18.2233C33.7228 15.6903 33.6649 13.1573 33.5803 10.6243C33.5549 9.88424 32.9384 9.26109 32.2064 9.23677Z" fill="url(#paint9_linear_334_2981)"/>
<path d="M18.1507 19.4238C15.4299 20.5268 12.7039 21.6263 9.98438 22.694C9.98438 26.6738 10.0739 30.6536 10.253 34.6334C10.2866 35.3653 10.9107 35.9894 11.6426 36.0229C13.8536 36.1224 16.0646 36.1943 18.2756 36.2386C18.1659 30.6337 18.1242 25.0288 18.1507 19.4238Z" fill="url(#paint10_linear_334_2981)"/>
<path d="M16.7929 19.4336C16.7624 24.5757 16.8039 29.7177 16.9175 34.8597C16.9345 35.6057 17.5436 36.2262 18.2756 36.2411C19.5105 36.2657 20.7455 36.2818 21.9804 36.2893C21.9804 36.2907 23.5819 36.2956 23.5819 36.2941C23.5819 31.7616 23.5819 27.229 23.5819 22.6965C21.3158 21.6021 19.0495 20.5079 16.7929 19.4336Z" fill="url(#paint11_linear_334_2981)"/>
<path d="M11.6426 9.3669C10.9107 9.4005 10.2866 10.0246 10.253 10.7566C10.0739 14.7364 9.98438 18.7161 9.98438 22.6959H16.7832C17.2365 22.2571 17.6902 21.8173 18.1442 21.3767C18.152 17.3016 18.1958 13.2265 18.2756 9.15137C16.0646 9.1955 13.8536 9.2674 11.6426 9.3669Z" fill="url(#paint12_linear_334_2981)"/>
<path d="M23.582 9.09668V22.6943C21.3158 22.6943 19.0495 22.6943 16.7832 22.6943C16.7832 18.6399 16.828 14.5854 16.9175 10.5311C16.9346 9.7851 17.5437 9.1646 18.2756 9.14974C20.0444 9.11437 21.8132 9.09668 23.582 9.09668Z" fill="url(#paint13_linear_334_2981)"/>
<defs>
<linearGradient id="paint0_linear_334_2981" x1="7.57361" y1="38.7046" x2="39.5923" y2="6.68591" gradientUnits="userSpaceOnUse">
<stop stop-color="#008A4C"/>
<stop offset="1" stop-color="#D3FF33"/>
</linearGradient>
<radialGradient id="paint1_radial_334_2981" cx="0" cy="0" r="1" gradientUnits="userSpaceOnUse" gradientTransform="translate(23.583 22.6953) scale(22.6406)">
<stop stop-color="#008A4C" stop-opacity="0.8"/>
<stop offset="1" stop-color="#D3FF33" stop-opacity="0"/>
</radialGradient>
<linearGradient id="paint2_linear_334_2981" x1="7.27889" y1="57.7385" x2="37.6887" y2="27.3287" gradientUnits="userSpaceOnUse">
<stop stop-color="#DDFF59"/>
<stop offset="1" stop-color="white"/>
</linearGradient>
<linearGradient id="paint3_linear_334_2981" x1="16.6451" y1="42.3822" x2="50.7258" y2="8.30153" gradientUnits="userSpaceOnUse">
<stop stop-color="#DDFF59"/>
<stop offset="1" stop-color="white"/>
</linearGradient>
<linearGradient id="paint4_linear_334_2981" x1="0.248476" y1="60.1483" x2="59.1124" y2="1.28429" gradientUnits="userSpaceOnUse">
<stop stop-color="#00AA45"/>
<stop offset="0.7542" stop-color="#D3FF33"/>
<stop offset="1" stop-color="#F9FCCA"/>
</linearGradient>
<linearGradient id="paint5_linear_334_2981" x1="-11.8779" y1="64.9917" x2="52.442" y2="0.671812" gradientUnits="userSpaceOnUse">
<stop stop-color="#00AA45"/>
<stop offset="0.7542" stop-color="#D3FF33"/>
<stop offset="1" stop-color="#F9FCCA"/>
</linearGradient>
<linearGradient id="paint6_linear_334_2981" x1="-3.87695" y1="58.5074" x2="52.7425" y2="1.88794" gradientUnits="userSpaceOnUse">
<stop stop-color="#006946"/>
<stop offset="0.2513" stop-color="#008547"/>
<stop offset="0.3421" stop-color="#128F45"/>
<stop offset="0.5244" stop-color="#41AA41"/>
<stop offset="0.7788" stop-color="#8CD63A"/>
<stop offset="1" stop-color="#D3FF33"/>
</linearGradient>
<linearGradient id="paint7_linear_334_2981" x1="-5.13818" y1="54.0209" x2="57.4716" y2="-8.58884" gradientUnits="userSpaceOnUse">
<stop stop-color="#006946"/>
<stop offset="0.2513" stop-color="#008547"/>
<stop offset="0.3421" stop-color="#128F45"/>
<stop offset="0.5244" stop-color="#41AA41"/>
<stop offset="0.7788" stop-color="#8CD63A"/>
<stop offset="1" stop-color="#D3FF33"/>
</linearGradient>
<linearGradient id="paint8_linear_334_2981" x1="14.5235" y1="33.9063" x2="36.0932" y2="12.3366" gradientUnits="userSpaceOnUse">
<stop stop-color="#DDFF59"/>
<stop offset="1" stop-color="white"/>
</linearGradient>
<linearGradient id="paint9_linear_334_2981" x1="21.127" y1="21.2019" x2="50.7996" y2="-8.47068" gradientUnits="userSpaceOnUse">
<stop stop-color="#DDFF59"/>
<stop offset="1" stop-color="white"/>
</linearGradient>
<linearGradient id="paint10_linear_334_2981" x1="11.966" y1="31.6302" x2="45.5343" y2="-1.93795" gradientUnits="userSpaceOnUse">
<stop stop-color="#006946"/>
<stop offset="0.2513" stop-color="#008547"/>
<stop offset="0.3421" stop-color="#128F45"/>
<stop offset="0.5244" stop-color="#41AA41"/>
<stop offset="0.7788" stop-color="#8CD63A"/>
<stop offset="1" stop-color="#D3FF33"/>
</linearGradient>
<linearGradient id="paint11_linear_334_2981" x1="5.86539" y1="42.1859" x2="56.5045" y2="-8.4532" gradientUnits="userSpaceOnUse">
<stop stop-color="#006946"/>
<stop offset="0.2513" stop-color="#008547"/>
<stop offset="0.3421" stop-color="#128F45"/>
<stop offset="0.5244" stop-color="#41AA41"/>
<stop offset="0.7788" stop-color="#8CD63A"/>
<stop offset="1" stop-color="#D3FF33"/>
</linearGradient>
<linearGradient id="paint12_linear_334_2981" x1="-1.04798" y1="31.0513" x2="29.3682" y2="0.635135" gradientUnits="userSpaceOnUse">
<stop stop-color="#00AA45"/>
<stop offset="0.7542" stop-color="#D3FF33"/>
<stop offset="1" stop-color="#F9FCCA"/>
</linearGradient>
<linearGradient id="paint13_linear_334_2981" x1="-28.3427" y1="64.9282" x2="46.8298" y2="-10.2442" gradientUnits="userSpaceOnUse">
<stop stop-color="#00AA45"/>
<stop offset="0.7542" stop-color="#D3FF33"/>
<stop offset="1" stop-color="#F9FCCA"/>
</linearGradient>
</defs>
</svg>
