<svg width="46" height="46" viewBox="0 0 46 46" fill="none" xmlns="http://www.w3.org/2000/svg">
<path d="M23.3467 45.9092C35.8508 45.9092 45.9873 35.7726 45.9873 23.2686C45.9873 10.7645 35.8508 0.62793 23.3467 0.62793C10.8426 0.62793 0.706055 10.7645 0.706055 23.2686C0.706055 35.7726 10.8426 45.9092 23.3467 45.9092Z" fill="url(#paint0_linear_334_2997)"/>
<path d="M23.3467 45.9092C35.8508 45.9092 45.9873 35.7726 45.9873 23.2686C45.9873 10.7645 35.8508 0.62793 23.3467 0.62793C10.8426 0.62793 0.706055 10.7645 0.706055 23.2686C0.706055 35.7726 10.8426 45.9092 23.3467 45.9092Z" fill="url(#paint1_radial_334_2997)"/>
<path d="M21.064 35.9688C20.6063 36.5037 20.3326 37.2015 20.338 37.9676C20.3522 39.6557 21.7006 41.0362 23.3463 41.0362C24.7777 41.0364 25.9813 39.9923 26.2829 38.6112C24.554 37.7402 22.8133 36.8577 21.064 35.9688Z" fill="url(#paint2_linear_334_2997)"/>
<path d="M24.0127 39.6757C24.9164 39.6744 25.7279 39.2607 26.2835 38.611C26.3286 38.4033 26.3537 38.188 26.3553 37.9673C26.369 36.2789 25.0206 34.9173 23.3469 34.917C22.4332 34.9171 21.6154 35.3243 21.0645 35.9685C21.0215 36.1759 20.999 36.3908 21 36.6117C21.0106 38.3002 22.3606 39.6783 24.0127 39.6757Z" fill="url(#paint3_linear_334_2997)"/>
<path d="M21.085 6.56445C20.6262 7.10358 20.3434 7.805 20.338 8.57107C20.3243 10.2593 21.6726 11.621 23.3464 11.6214C24.8007 11.6211 26.0105 10.5918 26.2917 9.21394C24.5456 8.3222 22.8091 7.43744 21.085 6.56445Z" fill="url(#paint4_linear_334_2997)"/>
<path d="M24.0179 10.2605C24.9292 10.2614 25.7442 9.85541 26.2922 9.21245C26.3347 9.00532 26.3568 8.79023 26.3552 8.56958C26.341 6.88144 24.9927 5.50107 23.3469 5.50098C22.4465 5.50107 21.6386 5.91364 21.0856 6.56296C21.0408 6.77071 21.0161 6.9858 21.0147 7.20672C21.0026 8.89566 22.3484 10.2582 24.0179 10.2605Z" fill="url(#paint5_linear_334_2997)"/>
<path d="M30.611 9.70312C29.7818 10.4945 29.2666 11.6289 29.2785 12.8928C29.2997 15.3293 31.2831 17.3119 33.719 17.3304C35.987 17.3465 37.8342 15.6748 38.0266 13.5071C35.5433 12.2406 33.0687 10.968 30.611 9.70312Z" fill="url(#paint6_linear_334_2997)"/>
<path d="M33.5709 8.55566C32.4172 8.53125 31.3793 8.96947 30.6107 9.70317C30.5954 9.86475 30.5878 10.0289 30.5903 10.1956C30.6236 12.6296 32.6091 14.6167 35.0384 14.6479C36.2054 14.6639 37.2579 14.227 38.0262 13.5071C38.0405 13.3475 38.0468 13.1853 38.0428 13.0204C37.9809 10.6198 35.9651 8.60899 33.5709 8.55566Z" fill="url(#paint7_linear_334_2997)"/>
<path d="M9.96847 30.3672C9.12953 31.1526 8.6202 32.2675 8.65071 33.5156C8.71262 35.916 10.7284 37.9269 13.1226 37.9802C15.3539 38.0292 17.1674 36.3374 17.3922 34.1362C14.9284 32.8813 12.4512 31.6205 9.96847 30.3672Z" fill="url(#paint8_linear_334_2997)"/>
<path d="M12.9766 29.2072C11.806 29.1976 10.7473 29.6418 9.97026 30.3689C9.95461 30.5293 9.94709 30.6918 9.94974 30.8572C9.99166 33.2642 12.001 35.2649 14.4099 35.3033C15.5702 35.3207 16.6171 34.8758 17.3939 34.1379C17.4102 33.9759 17.4187 33.8115 17.4171 33.6447C17.3958 31.2083 15.4124 29.2255 12.9766 29.2072Z" fill="url(#paint9_linear_334_2997)"/>
<path d="M5.62292 20.123C4.76231 20.919 4.22061 22.0341 4.2207 23.2697C4.22106 25.6456 6.22705 27.5996 8.66216 27.6252C10.9312 27.6473 12.7859 25.955 13.0312 23.7608C10.5561 22.5317 8.08411 21.3145 5.62292 20.123Z" fill="url(#paint10_linear_334_2997)"/>
<path d="M8.66247 18.9133C7.49064 18.9238 6.42069 19.3853 5.62323 20.1221C5.60369 20.2811 5.59219 20.4428 5.59095 20.6065C5.57229 22.9909 7.56396 24.9366 10.003 24.9483C11.1766 24.952 12.2407 24.5009 13.0315 23.7599C13.0494 23.5985 13.0595 23.4348 13.0595 23.2688C13.0584 20.8428 11.0983 18.8889 8.66247 18.9133Z" fill="url(#paint11_linear_334_2997)"/>
<path d="M35.0154 20.085C34.1667 20.8789 33.6367 22.0117 33.6367 23.2699C33.6379 25.6958 35.598 27.6498 38.0338 27.6253C40.3021 27.6023 42.1967 25.9029 42.4466 23.7524C39.9743 22.5494 37.4946 21.3223 35.0154 20.085Z" fill="url(#paint12_linear_334_2997)"/>
<path d="M38.0323 18.9133C36.8603 18.903 35.8004 19.3479 35.0139 20.0839C34.9967 20.2448 34.9875 20.408 34.9883 20.5739C35.0006 22.9956 36.9708 24.9517 39.4106 24.9393C40.584 24.9348 41.6525 24.4806 42.4451 23.7515C42.4634 23.5931 42.4737 23.432 42.4737 23.2688C42.4734 20.893 40.4674 18.939 38.0323 18.9133Z" fill="url(#paint13_linear_334_2997)"/>
<path d="M16.1697 17.9951C15.0722 19.4768 14.4177 21.2981 14.418 23.2676C14.4242 28.1617 18.459 32.1911 23.347 32.1967C27.3527 32.1958 30.7739 29.4858 31.8954 25.8263C26.6584 23.2339 21.3915 20.5801 16.1697 17.9951Z" fill="url(#paint14_linear_334_2997)"/>
<path d="M24.702 29.4778C27.6423 29.4744 30.2605 28.0277 31.8945 25.8276C32.1416 25.0167 32.2753 24.158 32.2753 23.2689C32.2691 18.3748 28.2343 14.3453 23.3463 14.3398C20.4156 14.3395 17.8062 15.7896 16.1689 17.9965C15.9202 18.8093 15.7841 19.6692 15.7813 20.5598C15.7685 25.4628 19.7946 29.4792 24.702 29.4778Z" fill="url(#paint15_linear_334_2997)"/>
<path d="M42.4723 23.2688C42.4719 25.6447 40.466 27.5986 38.0308 27.6243C35.595 27.6486 33.6349 25.6948 33.6338 23.2688C33.6349 20.8428 35.595 18.8889 38.0308 18.9133C40.466 18.939 42.4719 20.893 42.4723 23.2688Z" fill="url(#paint16_radial_334_2997)"/>
<path d="M13.0592 23.2688C13.0581 25.6947 11.098 27.6487 8.66216 27.6243C6.22705 27.5986 4.22115 25.6447 4.2207 23.2688C4.22106 20.893 6.22714 18.939 8.66216 18.9133C11.098 18.8888 13.0581 20.8427 13.0592 23.2688Z" fill="url(#paint17_radial_334_2997)"/>
<path d="M17.4155 33.6447C17.4347 36.0805 15.5175 38.0344 13.1227 37.9819C10.7285 37.9286 8.71262 35.9178 8.6508 33.5173C8.58995 31.1163 10.5396 29.1904 12.9749 29.2071C15.4108 29.2253 17.3942 31.2083 17.4155 33.6447Z" fill="url(#paint18_radial_334_2997)"/>
<path d="M26.3547 8.56967C26.3684 10.2579 25.0201 11.6196 23.3464 11.62C21.6727 11.6195 20.3243 10.258 20.338 8.56967C20.3522 6.88144 21.7006 5.50107 23.3464 5.50098C24.9921 5.50098 26.3405 6.88144 26.3547 8.56967Z" fill="url(#paint19_radial_334_2997)"/>
<path d="M32.2761 23.2689C32.2698 28.163 28.2351 32.1924 23.347 32.198C18.459 32.1925 14.4242 28.163 14.418 23.2689C14.4242 18.3748 18.459 14.3453 23.347 14.3398C28.2351 14.3452 32.2698 18.3749 32.2761 23.2689Z" fill="url(#paint20_radial_334_2997)"/>
<path d="M26.3547 37.9673C26.3405 39.6555 24.9921 41.036 23.3464 41.036C21.7006 41.0359 20.3522 39.6552 20.338 37.9673C20.3243 36.2789 21.6726 34.9173 23.3464 34.917C25.02 34.9175 26.3684 36.2792 26.3547 37.9673Z" fill="url(#paint21_radial_334_2997)"/>
<path d="M38.043 13.0203C38.1039 15.4213 36.1542 17.347 33.7189 17.3305C31.283 17.3122 29.2997 15.3293 29.2785 12.8929C29.2593 10.457 31.1765 8.50327 33.5712 8.55572C35.9653 8.60914 37.9811 10.6201 38.043 13.0203Z" fill="url(#paint22_radial_334_2997)"/>
<defs>
<linearGradient id="paint0_linear_334_2997" x1="7.33737" y1="39.2779" x2="39.3561" y2="7.25916" gradientUnits="userSpaceOnUse">
<stop stop-color="#230BE0"/>
<stop offset="1" stop-color="#FC54FF"/>
</linearGradient>
<radialGradient id="paint1_radial_334_2997" cx="0" cy="0" r="1" gradientUnits="userSpaceOnUse" gradientTransform="translate(23.3468 23.2686) scale(22.6406)">
<stop stop-color="#8D00DB" stop-opacity="0.8"/>
<stop offset="1" stop-color="#FC54FF" stop-opacity="0"/>
</radialGradient>
<linearGradient id="paint2_linear_334_2997" x1="20.9356" y1="40.3793" x2="33.7447" y2="27.57" gradientUnits="userSpaceOnUse">
<stop stop-color="#1805B0"/>
<stop offset="1" stop-color="#FC54FF"/>
</linearGradient>
<linearGradient id="paint3_linear_334_2997" x1="18.7184" y1="42.2457" x2="41.2536" y2="19.7105" gradientUnits="userSpaceOnUse">
<stop stop-color="#1805B0"/>
<stop offset="1" stop-color="#FC54FF"/>
</linearGradient>
<linearGradient id="paint4_linear_334_2997" x1="20.39" y1="11.5409" x2="34.8155" y2="-2.88465" gradientUnits="userSpaceOnUse">
<stop stop-color="#FC54FF"/>
<stop offset="1" stop-color="white"/>
</linearGradient>
<linearGradient id="paint5_linear_334_2997" x1="17.6775" y1="13.8988" x2="40.142" y2="-8.56566" gradientUnits="userSpaceOnUse">
<stop stop-color="#FC54FF"/>
<stop offset="1" stop-color="white"/>
</linearGradient>
<linearGradient id="paint6_linear_334_2997" x1="27.4495" y1="19.1559" x2="48.0183" y2="-1.41289" gradientUnits="userSpaceOnUse">
<stop stop-color="#1805B0"/>
<stop offset="1" stop-color="#FC54FF"/>
</linearGradient>
<linearGradient id="paint7_linear_334_2997" x1="19.6911" y1="26.2324" x2="59.9614" y2="-14.0378" gradientUnits="userSpaceOnUse">
<stop stop-color="#1805B0"/>
<stop offset="1" stop-color="#FC54FF"/>
</linearGradient>
<linearGradient id="paint8_linear_334_2997" x1="9.52565" y1="37.0998" x2="30.5189" y2="16.1066" gradientUnits="userSpaceOnUse">
<stop stop-color="#FC54FF"/>
<stop offset="1" stop-color="white"/>
</linearGradient>
<linearGradient id="paint9_linear_334_2997" x1="7.4476" y1="38.4879" x2="31.7868" y2="14.1487" gradientUnits="userSpaceOnUse">
<stop stop-color="#FC54FF"/>
<stop offset="1" stop-color="white"/>
</linearGradient>
<linearGradient id="paint10_linear_334_2997" x1="-8.68215" y1="40.6224" x2="12.434" y2="19.5063" gradientUnits="userSpaceOnUse">
<stop stop-color="#FC54FF"/>
<stop offset="1" stop-color="white"/>
</linearGradient>
<linearGradient id="paint11_linear_334_2997" x1="-27.834" y1="59.1024" x2="13.4865" y2="17.7818" gradientUnits="userSpaceOnUse">
<stop stop-color="#FC54FF"/>
<stop offset="1" stop-color="white"/>
</linearGradient>
<linearGradient id="paint12_linear_334_2997" x1="21.0993" y1="40.1971" x2="41.3761" y2="19.9203" gradientUnits="userSpaceOnUse">
<stop stop-color="#FC54FF"/>
<stop offset="1" stop-color="white"/>
</linearGradient>
<linearGradient id="paint13_linear_334_2997" x1="1.79992" y1="58.8472" x2="42.8393" y2="17.8078" gradientUnits="userSpaceOnUse">
<stop stop-color="#FC54FF"/>
<stop offset="1" stop-color="white"/>
</linearGradient>
<linearGradient id="paint14_linear_334_2997" x1="13.4557" y1="33.2296" x2="55.0753" y2="-8.38997" gradientUnits="userSpaceOnUse">
<stop stop-color="#FC54FF"/>
<stop offset="1" stop-color="white"/>
</linearGradient>
<linearGradient id="paint15_linear_334_2997" x1="6.3006" y1="39.642" x2="72.3563" y2="-26.4138" gradientUnits="userSpaceOnUse">
<stop stop-color="#FC54FF"/>
<stop offset="1" stop-color="white"/>
</linearGradient>
<radialGradient id="paint16_radial_334_2997" cx="0" cy="0" r="1" gradientUnits="userSpaceOnUse" gradientTransform="translate(38.053 23.2688) scale(5.79034)">
<stop stop-color="white" stop-opacity="0"/>
<stop offset="0.1764" stop-color="#FFFCFF" stop-opacity="0.141"/>
<stop offset="0.3299" stop-color="#FFF1FF" stop-opacity="0.264"/>
<stop offset="0.4748" stop-color="#FEDFFF" stop-opacity="0.38"/>
<stop offset="0.6145" stop-color="#FEC6FF" stop-opacity="0.492"/>
<stop offset="0.7505" stop-color="#FDA5FF" stop-opacity="0.6"/>
<stop offset="0.8818" stop-color="#FD7EFF" stop-opacity="0.706"/>
<stop offset="1" stop-color="#FC54FF" stop-opacity="0.8"/>
</radialGradient>
<radialGradient id="paint17_radial_334_2997" cx="0" cy="0" r="1" gradientUnits="userSpaceOnUse" gradientTransform="translate(8.63996 23.2688) scale(5.79034 5.79034)">
<stop stop-color="white" stop-opacity="0"/>
<stop offset="0.1764" stop-color="#FFFCFF" stop-opacity="0.141"/>
<stop offset="0.3299" stop-color="#FFF1FF" stop-opacity="0.264"/>
<stop offset="0.4748" stop-color="#FEDFFF" stop-opacity="0.38"/>
<stop offset="0.6145" stop-color="#FEC6FF" stop-opacity="0.492"/>
<stop offset="0.7505" stop-color="#FDA5FF" stop-opacity="0.6"/>
<stop offset="0.8818" stop-color="#FD7EFF" stop-opacity="0.706"/>
<stop offset="1" stop-color="#FC54FF" stop-opacity="0.8"/>
</radialGradient>
<radialGradient id="paint18_radial_334_2997" cx="0" cy="0" r="1" gradientUnits="userSpaceOnUse" gradientTransform="translate(13.0325 33.5949) scale(6.31576 6.31576)">
<stop stop-color="#FC54FF" stop-opacity="0"/>
<stop offset="0.2408" stop-color="#F851FE" stop-opacity="0.193"/>
<stop offset="0.4716" stop-color="#ED48FA" stop-opacity="0.377"/>
<stop offset="0.6984" stop-color="#D93AF4" stop-opacity="0.559"/>
<stop offset="0.9213" stop-color="#BE26EB" stop-opacity="0.737"/>
<stop offset="1" stop-color="#B31DE7" stop-opacity="0.8"/>
</radialGradient>
<radialGradient id="paint19_radial_334_2997" cx="0" cy="0" r="1" gradientUnits="userSpaceOnUse" gradientTransform="translate(23.3464 8.56047) scale(4.99341 4.99341)">
<stop stop-color="#FC54FF" stop-opacity="0"/>
<stop offset="0.2408" stop-color="#F851FE" stop-opacity="0.193"/>
<stop offset="0.4716" stop-color="#ED48FA" stop-opacity="0.377"/>
<stop offset="0.6984" stop-color="#D93AF4" stop-opacity="0.559"/>
<stop offset="0.9213" stop-color="#BE26EB" stop-opacity="0.737"/>
<stop offset="1" stop-color="#B31DE7" stop-opacity="0.8"/>
</radialGradient>
<radialGradient id="paint20_radial_334_2997" cx="0" cy="0" r="1" gradientUnits="userSpaceOnUse" gradientTransform="translate(23.347 23.2689) scale(14.6953)">
<stop stop-color="#FC54FF" stop-opacity="0"/>
<stop offset="0.1968" stop-color="#F851FE" stop-opacity="0.158"/>
<stop offset="0.3854" stop-color="#ED48FA" stop-opacity="0.308"/>
<stop offset="0.5707" stop-color="#D93AF4" stop-opacity="0.457"/>
<stop offset="0.754" stop-color="#BE25EB" stop-opacity="0.603"/>
<stop offset="0.9341" stop-color="#9C0BE0" stop-opacity="0.747"/>
<stop offset="1" stop-color="#8D00DB" stop-opacity="0.8"/>
</radialGradient>
<radialGradient id="paint21_radial_334_2997" cx="0" cy="0" r="1" gradientUnits="userSpaceOnUse" gradientTransform="translate(23.3464 37.9765) scale(4.26334)">
<stop stop-color="#8D00DB" stop-opacity="0"/>
<stop offset="0.153" stop-color="#8700D7" stop-opacity="0.122"/>
<stop offset="0.3543" stop-color="#7701CE" stop-opacity="0.283"/>
<stop offset="0.5825" stop-color="#5B03BD" stop-opacity="0.466"/>
<stop offset="0.8287" stop-color="#3605A6" stop-opacity="0.663"/>
<stop offset="1" stop-color="#170794" stop-opacity="0.8"/>
</radialGradient>
<radialGradient id="paint22_radial_334_2997" cx="0" cy="0" r="1" gradientUnits="userSpaceOnUse" gradientTransform="translate(33.6614 12.9427) scale(6.96146 6.96146)">
<stop stop-color="#8D00DB" stop-opacity="0"/>
<stop offset="0.1523" stop-color="#8301D5" stop-opacity="0.122"/>
<stop offset="0.4098" stop-color="#6902C5" stop-opacity="0.328"/>
<stop offset="0.7389" stop-color="#3E05AB" stop-opacity="0.591"/>
<stop offset="1" stop-color="#170794" stop-opacity="0.8"/>
</radialGradient>
</defs>
</svg>
