<svg width="46" height="47" viewBox="0 0 46 47" fill="none" xmlns="http://www.w3.org/2000/svg">
<path d="M22.7578 46.0449C35.2619 46.0449 45.3984 35.9084 45.3984 23.4043C45.3984 10.9002 35.2619 0.763672 22.7578 0.763672C10.2537 0.763672 0.117188 10.9002 0.117188 23.4043C0.117188 35.9084 10.2537 46.0449 22.7578 46.0449Z" fill="url(#paint0_linear_334_2949)"/>
<path d="M22.7578 46.0449C35.2619 46.0449 45.3984 35.9084 45.3984 23.4043C45.3984 10.9002 35.2619 0.763672 22.7578 0.763672C10.2537 0.763672 0.117188 10.9002 0.117188 23.4043C0.117188 35.9084 10.2537 46.0449 22.7578 46.0449Z" fill="url(#paint1_radial_334_2949)"/>
<path d="M28.1654 30.1875C25.2373 30.2136 22.309 30.2185 19.3809 30.2022C20.2929 32.0177 21.2005 33.8352 22.0931 35.65C22.0954 36.4008 22.6909 37.0114 23.4229 37.0097C24.9706 37.0061 26.5183 36.9904 28.066 36.9623C28.1101 34.704 28.1433 32.4458 28.1654 30.1875Z" fill="url(#paint2_linear_334_2949)"/>
<path d="M34.2467 30.1025C31.769 30.1494 29.2914 30.1812 26.8136 30.1977C26.8004 32.0071 26.7818 33.8165 26.7579 35.626C26.7487 36.3756 27.3337 36.9755 28.0656 36.9619C28.7289 36.9499 29.3922 36.9356 30.0555 36.919C30.7874 36.9005 31.401 36.2794 31.423 35.5359C32.3634 33.7164 33.3081 31.9036 34.2467 30.1025Z" fill="url(#paint3_linear_334_2949)"/>
<path d="M35.5956 30.0762C34.2442 30.1047 32.8926 30.1288 31.5412 30.1483C31.5124 31.9444 31.4722 33.7405 31.4205 35.5365C31.3997 36.2809 31.9741 36.8669 32.7061 36.8415C33.5905 36.8114 34.4749 36.7773 35.3593 36.7392C35.4644 34.5182 35.5431 32.2972 35.5956 30.0762Z" fill="url(#paint4_linear_334_2949)"/>
<path d="M36.9467 30.0459C36.0456 30.0669 35.1447 30.086 34.2438 30.103C34.2062 31.887 34.1536 33.6711 34.0859 35.4552C34.0586 36.1946 34.6269 36.7712 35.3589 36.739C36.0908 36.7069 36.7165 36.0842 36.7517 35.3523C36.8352 33.5835 36.9002 31.8147 36.9467 30.0459Z" fill="url(#paint5_linear_334_2949)"/>
<path d="M23.4353 19.334C22.6861 19.3335 22.0783 19.9428 22.0777 20.6937C21.1712 22.2804 20.2624 23.8672 19.3594 25.4499C20.2683 27.0356 21.1782 28.6242 22.0812 30.2115C22.0825 30.9623 22.6869 31.5722 23.4309 31.5712C24.5541 31.5696 25.6773 31.5643 26.8004 31.5553C27.2537 31.0993 27.7079 30.6434 28.1629 30.1878C28.1982 26.5746 28.2053 22.9613 28.1841 19.3481C26.6011 19.3398 25.0182 19.335 23.4353 19.334Z" fill="url(#paint6_linear_334_2949)"/>
<path d="M31.5862 20.7194C31.5813 19.9759 30.9677 19.3673 30.2186 19.3615C29.5402 19.3565 28.8619 19.3522 28.1834 19.3487C27.4344 19.3444 26.8296 19.9498 26.8316 20.6994C26.8423 24.3182 26.8316 27.9371 26.7998 31.5558C27.923 31.5468 29.0462 31.534 30.1694 31.5175C30.9133 31.5061 31.5287 30.8923 31.5409 30.1488C32.467 28.5642 33.3921 26.9867 34.308 25.4205C33.4118 23.8646 32.5019 22.2962 31.5862 20.7194Z" fill="url(#paint7_linear_334_2949)"/>
<path d="M16.6763 30.1813C13.9733 30.1542 11.2704 30.1091 8.56738 30.0459C8.61381 31.8147 8.67882 33.5835 8.76239 35.3523C8.79759 36.0842 9.42322 36.7069 10.1551 36.739C12.3661 36.8343 14.5771 36.9045 16.7881 36.9496C16.7385 34.6936 16.7012 32.4374 16.6763 30.1813Z" fill="url(#paint8_linear_334_2949)"/>
<path d="M22.0816 30.2111C19.8291 30.2086 17.5767 30.1936 15.3242 30.166C15.3485 31.9669 15.3826 33.7678 15.4264 35.5686C15.4451 36.3142 16.0557 36.9341 16.7876 36.9494C18.1142 36.9764 19.4408 36.9945 20.7674 37.0035C21.4994 37.0085 22.0919 36.4008 22.0908 35.6498C22.0869 33.837 22.0838 32.0241 22.0816 30.2111Z" fill="url(#paint9_linear_334_2949)"/>
<path d="M16.7883 9.87695C14.5773 9.92206 12.3663 9.99228 10.1553 10.0875C9.42335 10.1197 8.79773 10.7423 8.76253 11.4743C8.46997 17.6651 8.40505 23.8559 8.56752 30.0467C8.58706 30.7787 9.20977 31.3898 9.95364 31.4093C11.7507 31.4551 13.5478 31.4911 15.3449 31.5176C15.7869 31.074 16.2308 30.6287 16.6763 30.182C16.6018 23.4137 16.6391 16.6453 16.7883 9.87695Z" fill="url(#paint10_linear_334_2949)"/>
<path d="M20.7681 9.8223C19.4415 9.83132 18.1149 9.84936 16.7883 9.87642C16.0564 9.89163 15.4458 10.5116 15.4271 11.2571C15.2629 18.0105 15.2355 24.7638 15.345 31.5171C17.1421 31.5436 18.9392 31.5605 20.7363 31.5676C21.4802 31.5707 22.0828 30.9625 22.0822 30.2116C22.0746 23.8664 22.0776 17.5212 22.0915 11.176C22.0926 10.425 21.5 9.81726 20.7681 9.8223Z" fill="url(#paint11_linear_334_2949)"/>
<path d="M35.4748 12.7513C34.5824 12.7208 33.6901 12.6935 32.7977 12.6695C32.059 12.649 31.4754 13.2385 31.4915 13.9828C31.6123 19.371 31.6295 24.7592 31.5433 30.1475C31.5318 30.8918 32.1234 31.4847 32.8674 31.4693C33.3167 31.4603 33.7659 31.4507 34.2152 31.4404C34.6757 30.9841 35.1367 30.529 35.5977 30.0753C35.7342 24.3006 35.6931 18.526 35.4748 12.7513Z" fill="url(#paint12_linear_334_2949)"/>
<path d="M35.4736 12.7528C34.7348 12.727 34.1561 13.308 34.1773 14.0475C34.3484 19.8456 34.3606 25.6437 34.2139 31.4418C34.2139 31.4418 34.8174 31.4283 35.5618 31.4094C36.3056 31.3898 36.9283 30.7786 36.9479 30.0467C37.0872 24.7403 37.0593 19.4339 36.8643 14.1275C36.8369 13.3956 36.2121 12.7787 35.4736 12.7528Z" fill="url(#paint13_linear_334_2949)"/>
<defs>
<linearGradient id="paint0_linear_334_2949" x1="6.74841" y1="39.4136" x2="38.7671" y2="7.3949" gradientUnits="userSpaceOnUse">
<stop offset="0.0056" stop-color="#560DFF"/>
<stop offset="1" stop-color="#73ECFF"/>
</linearGradient>
<radialGradient id="paint1_radial_334_2949" cx="0" cy="0" r="1" gradientUnits="userSpaceOnUse" gradientTransform="translate(22.7578 26.315) scale(25.9217)">
<stop stop-color="#6B23EA"/>
<stop offset="0.0902" stop-color="#5F41E7" stop-opacity="0.91"/>
<stop offset="0.241" stop-color="#4D6DE4" stop-opacity="0.759"/>
<stop offset="0.3937" stop-color="#3F91E1" stop-opacity="0.606"/>
<stop offset="0.5459" stop-color="#34AEDE" stop-opacity="0.454"/>
<stop offset="0.6979" stop-color="#2BC2DC" stop-opacity="0.302"/>
<stop offset="0.8494" stop-color="#27CEDB" stop-opacity="0.151"/>
<stop offset="1" stop-color="#25D2DB" stop-opacity="0"/>
</radialGradient>
<linearGradient id="paint2_linear_334_2949" x1="19.8832" y1="37.4224" x2="47.0722" y2="10.2334" gradientUnits="userSpaceOnUse">
<stop stop-color="#170794"/>
<stop offset="1" stop-color="#3CA1FF"/>
</linearGradient>
<linearGradient id="paint3_linear_334_2949" x1="16.0401" y1="46.218" x2="57.6794" y2="4.57859" gradientUnits="userSpaceOnUse">
<stop stop-color="#170794"/>
<stop offset="1" stop-color="#3CA1FF"/>
</linearGradient>
<linearGradient id="paint4_linear_334_2949" x1="28.4615" y1="38.4325" x2="51.4067" y2="15.4873" gradientUnits="userSpaceOnUse">
<stop stop-color="#43DCC7"/>
<stop offset="0.3" stop-color="#85FFE0"/>
<stop offset="0.4638" stop-color="#9DFFE6"/>
<stop offset="0.8076" stop-color="#DAFFF6"/>
<stop offset="1" stop-color="white"/>
</linearGradient>
<linearGradient id="paint5_linear_334_2949" x1="27.4787" y1="41.007" x2="42.3351" y2="26.1506" gradientUnits="userSpaceOnUse">
<stop stop-color="#43DCC7"/>
<stop offset="0.3" stop-color="#85FFE0"/>
<stop offset="0.4638" stop-color="#9DFFE6"/>
<stop offset="0.8076" stop-color="#DAFFF6"/>
<stop offset="1" stop-color="white"/>
</linearGradient>
<linearGradient id="paint6_linear_334_2949" x1="3.34423" y1="46.9376" x2="62.6884" y2="-12.4066" gradientUnits="userSpaceOnUse">
<stop stop-color="#170794"/>
<stop offset="1" stop-color="#3CA1FF"/>
</linearGradient>
<linearGradient id="paint7_linear_334_2949" x1="-18.1868" y1="72.789" x2="92.695" y2="-38.0928" gradientUnits="userSpaceOnUse">
<stop stop-color="#170794"/>
<stop offset="1" stop-color="#3CA1FF"/>
</linearGradient>
<linearGradient id="paint8_linear_334_2949" x1="8.34655" y1="37.8291" x2="56.6187" y2="-10.4431" gradientUnits="userSpaceOnUse">
<stop stop-color="#389FFF"/>
<stop offset="0.1209" stop-color="#45AFFA"/>
<stop offset="0.5726" stop-color="#73E9E7"/>
<stop offset="0.79" stop-color="#85FFE0"/>
<stop offset="0.881" stop-color="#9DFFE6"/>
<stop offset="1" stop-color="#C2FFF0"/>
</linearGradient>
<linearGradient id="paint9_linear_334_2949" x1="9.76267" y1="42.1396" x2="43.3906" y2="8.51176" gradientUnits="userSpaceOnUse">
<stop stop-color="#389FFF"/>
<stop offset="0.1209" stop-color="#45AFFA"/>
<stop offset="0.5726" stop-color="#73E9E7"/>
<stop offset="0.79" stop-color="#85FFE0"/>
<stop offset="0.881" stop-color="#9DFFE6"/>
<stop offset="1" stop-color="#C2FFF0"/>
</linearGradient>
<linearGradient id="paint10_linear_334_2949" x1="-5.59358" y1="38.883" x2="59.3545" y2="-26.0651" gradientUnits="userSpaceOnUse">
<stop stop-color="#389FFF"/>
<stop offset="0.1209" stop-color="#45AFFA"/>
<stop offset="0.5726" stop-color="#73E9E7"/>
<stop offset="0.79" stop-color="#85FFE0"/>
<stop offset="0.881" stop-color="#9DFFE6"/>
<stop offset="1" stop-color="#C2FFF0"/>
</linearGradient>
<linearGradient id="paint11_linear_334_2949" x1="-17.1337" y1="56.6307" x2="67.6164" y2="-28.1194" gradientUnits="userSpaceOnUse">
<stop stop-color="#389FFF"/>
<stop offset="0.1209" stop-color="#45AFFA"/>
<stop offset="0.5726" stop-color="#73E9E7"/>
<stop offset="0.79" stop-color="#85FFE0"/>
<stop offset="0.881" stop-color="#9DFFE6"/>
<stop offset="1" stop-color="#C2FFF0"/>
</linearGradient>
<linearGradient id="paint12_linear_334_2949" x1="8.54366" y1="46.7433" x2="46.5131" y2="8.77385" gradientUnits="userSpaceOnUse">
<stop stop-color="#43DCC7"/>
<stop offset="0.3" stop-color="#85FFE0"/>
<stop offset="0.4638" stop-color="#9DFFE6"/>
<stop offset="0.8076" stop-color="#DAFFF6"/>
<stop offset="1" stop-color="white"/>
</linearGradient>
<linearGradient id="paint13_linear_334_2949" x1="-23.4134" y1="81.0011" x2="39.0236" y2="18.5642" gradientUnits="userSpaceOnUse">
<stop stop-color="#43DCC7"/>
<stop offset="0.3" stop-color="#85FFE0"/>
<stop offset="0.4638" stop-color="#9DFFE6"/>
<stop offset="0.8076" stop-color="#DAFFF6"/>
<stop offset="1" stop-color="white"/>
</linearGradient>
</defs>
</svg>
