<svg width="18" height="18" viewBox="0 0 18 18" fill="none" xmlns="http://www.w3.org/2000/svg">
<g clip-path="url(#clip0_165_4934)">
<path d="M11.7656 5.51904C11.7656 6.07381 12.2172 6.52539 12.772 6.52539H15.7636C15.7093 5.81719 15.545 5.14039 15.2822 4.5127H12.772C12.2172 4.5127 11.7656 4.96428 11.7656 5.51904Z" fill="#232536"/>
<path d="M5.22485 17.6618H11.2629C11.5411 17.6618 11.7661 17.4368 11.7661 17.1586V14.5757H12.7725V11.3051L7.74102 7.53125H3.21216C2.93404 7.53125 2.70898 7.7563 2.70898 8.03442C2.70898 9.81667 3.43966 11.5237 4.72168 12.7546V17.1586C4.72168 17.4368 4.94673 17.6618 5.22485 17.6618Z" fill="#FFD050"/>
<path d="M9.25107 0.487305C8.97295 0.487305 8.7479 0.712358 8.7479 0.990479V1.49365H6.64252C6.4341 0.909233 5.88082 0.487305 5.22568 0.487305C4.3933 0.487305 3.71616 1.16444 3.71616 1.99683C3.71616 2.82921 4.3933 3.50635 5.22568 3.50635C5.88082 3.50635 6.4341 3.08442 6.64252 2.5H8.7479V4.5127H3.62348C3.41506 3.92828 2.86177 3.50635 2.20664 3.50635C1.37426 3.50635 0.663574 4.18349 0.663574 5.01587C0.663574 5.84825 1.37426 6.52539 2.20664 6.52539C2.86177 6.52539 3.41506 6.10346 3.62348 5.51904H8.7479V7.0288L13.5782 10.6515C13.7049 10.7463 13.7796 10.8957 13.7796 11.054V14.5762H14.2828C15.1152 14.5762 15.7923 13.899 15.7923 13.0666V10.5508H17.3354C17.5211 10.5508 17.6916 10.4486 17.7791 10.2849C17.8666 10.1213 17.8568 9.92279 17.7541 9.76848L16.2294 7.53174H12.7733C11.6633 7.53174 10.7606 6.62908 10.7606 5.51904C10.7606 4.40901 11.6633 3.50635 12.7733 3.50635H14.7526C13.5884 1.69418 11.5605 0.487305 9.25107 0.487305V0.487305Z" fill="#232536"/>
</g>
<defs>
<clipPath id="clip0_165_4934">
<rect width="17.175" height="17.175" fill="white" transform="translate(0.662598 0.487305)"/>
</clipPath>
</defs>
</svg>
