<svg width="114" height="114" viewBox="0 0 114 114" fill="none" xmlns="http://www.w3.org/2000/svg">
<rect x="0.888184" y="0.384766" width="112.961" height="112.961" rx="33.8882" fill="#872BFF"/>
<path fill-rule="evenodd" clip-rule="evenodd" d="M57.3685 77.1978L58.968 78.7928C58.7581 79.0036 58.5087 79.1708 58.234 79.2849C57.9593 79.3989 57.6648 79.4577 57.3674 79.4577C57.0699 79.4577 56.7754 79.3989 56.5007 79.2849C56.2261 79.1708 55.9766 79.0036 55.7667 78.7928L55.7531 78.777L55.7147 78.7386L55.5747 78.5963C54.7783 77.7759 53.995 76.9429 53.2251 76.0976C51.2921 73.9796 49.4412 71.7881 47.6765 69.5279C45.6612 66.9299 43.6008 63.9929 42.0352 61.0922C40.5035 58.2479 39.2948 55.1663 39.2948 52.3469C39.2948 42.0925 47.4099 34.2734 57.3685 34.2734C67.3271 34.2734 75.4422 42.0925 75.4422 52.3469C75.4422 55.1663 74.2335 58.2479 72.7018 61.0899C71.1361 63.9952 69.078 66.9299 67.0605 69.5279C64.592 72.69 61.9555 75.7171 59.1623 78.5963L59.0222 78.7386L58.9838 78.777L58.9703 78.7906L57.3685 77.1978ZM57.3685 59.1244C59.166 59.1244 60.8899 58.4104 62.161 57.1393C63.4321 55.8683 64.1461 54.1444 64.1461 52.3469C64.1461 50.5494 63.4321 48.8255 62.161 47.5544C60.8899 46.2834 59.166 45.5693 57.3685 45.5693C55.5709 45.5693 53.847 46.2834 52.576 47.5544C51.3049 48.8255 50.5908 50.5494 50.5908 52.3469C50.5908 54.1444 51.3049 55.8683 52.576 57.1393C53.847 58.4104 55.5709 59.1244 57.3685 59.1244Z" fill="white"/>
</svg>
