<svg width="195" height="484" viewBox="0 0 195 484" fill="none" xmlns="http://www.w3.org/2000/svg">
<g clip-path="url(#clip0_94_3908)">
<path d="M-157.018 102.854C-141.013 83.4085 -109.37 79.3725 -89.002 94.1858C-78.4565 101.844 -71.1518 113.436 -60.2286 120.553C-44.8935 130.545 -25.0466 130.094 -6.99188 127.032C11.0629 123.97 29.0726 118.643 47.3147 120.126C65.5648 121.601 84.7797 132.131 89.2604 149.882C93.6 167.054 83.1673 185.457 87.7083 202.584C95.085 230.437 135.711 237.336 145.565 264.411C150.539 278.081 145.758 294.106 135.777 304.689C125.796 315.273 111.403 320.901 96.9562 322.653C79.9179 324.723 61.7329 322.041 46.2831 329.511C21.1404 341.683 14.9074 373.885 -0.126266 397.423C-14.2804 419.599 -39.6323 435.507 -65.903 434.085C-92.1736 432.664 -117.214 411.282 -118.747 385.013C-119.579 370.832 -114.224 355.581 -120.731 342.945C-128.805 327.264 -149.638 324.958 -166.939 321.554C-181.29 318.731 -195.638 313.592 -206.422 303.72C-217.214 293.841 -223.831 278.528 -220.414 264.303C-212.102 229.606 -158.317 223.739 -156.359 185.364C-154.835 155.732 -180.84 131.803 -157.018 102.854Z" stroke="#FFB226" stroke-opacity="0.49" stroke-width="0.858384" stroke-miterlimit="10"/>
<path d="M-151.165 110.24C-136.013 91.8322 -106.05 88.0076 -86.7657 102.033C-76.7868 109.29 -69.8668 120.258 -59.5259 126.99C-45.0026 136.456 -26.2158 136.018 -9.12916 133.121C7.95751 130.224 25.0097 125.182 42.2869 126.579C59.564 127.977 77.7479 137.944 81.9992 154.745C86.1022 171.007 76.2328 188.428 80.521 204.645C87.5039 231.008 125.969 237.545 135.301 263.181C140.01 276.12 135.479 291.29 126.029 301.321C116.588 311.343 102.949 316.665 89.286 318.328C73.1602 320.292 55.9412 317.744 41.3093 324.825C17.5054 336.347 11.6027 366.835 -2.62215 389.118C-16.0226 410.114 -40.0233 425.177 -64.8921 423.833C-89.7688 422.498 -113.467 402.246 -114.916 377.376C-115.692 363.947 -110.637 349.503 -116.791 337.556C-124.435 322.717 -144.157 320.526 -160.539 317.306C-174.126 314.63 -187.708 309.767 -197.923 300.427C-208.146 291.078 -214.399 276.575 -211.17 263.107C-203.298 230.257 -152.373 224.705 -150.528 188.38C-149.102 160.321 -173.714 137.667 -151.156 110.248L-151.165 110.24Z" stroke="#FFB226" stroke-opacity="0.49" stroke-width="0.824049" stroke-linecap="round" stroke-linejoin="round"/>
<path d="M-145.311 117.628C-131.013 100.256 -102.738 96.6516 -84.5378 109.873C-75.1175 116.72 -68.5901 127.073 -58.8313 133.436C-45.1281 142.367 -27.3932 141.95 -11.2663 139.226C4.86847 136.493 20.9549 131.73 37.2591 133.05C53.5634 134.369 70.7324 143.774 74.7385 159.641C78.6128 174.984 69.2987 191.431 73.3504 206.738C79.9476 231.619 116.244 237.787 125.046 261.977C129.498 274.192 125.216 288.507 116.298 297.968C107.379 307.43 94.5198 312.453 81.6159 314.02C66.3945 315.869 50.1416 313.472 36.3435 320.148C13.8785 331.02 8.30605 359.793 -5.12617 380.822C-17.773 400.638 -40.4146 414.848 -63.8976 413.582C-87.3724 412.324 -109.745 393.204 -111.109 369.732C-111.847 357.055 -107.074 343.434 -112.883 332.152C-120.099 318.138 -138.708 316.08 -154.172 313.044C-166.995 310.53 -179.811 305.927 -189.449 297.11C-199.095 288.284 -205.008 274.6 -201.958 261.896C-194.528 230.892 -146.477 225.656 -144.721 191.373C-143.369 164.894 -166.604 143.516 -145.311 117.644L-145.311 117.628Z" stroke="#FFB226" stroke-opacity="0.49" stroke-width="0.789713" stroke-linecap="round" stroke-linejoin="round"/>
<path d="M-139.458 125.016C-126.013 108.681 -99.4175 105.288 -82.3096 117.729C-73.4479 124.167 -67.3132 133.904 -58.1367 139.882C-45.2456 148.271 -28.5702 147.899 -13.4117 145.324C1.755 142.756 16.8838 138.279 32.2231 139.512C47.5545 140.754 63.7007 149.605 67.4692 164.513C71.1231 178.946 62.3479 194.402 66.1629 208.799C72.3584 232.199 106.503 237.997 114.782 260.748C118.96 272.24 114.945 285.7 106.558 294.593C98.1705 303.485 86.074 308.21 73.9452 309.681C59.6363 311.422 44.3494 309.159 31.3692 315.447C10.2431 325.669 5.00081 352.728 -7.63051 372.511C-19.5237 391.146 -40.8223 404.504 -62.8952 403.323C-84.9764 402.135 -106.007 384.161 -107.287 362.089C-107.977 350.171 -103.488 337.357 -108.96 326.749C-115.745 313.576 -133.244 311.633 -147.782 308.773C-159.841 306.406 -171.898 302.088 -180.959 293.793C-190.028 285.49 -195.585 272.625 -192.722 260.677C-185.733 231.519 -140.55 226.591 -138.899 194.35C-137.629 169.443 -159.479 149.332 -139.458 125.016Z" stroke="#FFB226" stroke-opacity="0.49" stroke-width="0.755378" stroke-linecap="round" stroke-linejoin="round"/>
<path d="M-133.605 132.402C-121.006 117.097 -96.1053 113.931 -80.0737 125.576C-71.7784 131.612 -66.0284 140.726 -57.4261 146.326C-45.3467 154.189 -29.7314 153.831 -15.5328 151.428C-1.33415 149.025 12.845 144.826 27.2035 145.99C41.562 147.154 56.6851 155.434 60.2084 169.408C63.6256 182.931 55.4137 197.405 58.9839 210.884C64.7938 232.802 96.7697 238.23 104.518 259.535C108.431 270.296 104.666 282.901 96.8103 291.24C88.9621 299.571 77.6286 303.997 66.2671 305.381C52.8625 307.007 38.5418 304.895 26.3875 310.786C6.60028 320.358 1.68822 345.702 -10.1343 364.231C-21.2739 381.685 -41.2213 394.199 -61.9005 393.087C-82.5798 391.976 -102.276 375.142 -103.488 354.469C-104.139 343.303 -99.9248 331.304 -105.052 321.361C-111.408 309.029 -127.795 307.202 -141.415 304.526C-152.71 302.305 -164.001 298.264 -172.485 290.491C-180.976 282.727 -186.178 270.664 -183.502 259.473C-176.954 232.162 -134.63 227.55 -133.092 197.359C-131.904 174.039 -152.369 155.197 -133.621 132.419L-133.605 132.402Z" stroke="#FFB226" stroke-opacity="0.49" stroke-width="0.709597" stroke-linecap="round" stroke-linejoin="round"/>
<path d="M-127.743 139.799C-115.998 125.53 -92.785 122.568 -77.8292 133.433C-70.0925 139.059 -64.7352 147.557 -56.7231 152.781C-45.4639 160.109 -30.9084 159.78 -17.6537 157.534C-4.41515 155.288 8.80645 151.375 22.2003 152.468C35.5859 153.555 49.6861 161.28 52.9801 174.304C56.1687 186.908 48.5122 200.408 51.8375 212.969C57.2535 233.398 87.0612 238.472 94.2953 258.33C97.9426 268.36 94.4364 280.118 87.1113 287.888C79.7863 295.659 69.2238 299.778 58.6295 301.073C46.1295 302.6 32.7909 300.623 21.4542 306.109C3.00586 315.031 -1.56773 338.669 -12.5976 355.943C-22.9835 372.217 -41.5797 383.886 -60.8653 382.844C-80.1427 381.811 -98.5133 366.108 -99.6325 346.841C-100.236 336.435 -96.3216 325.243 -101.087 315.981C-107.014 304.475 -122.29 302.779 -134.991 300.287C-145.522 298.213 -156.047 294.448 -163.962 287.207C-171.876 279.965 -176.738 268.721 -174.233 258.286C-168.133 232.829 -128.669 228.517 -127.237 200.368C-126.131 178.62 -145.21 161.062 -127.727 139.815L-127.743 139.799Z" stroke="#FFB226" stroke-opacity="0.49" stroke-width="0.675262" stroke-linecap="round" stroke-linejoin="round"/>
<path d="M-121.898 147.194C-111.006 133.962 -89.4728 131.211 -75.609 141.297C-68.4308 146.513 -63.4662 154.395 -56.0282 159.242C-45.589 166.037 -32.0854 165.728 -19.7988 163.647C-7.51214 161.565 4.7357 157.939 17.1646 158.946C29.5853 159.946 42.6544 167.11 45.7112 179.191C48.6631 190.885 41.5699 203.403 44.6586 215.054C49.6729 234.001 77.3281 238.705 84.0316 257.117C87.4136 266.415 84.1657 277.326 77.3717 284.527C70.5777 291.729 60.7865 295.558 50.9591 296.748C39.3634 298.16 26.9911 296.334 16.4802 301.423C-0.628933 309.712 -4.87264 331.619 -15.1019 347.631C-24.7342 362.724 -41.9874 373.541 -59.8629 372.584C-77.7467 371.62 -94.7751 357.064 -95.8181 339.188C-96.3821 329.534 -92.7432 319.158 -97.1714 310.568C-102.669 299.904 -116.841 298.331 -128.616 296.015C-138.376 294.096 -148.142 290.599 -155.48 283.881C-162.817 277.162 -167.323 266.737 -165.005 257.058C-159.347 233.448 -122.75 229.459 -121.414 203.344C-120.382 183.176 -138.084 166.893 -121.865 147.193L-121.898 147.194Z" stroke="#FFB226" stroke-opacity="0.49" stroke-width="0.640927" stroke-linecap="round" stroke-linejoin="round"/>
<path d="M-116.044 154.581C-106.006 142.386 -86.1603 139.855 -73.3809 149.136C-66.7613 153.943 -62.1893 161.21 -55.3338 165.671C-45.7063 171.94 -33.2708 171.652 -21.936 169.736C-10.6175 167.819 0.688986 164.478 12.1288 165.409C23.5766 166.331 35.6229 172.94 38.4341 184.07C41.1574 194.847 34.6113 206.382 37.4554 217.132C42.0842 234.597 67.5708 238.931 73.7441 255.912C76.8688 264.487 73.8629 274.536 67.6081 281.176C61.3534 287.816 52.317 291.338 43.2568 292.441C32.5737 293.746 21.1673 292.054 11.474 296.739C-4.29622 304.378 -8.20971 324.57 -17.6381 339.336C-26.5168 353.248 -42.4188 363.221 -58.9006 362.334C-75.3825 361.447 -91.077 348.03 -92.0434 331.561C-92.56 322.667 -89.2046 313.097 -93.2877 305.173C-98.356 295.334 -111.417 293.893 -122.273 291.761C-131.277 289.997 -140.269 286.768 -147.046 280.573C-153.815 274.385 -157.972 264.77 -155.826 255.848C-150.608 234.084 -116.878 230.403 -115.64 206.337C-114.69 187.742 -130.999 172.734 -116.06 154.581L-116.044 154.581Z" stroke="#FFB226" stroke-opacity="0.49" stroke-width="0.606591" stroke-linecap="round" stroke-linejoin="round"/>
<path d="M-110.191 161.969C-101.007 150.81 -82.8401 148.49 -71.1528 156.992C-65.0997 161.397 -60.9124 168.04 -54.6389 172.133C-45.8315 177.867 -34.4396 177.609 -24.0811 175.849C-13.7227 174.089 -3.38175 171.043 7.09313 171.887C17.568 172.731 28.5995 178.778 31.1734 188.966C33.668 198.824 27.6772 209.385 30.2765 219.217C34.5035 235.201 57.8377 239.165 63.4887 254.708C66.348 262.551 63.6004 271.752 57.8688 277.832C52.1372 283.911 43.88 287.135 35.595 288.141C25.8162 289.331 15.376 287.79 6.50863 292.078C-7.92275 299.067 -11.506 317.545 -20.1256 331.056C-28.2506 343.788 -42.8014 352.916 -57.8814 352.106C-72.9614 351.297 -87.3302 339.011 -88.2122 323.941C-88.6895 315.799 -85.6173 307.052 -89.3554 299.793C-93.9941 290.795 -105.944 289.47 -115.874 287.514C-124.114 285.897 -132.348 282.952 -138.54 277.271C-144.731 271.606 -148.532 262.81 -146.573 254.645C-141.796 234.726 -110.926 231.361 -109.809 209.338C-108.941 192.33 -123.864 178.591 -110.191 161.969Z" stroke="#FFB226" stroke-opacity="0.49" stroke-width="0.572256" stroke-linecap="round" stroke-linejoin="round"/>
<path d="M-104.338 169.357C-96.0068 159.235 -79.5276 157.135 -68.9165 164.841C-63.4302 168.828 -59.6274 174.864 -53.9362 178.571C-45.9489 183.771 -35.6168 183.542 -26.2102 181.947C-16.8037 180.351 -7.42855 177.583 2.07344 178.35C11.5754 179.116 21.5758 184.6 23.9125 193.846C26.1705 202.794 20.743 212.373 23.1057 221.294C26.9471 235.796 48.1127 239.391 53.2331 253.487C55.819 260.608 53.3296 268.946 48.1372 274.464C42.9366 279.975 35.4425 282.9 27.9247 283.818C19.0502 284.893 9.58422 283.494 1.53475 287.394C-11.5577 293.732 -14.8026 310.504 -22.6295 322.761C-30.0009 334.312 -43.2005 342.596 -56.8868 341.856C-70.5731 341.116 -83.6077 329.985 -84.3974 316.305C-84.8272 308.923 -82.0467 300.976 -85.4311 294.406C-89.6324 286.241 -100.479 285.04 -109.491 283.268C-116.967 281.797 -124.434 279.129 -130.057 273.979C-135.671 268.837 -139.116 260.859 -137.345 253.45C-133.017 235.386 -105.014 232.329 -103.986 212.348C-103.2 196.912 -116.738 184.456 -104.329 169.381L-104.338 169.357Z" stroke="#FFB226" stroke-opacity="0.49" stroke-width="0.537921" stroke-linecap="round" stroke-linejoin="round"/>
<path d="M-98.4842 176.743C-90.9992 167.65 -76.2074 165.77 -66.6804 172.688C-61.7527 176.265 -58.3425 181.685 -53.2336 185.008C-46.0582 189.682 -36.7862 189.465 -28.3477 188.035C-19.9092 186.605 -11.4837 184.114 -2.95458 184.803C5.57452 185.492 14.56 190.413 16.6512 198.709C18.6804 206.739 13.8084 215.343 15.9262 223.347C19.3737 236.359 38.3711 239.6 42.9771 252.249C45.2976 258.638 43.0665 266.13 38.4052 271.079C33.7439 276.028 27.0128 278.655 20.254 279.477C12.2921 280.445 3.78407 279.189 -3.43162 282.683C-15.1852 288.372 -18.0998 303.429 -25.1261 314.424C-31.7439 324.795 -43.6006 332.226 -55.8768 331.571C-68.1612 330.909 -79.8701 320.91 -80.5753 308.628C-80.966 301.998 -78.4607 294.866 -81.5 288.96C-85.28 281.629 -95.0067 280.551 -103.1 278.964C-109.813 277.64 -116.514 275.247 -121.568 270.629C-126.613 266.018 -129.71 258.851 -128.11 252.198C-124.222 235.98 -99.0786 233.239 -98.1641 215.291C-97.4516 201.435 -109.613 190.256 -98.4766 176.719L-98.4842 176.743Z" stroke="#FFB226" stroke-opacity="0.49" stroke-width="0.503585" stroke-linecap="round" stroke-linejoin="round"/>
<path d="M-92.6227 184.139C-85.9913 176.083 -72.879 174.414 -64.4523 180.544C-60.0911 183.72 -57.0574 188.524 -52.5309 191.462C-46.1754 195.601 -37.9553 195.406 -30.4767 194.148C-22.998 192.891 -15.5383 190.679 -7.98209 191.29C-0.425871 191.901 7.53679 196.267 9.39072 203.621C11.1913 210.733 6.86634 218.354 8.74749 225.448C11.8016 236.987 28.6301 239.842 32.7137 251.053C34.777 256.719 32.7961 263.355 28.6579 267.743C24.5196 272.132 18.5596 274.452 12.5842 275.186C5.52652 276.038 -2.00729 274.925 -8.40505 278.031C-18.8198 283.07 -21.4042 296.413 -27.6296 306.16C-33.4937 315.351 -43.9912 321.93 -54.8738 321.344C-65.7563 320.759 -76.1313 311.899 -76.76 301.025C-77.1032 295.155 -74.8893 288.838 -77.5836 283.597C-80.9261 277.099 -89.5495 276.145 -96.7249 274.741C-102.665 273.572 -108.608 271.448 -113.085 267.352C-117.553 263.264 -120.294 256.916 -118.881 251.019C-115.435 236.648 -93.1584 234.214 -92.3487 218.325C-91.7263 206.049 -102.495 196.129 -92.6227 184.139Z" stroke="#FFB226" stroke-opacity="0.49" stroke-width="0.46925" stroke-linecap="round" stroke-linejoin="round"/>
<path d="M-86.7697 191.526C-80.9919 184.507 -69.5752 183.05 -62.2165 188.392C-58.4138 191.158 -55.7728 195.347 -51.8365 197.907C-46.3012 201.513 -39.1326 201.354 -32.6223 200.246C-26.1121 199.137 -19.6017 197.219 -13.0183 197.752C-6.43501 198.285 0.504508 202.081 2.12118 208.492C3.68513 214.694 -0.0765262 221.333 1.56008 227.526C4.22032 237.575 18.8885 240.068 22.4498 249.84C24.2477 254.775 22.5169 260.556 18.918 264.383C15.3108 268.203 10.122 270.232 4.90563 270.87C-1.2395 271.615 -7.80708 270.653 -13.3793 273.346C-22.4552 277.735 -24.7093 289.363 -30.1338 297.865C-35.2444 305.875 -44.3906 311.609 -53.8713 311.101C-63.352 310.593 -72.393 302.872 -72.9456 293.389C-73.2495 288.271 -71.3109 282.768 -73.6597 278.209C-76.5728 272.552 -84.1011 271.714 -90.334 270.486C-95.5184 269.472 -100.695 267.608 -104.595 264.051C-108.486 260.486 -110.878 254.964 -109.653 249.824C-106.648 237.299 -87.2305 235.181 -86.526 221.334C-85.9774 210.638 -95.3687 201.993 -86.7693 191.543L-86.7697 191.526Z" stroke="#FFB226" stroke-opacity="0.49" stroke-width="0.434915" stroke-linecap="round" stroke-linejoin="round"/>
<path d="M-80.9243 198.922C-76.0002 192.94 -66.2629 191.694 -59.9962 196.256C-56.7521 198.612 -54.5038 202.186 -51.1417 204.369C-46.4181 207.449 -40.3096 207.303 -34.7592 206.367C-29.2008 205.423 -23.6642 203.791 -18.0458 204.238C-12.4353 204.694 -6.51864 207.935 -5.13129 213.396C-3.79603 218.679 -7.00232 224.344 -5.61058 229.619C-3.33592 238.186 9.1637 240.31 12.1948 248.652C13.7271 252.855 12.2548 257.789 9.18688 261.047C6.11899 264.306 1.68502 266.029 -2.75622 266.57C-8.00498 267.209 -13.5904 266.381 -18.3447 268.685C-26.0817 272.424 -28.0057 282.338 -32.6214 289.585C-36.9782 296.414 -44.7733 301.304 -52.8603 300.866C-60.9474 300.427 -68.6545 293.846 -69.1226 285.761C-69.3712 281.394 -67.7322 276.699 -69.7356 272.821C-72.2274 267.998 -78.6362 267.283 -83.9508 266.24C-88.3714 265.372 -92.7821 263.784 -96.1044 260.75C-99.4267 257.716 -101.463 252.996 -100.417 248.621C-97.8523 237.942 -81.3105 236.14 -80.7032 224.326C-80.2368 215.203 -88.2427 207.842 -80.9078 198.938L-80.9243 198.922Z" stroke="#FFB226" stroke-opacity="0.49" stroke-width="0.389134" stroke-linecap="round" stroke-linejoin="round"/>
<path d="M-75.071 206.309C-71.0005 201.363 -62.9427 200.329 -57.7602 204.104C-55.0746 206.05 -53.2189 209.008 -50.4392 210.806C-46.5357 213.351 -41.487 213.235 -36.8967 212.456C-32.3064 211.677 -27.7194 210.323 -23.0739 210.692C-18.4284 211.061 -13.5345 213.748 -12.4006 218.267C-11.302 222.641 -13.945 227.323 -12.7981 231.679C-10.9252 238.765 -0.577969 240.519 1.92253 247.414C3.18151 250.894 1.97546 254.974 -0.569323 257.671C-3.10618 260.36 -6.76884 261.793 -10.4428 262.246C-14.779 262.777 -19.4065 262.092 -23.3432 263.992C-29.7413 267.081 -31.3268 275.288 -35.1581 281.273C-38.7613 286.922 -45.2134 290.96 -51.8986 290.599C-58.5837 290.238 -64.9569 284.795 -65.3406 278.109C-65.55 274.494 -64.1862 270.614 -65.8446 267.401C-67.8989 263.411 -73.2044 262.82 -77.6006 261.961C-81.2575 261.24 -84.9097 259.936 -87.655 257.425C-90.4003 254.913 -92.0805 251.013 -91.2215 247.394C-89.1059 238.569 -75.4154 237.075 -74.9212 227.311C-74.5366 219.776 -81.1574 213.683 -75.0872 206.309L-75.071 206.309Z" stroke="#FFB226" stroke-opacity="0.49" stroke-width="0.354799" stroke-linecap="round" stroke-linejoin="round"/>
<path d="M-69.2178 213.697C-66.0009 209.788 -59.6305 208.973 -55.5241 211.952C-53.4051 213.496 -51.9341 215.831 -49.7364 217.26C-46.6529 219.271 -42.6561 219.176 -39.0256 218.569C-35.3951 217.963 -31.766 216.879 -28.1014 217.179C-24.4288 217.47 -20.566 219.595 -19.6614 223.163C-18.7914 226.618 -20.8873 230.318 -19.977 233.765C-18.4897 239.369 -10.319 240.761 -8.33291 246.21C-7.33113 248.966 -8.29527 252.183 -10.3008 254.319C-12.3145 256.447 -15.2062 257.573 -18.113 257.939C-21.5449 258.355 -25.1982 257.812 -28.309 259.315C-33.3679 261.771 -34.6235 268.247 -37.646 272.977C-40.4956 277.446 -45.5965 280.639 -50.8797 280.355C-56.163 280.072 -61.2023 275.768 -61.5177 270.481C-61.6796 267.627 -60.6072 264.562 -61.9205 262.014C-63.5453 258.865 -67.7396 258.39 -71.2174 257.714C-74.1022 257.148 -76.9964 256.113 -79.1647 254.124C-81.333 252.135 -82.6731 249.054 -81.9853 246.191C-80.3107 239.212 -69.4876 238.026 -69.0985 230.304C-68.796 224.341 -74.0236 219.523 -69.234 213.697L-69.2178 213.697Z" stroke="#FFB226" stroke-opacity="0.49" stroke-width="0.320463" stroke-linecap="round" stroke-linejoin="round"/>
</g>
<defs>
<clipPath id="clip0_94_3908">
<rect width="332" height="351.949" fill="white" transform="translate(-289 239.373) rotate(-46.1374)"/>
</clipPath>
</defs>
</svg>
