<svg width="56" height="56" viewBox="0 0 56 56" fill="none" xmlns="http://www.w3.org/2000/svg">
<rect x="0.820312" y="0.47168" width="55.0561" height="55.0561" rx="27.528" fill="#8ACA90"/>
<path d="M30.9287 22.8371C31.6093 22.8371 32.2746 22.6353 32.8404 22.2572C33.4063 21.8791 33.8473 21.3417 34.1078 20.7129C34.3682 20.0841 34.4364 19.3923 34.3036 18.7248C34.1708 18.0573 33.8431 17.4442 33.3619 16.9629C32.8806 16.4817 32.2675 16.154 31.6 16.0212C30.9325 15.8884 30.2407 15.9566 29.6119 16.217C28.9831 16.4775 28.4457 16.9185 28.0676 17.4844C27.6895 18.0502 27.4877 18.7155 27.4877 19.3961C27.4877 20.3087 27.8502 21.1839 28.4956 21.8292C29.1409 22.4746 30.0161 22.8371 30.9287 22.8371ZM30.9287 17.6756C31.269 17.6756 31.6016 17.7765 31.8846 17.9655C32.1675 18.1546 32.388 18.4233 32.5182 18.7377C32.6485 19.0521 32.6825 19.398 32.6162 19.7317C32.5498 20.0655 32.3859 20.372 32.1453 20.6127C31.9047 20.8533 31.5981 21.0171 31.2644 21.0835C30.9306 21.1499 30.5847 21.1158 30.2703 20.9856C29.9559 20.8554 29.6872 20.6349 29.4982 20.3519C29.3091 20.069 29.2082 19.7364 29.2082 19.3961C29.2082 18.9398 29.3895 18.5022 29.7121 18.1795C30.0348 17.8568 30.4724 17.6756 30.9287 17.6756ZM37.8107 29.7191C37.8107 29.9473 37.7201 30.1661 37.5588 30.3274C37.3974 30.4887 37.1786 30.5794 36.9505 30.5794C33.1535 30.5794 31.2567 28.6642 29.733 27.1254C29.4383 26.8276 29.1566 26.5448 28.8727 26.2824L27.4286 29.603L31.4287 32.4601C31.5402 32.5397 31.631 32.6447 31.6936 32.7665C31.7563 32.8882 31.789 33.0232 31.789 33.1601V39.1819C31.789 39.41 31.6983 39.6288 31.537 39.7902C31.3757 39.9515 31.1569 40.0421 30.9287 40.0421C30.7006 40.0421 30.4817 39.9515 30.3204 39.7902C30.1591 39.6288 30.0685 39.41 30.0685 39.1819V33.6031L26.7275 31.2159L23.1155 39.5249C23.0486 39.6786 22.9383 39.8095 22.7981 39.9014C22.6579 39.9933 22.4938 40.0422 22.3262 40.0421C22.2081 40.0424 22.0912 40.0179 21.9832 39.9701C21.774 39.8792 21.6096 39.7089 21.5259 39.4968C21.4422 39.2847 21.4462 39.048 21.5369 38.8388L27.3522 25.4652C26.3511 25.2877 25.1027 25.5942 23.6209 26.3878C22.4391 27.0396 21.3361 27.8251 20.3336 28.7287C20.1663 28.8786 19.947 28.9571 19.7225 28.9474C19.4981 28.9377 19.2864 28.8406 19.1326 28.6769C18.9788 28.5131 18.8952 28.2957 18.8996 28.0711C18.904 27.8465 18.9961 27.6325 19.1562 27.4749C19.425 27.2222 25.7898 21.3209 29.7717 24.778C30.1835 25.135 30.576 25.5308 30.9545 25.9146C32.4546 27.4287 33.8708 28.8589 36.9505 28.8589C37.1786 28.8589 37.3974 28.9495 37.5588 29.1108C37.7201 29.2721 37.8107 29.491 37.8107 29.7191Z" fill="white"/>
</svg>
