<svg width="1429" height="299" viewBox="0 0 1429 299" fill="none" xmlns="http://www.w3.org/2000/svg">
<path fill-rule="evenodd" clip-rule="evenodd" d="M551.363 0.999751C550.023 1.02967 548.691 1.09338 547.37 1.18998L547.297 0.192642C548.635 0.0948062 549.983 0.0302997 551.341 0L551.363 0.999751ZM557.371 1.09153C556.699 1.05617 556.029 1.02929 555.362 1.01078L555.39 0.0111685C556.065 0.0299072 556.744 0.0571194 557.424 0.0929089C558.107 0.128891 558.788 0.173477 559.467 0.226556L559.389 1.22351C558.719 1.17109 558.046 1.12706 557.371 1.09153ZM543.39 1.58356C542.059 1.74974 540.739 1.94949 539.432 2.18186L539.257 1.19729C540.581 0.961907 541.918 0.759584 543.266 0.591263L543.39 1.58356ZM567.385 2.26294C566.069 2.02239 564.74 1.81462 563.4 1.64055L563.529 0.648886C564.886 0.825174 566.231 1.0356 567.565 1.27923L567.385 2.26294ZM535.511 2.98392C534.207 3.28627 532.916 3.62139 531.639 3.98831L531.362 3.02719C532.656 2.6555 533.964 2.31602 535.285 2.00975L535.511 2.98392ZM575.23 4.12141C573.945 3.74538 572.645 3.40137 571.332 3.09034L571.562 2.11726C572.892 2.4323 574.209 2.78075 575.511 3.16163L575.23 4.12141ZM905.212 4.33672C903.869 4.29718 902.531 4.28597 901.199 4.30258L901.186 3.30266C902.533 3.28587 903.884 3.2972 905.242 3.33715L905.212 4.33672ZM897.181 4.43743C895.839 4.5109 894.503 4.61259 893.174 4.74195L893.077 3.74666C894.42 3.61593 895.77 3.51317 897.127 3.43893L897.181 4.43743ZM911.231 4.70236C910.56 4.64061 909.89 4.58598 909.222 4.53841L909.293 3.54093C909.968 3.589 910.645 3.64419 911.323 3.70657C911.983 3.76732 912.64 3.83457 913.296 3.90825L913.184 4.90199C912.535 4.82906 911.884 4.76249 911.231 4.70236ZM889.186 5.21602C887.856 5.40278 886.534 5.61732 885.221 5.85909L885.04 4.87562C886.367 4.6313 887.703 4.41448 889.046 4.22574L889.186 5.21602ZM527.824 5.19266C526.56 5.6284 525.311 6.09578 524.078 6.59378L523.703 5.66657C524.952 5.1621 526.218 4.68864 527.498 4.24723L527.824 5.19266ZM582.84 6.78463C581.599 6.27649 580.342 5.79924 579.07 5.35388L579.4 4.41002C580.689 4.86113 581.962 5.34455 583.219 5.85925L582.84 6.78463ZM920.909 6.08861C919.635 5.83953 918.351 5.61537 917.057 5.4167L917.209 4.42828C918.516 4.62902 919.814 4.85552 921.101 5.10719L920.909 6.08861ZM881.289 6.67018C879.981 6.9691 878.683 7.2952 877.395 7.64791L877.13 6.68341C878.432 6.32697 879.744 5.9974 881.066 5.69532L881.289 6.67018ZM928.519 7.90396C927.269 7.55071 926.007 7.22197 924.734 6.91835L924.966 5.94565C926.252 6.25246 927.527 6.58466 928.791 6.94164L928.519 7.90396ZM520.409 8.18766C519.198 8.75181 518.004 9.34615 516.829 9.96962L516.36 9.08616C517.551 8.45464 518.76 7.85261 519.987 7.28115L520.409 8.18766ZM590.131 10.2246C588.949 9.58986 587.749 8.98456 586.53 8.40975L586.957 7.50535C588.191 8.08758 589.407 8.70068 590.604 9.34362L590.131 10.2246ZM873.542 8.79139C872.265 9.20046 870.998 9.636 869.743 10.0974L869.398 9.15884C870.666 8.69256 871.946 8.25241 873.237 7.83901L873.542 8.79139ZM935.945 10.3381C934.728 9.88279 933.499 9.45133 932.258 9.04436L932.569 8.09411C933.824 8.50538 935.066 8.94141 936.295 9.40157L935.945 10.3381ZM218.058 11.7907C216.743 11.7035 215.426 11.6482 214.11 11.6247L214.128 10.6248C215.46 10.6486 216.793 10.7046 218.124 10.7928L218.058 11.7907ZM866.003 11.5633C864.766 12.079 863.541 12.6202 862.329 13.1863L861.906 12.2803C863.13 11.7082 864.368 11.1613 865.618 10.6403L866.003 11.5633ZM210.158 11.6496C208.841 11.6898 207.526 11.7618 206.212 11.8655L206.134 10.8686C207.463 10.7636 208.795 10.6907 210.128 10.6501L210.158 11.6496ZM1211.09 11.9032C1209.74 11.8189 1208.39 11.7644 1207.05 11.739L1207.07 10.7392C1208.43 10.7648 1209.79 10.8199 1211.15 10.9051L1211.09 11.9032ZM1203.02 11.7506C1201.68 11.784 1200.34 11.847 1199 11.9388L1198.94 10.9412C1200.28 10.8483 1201.64 10.7847 1203 10.7509L1203.02 11.7506ZM943.151 13.3818C941.974 12.8263 940.784 12.2939 939.58 11.7853L939.969 10.8641C941.186 11.3781 942.389 11.9162 943.578 12.4776L943.151 13.3818ZM513.344 11.9343C512.198 12.6201 511.071 13.3344 509.965 14.0761L509.408 13.2455C510.529 12.4943 511.67 11.7708 512.831 11.0762L513.344 11.9343ZM225.907 12.6941C224.606 12.4801 223.301 12.2979 221.993 12.1474L222.108 11.1539C223.431 11.3063 224.752 11.4907 226.069 11.7074L225.907 12.6941ZM1217.11 12.4724C1216.44 12.3872 1215.77 12.3093 1215.1 12.2388L1215.2 11.2443C1215.88 11.3156 1216.56 11.3942 1217.24 11.4804C1217.92 11.5669 1218.6 11.6609 1219.28 11.7625L1219.13 12.7515C1218.46 12.651 1217.79 12.558 1217.11 12.4724ZM202.282 12.2717C200.976 12.4387 199.673 12.6373 198.375 12.8674L198.201 11.8828C199.514 11.6498 200.833 11.4488 202.155 11.2798L202.282 12.2717ZM1194.99 12.3054C1193.65 12.458 1192.31 12.64 1190.99 12.8506L1190.84 11.863C1192.17 11.6501 1193.52 11.4661 1194.87 11.3118L1194.99 12.3054ZM597.028 14.4028C595.917 13.6484 594.785 12.9219 593.634 12.2241L594.152 11.3689C595.318 12.0755 596.465 12.8114 597.59 13.5755L597.028 14.4028ZM233.631 14.3527C232.356 14.0134 231.075 13.7058 229.789 13.4297L229.999 12.452C231.301 12.7314 232.598 13.0429 233.888 13.3863L233.631 14.3527ZM1227.09 14.3235C1225.78 14.0017 1224.46 13.7088 1223.13 13.4456L1223.32 12.4645C1224.67 12.7308 1226 13.027 1227.33 13.3525L1227.09 14.3235ZM1187.03 13.573C1185.71 13.8441 1184.4 14.144 1183.1 14.4719L1182.86 13.5024C1184.17 13.1708 1185.49 12.8676 1186.83 12.5934L1187.03 13.573ZM194.502 13.6513C193.219 13.9435 191.942 14.267 190.672 14.6218L190.403 13.6586C191.688 13.2995 192.981 12.9721 194.28 12.6763L194.502 13.6513ZM858.727 14.9631C857.538 15.5812 856.363 16.2238 855.203 16.8903L854.705 16.0232C855.877 15.3497 857.064 14.7004 858.266 14.0758L858.727 14.9631ZM950.076 17.0107C948.95 16.3596 947.808 15.7307 946.651 15.1247L947.115 14.2389C948.284 14.8514 949.438 15.487 950.576 16.1449L950.076 17.0107ZM1234.86 16.6275C1233.59 16.1848 1232.3 15.7702 1231 15.3846L1231.29 14.4258C1232.6 14.8158 1233.91 15.2352 1235.19 15.6831L1234.86 16.6275ZM241.159 16.7516C239.922 16.2902 238.677 15.86 237.425 15.461L237.728 14.5082C238.996 14.9121 240.256 15.3476 241.508 15.8147L241.159 16.7516ZM1179.22 15.5479C1177.93 15.9363 1176.65 16.3526 1175.39 16.7961L1175.05 15.8525C1176.33 15.404 1177.62 14.9831 1178.93 14.5904L1179.22 15.5479ZM186.893 15.7764C185.645 16.1911 184.405 16.6367 183.174 17.113L182.813 16.1804C184.059 15.6982 185.314 15.2472 186.578 14.8274L186.893 15.7764ZM506.7 16.3889C505.63 17.1881 504.583 18.014 503.557 18.8653L502.918 18.0959C503.957 17.2338 505.018 16.3974 506.101 15.5879L506.7 16.3889ZM603.457 19.2709C602.429 18.4056 601.378 17.5663 600.305 16.7539L600.909 15.9567C601.996 16.7795 603.06 17.6296 604.101 18.5059L603.457 19.2709ZM1242.39 19.6499C1241.17 19.0891 1239.92 18.5556 1238.66 18.0501L1239.04 17.1221C1240.31 17.6334 1241.57 18.1731 1242.81 18.7404L1242.39 19.6499ZM1171.61 18.2139C1170.37 18.7157 1169.13 19.2444 1167.91 19.7993L1167.5 18.8889C1168.73 18.3279 1169.98 17.7933 1171.24 17.286L1171.61 18.2139ZM248.42 19.8691C247.232 19.2894 246.034 18.7405 244.826 18.2222L245.221 17.3033C246.443 17.8279 247.656 18.3836 248.858 18.9704L248.42 19.8691ZM179.524 18.6285C178.323 19.1618 177.133 19.7252 175.954 20.3188L175.504 19.4255C176.698 18.8247 177.903 18.2543 179.119 17.7146L179.524 18.6285ZM851.763 18.9644C850.63 19.6802 849.513 20.4195 848.413 21.1816L847.843 20.3595C848.955 19.5894 850.084 18.8424 851.229 18.119L851.763 18.9644ZM956.678 21.2C955.608 20.4576 954.522 19.7362 953.419 19.0366L953.955 18.1923C955.069 18.8992 956.167 19.6282 957.248 20.3785L956.678 21.2ZM1249.61 23.3664C1248.44 22.6925 1247.25 22.0445 1246.04 21.4235L1246.5 20.5345C1247.72 21.1628 1248.92 21.8182 1250.11 22.5L1249.61 23.3664ZM1164.28 21.549C1163.08 22.1596 1161.9 22.796 1160.73 23.4573L1160.23 22.5872C1161.42 21.9187 1162.61 21.2753 1163.82 20.6579L1164.28 21.549ZM500.545 21.4987C499.563 22.4022 498.604 23.3302 497.67 24.2816L496.956 23.581C497.902 22.6175 498.873 21.6777 499.868 20.7628L500.545 21.4987ZM253.649 22.6596C253.078 22.3277 252.504 22.0034 251.927 21.6866L252.408 20.81C252.992 21.1307 253.573 21.459 254.151 21.7949C254.741 22.1374 255.325 22.4865 255.904 22.8421L255.38 23.6942C254.808 23.3428 254.231 22.9979 253.649 22.6596ZM609.351 24.7744C608.417 23.8076 607.458 22.8648 606.475 21.9468L607.157 21.216C608.153 22.1456 609.124 23.1005 610.07 24.0796L609.351 24.7744ZM172.468 22.1807C171.325 22.8276 170.194 23.5039 169.076 24.2097L168.542 23.3642C169.673 22.6498 170.818 21.9651 171.976 21.3103L172.468 22.1807ZM962.913 25.9199C961.908 25.0918 960.885 24.2836 959.844 23.496L960.448 22.6986C961.499 23.4946 962.533 24.3113 963.549 25.1481L962.913 25.9199ZM845.159 23.5374C844.091 24.3455 843.04 25.1757 842.007 26.0276L841.37 25.2561C842.414 24.3953 843.476 23.5564 844.555 22.7399L845.159 23.5374ZM1256.44 27.7424C1255.34 26.9615 1254.22 26.2052 1253.07 25.4744L1253.61 24.6323C1254.77 25.3715 1255.9 26.1365 1257.02 26.9265L1256.44 27.7424ZM1157.27 25.5203C1156.13 26.2342 1155 26.9725 1153.9 27.7344L1153.33 26.911C1154.45 26.1408 1155.58 25.3945 1156.74 24.6728L1157.27 25.5203ZM262.03 28.246C260.963 27.4354 259.873 26.6489 258.761 25.8877L259.326 25.0625C260.451 25.833 261.555 26.6291 262.635 27.4497L262.03 28.246ZM165.788 26.3989C165.249 26.7768 164.714 27.1618 164.182 27.554L162.617 28.7087L162.024 27.904L163.589 26.7493C164.127 26.3523 164.668 25.9626 165.214 25.5802L165.788 26.3989ZM494.94 27.2068C494.055 28.2047 493.195 29.225 492.362 30.2665L491.581 29.6417C492.425 28.587 493.296 27.5538 494.192 26.5432L494.94 27.2068ZM614.648 30.8539C613.818 29.7959 612.961 28.7595 612.078 27.7461L612.832 27.0891C613.726 28.1155 614.594 29.165 615.435 30.2366L614.648 30.8539ZM968.739 31.1347C967.805 30.2269 966.852 29.3376 965.88 28.4676L966.547 27.7225C967.529 28.6016 968.492 29.5002 969.436 30.4176L968.739 31.1347ZM838.962 28.6478C837.965 29.5422 836.988 30.4576 836.029 31.3933L835.331 30.6779C836.299 29.7323 837.287 28.8074 838.294 27.9036L838.962 28.6478ZM1150.63 30.0945C1149.56 30.9053 1148.5 31.739 1147.47 32.5948L1146.83 31.8242C1147.88 30.9591 1148.94 30.1164 1150.03 29.2968L1150.63 30.0945ZM1262.83 32.7372C1261.81 31.8566 1260.76 30.9989 1259.69 30.1652L1260.31 29.3772C1261.39 30.2205 1262.45 31.088 1263.48 31.9787L1262.83 32.7372ZM268.198 33.4316C267.215 32.5188 266.208 31.6285 265.177 30.7619L265.821 29.9964C266.865 30.8737 267.884 31.7749 268.879 32.6989L268.198 33.4316ZM159.487 31.018L156.357 33.3273L155.763 32.5227L158.893 30.2133L159.487 31.018ZM489.942 33.4529C489.163 34.5349 488.411 35.6369 487.687 36.758L486.847 36.2155C487.58 35.0802 488.342 33.9642 489.131 32.8685L489.942 33.4529ZM974.121 36.8092C973.263 35.8276 972.385 34.8632 971.488 33.9168L972.213 33.2287C973.12 34.185 974.007 35.1594 974.874 36.1513L974.121 36.8092ZM619.293 37.4456C618.576 36.3072 617.83 35.1882 617.056 34.0899L617.873 33.5139C618.657 34.6262 619.413 35.7595 620.139 36.9125L619.293 37.4456ZM833.215 34.2596C832.297 35.2342 831.4 36.2285 830.523 37.2418L829.767 36.5875C830.653 35.5636 831.56 34.5589 832.487 33.5741L833.215 34.2596ZM1144.42 35.2305C1143.42 36.1315 1142.44 37.0539 1141.49 37.9968L1140.79 37.2846C1141.75 36.3314 1142.74 35.3991 1143.75 34.4884L1144.42 35.2305ZM1268.73 38.3051C1267.8 37.3327 1266.83 36.3815 1265.85 35.4526L1266.53 34.7252C1267.53 35.6648 1268.5 36.6268 1269.45 37.6104L1268.73 38.3051ZM153.227 35.6367L150.097 37.946L149.503 37.1413L152.633 34.832L153.227 35.6367ZM273.824 39.201C272.936 38.1951 272.021 37.2099 271.082 36.2464L271.798 35.5482C272.749 36.5236 273.674 37.5209 274.573 38.5391L273.824 39.201ZM979.021 42.9035C978.246 41.855 977.45 40.8224 976.633 39.8064L977.412 39.1798C978.238 40.2064 979.042 41.2498 979.825 42.3092L979.021 42.9035ZM146.967 40.2554L143.837 42.5647L143.243 41.76L146.373 39.4507L146.967 40.2554ZM485.603 40.1734C484.938 41.3284 484.302 42.5011 483.696 43.6906L482.805 43.2365C483.419 42.0318 484.063 40.8441 484.737 39.6744L485.603 40.1734ZM827.959 40.334C827.127 41.3817 826.316 42.4477 825.528 43.5313L824.719 42.943C825.516 41.8479 826.335 40.7708 827.176 39.7121L827.959 40.334ZM1138.68 40.8879C1137.76 41.8718 1136.87 42.8754 1136 43.8981L1135.24 43.2494C1136.12 42.2157 1137.02 41.2013 1137.95 40.2068L1138.68 40.8879ZM623.234 44.4812C622.638 43.2739 622.011 42.084 621.355 40.9124L622.227 40.4236C622.892 41.6103 623.527 42.8155 624.131 44.0382L623.234 44.4812ZM1274.1 44.3961C1273.25 43.3405 1272.38 42.3043 1271.49 41.2885L1272.24 40.6278C1273.14 41.6552 1274.02 42.7033 1274.88 43.771L1274.1 44.3961ZM278.853 45.4975C278.068 44.4084 277.255 43.3378 276.416 42.287L277.197 41.663C278.047 42.7266 278.869 43.8103 279.664 44.9128L278.853 45.4975ZM140.707 44.874L137.577 47.1834L136.983 46.3787L140.113 44.0693L140.707 44.874ZM983.408 49.3774C982.721 48.2688 982.011 47.1746 981.28 46.0955L982.108 45.5346C982.847 46.6248 983.564 47.7305 984.258 48.8507L983.408 49.3774ZM823.234 46.8283C822.493 47.942 821.776 49.0726 821.081 50.2195L820.226 49.7015C820.928 48.5425 821.653 47.4 822.401 46.2746L823.234 46.8283ZM1133.45 47.0219C1132.62 48.0813 1131.82 49.1587 1131.04 50.2536L1130.23 49.6734C1131.01 48.5668 1131.83 47.4777 1132.66 46.4069L1133.45 47.0219ZM481.97 47.3009C481.427 48.517 480.914 49.7485 480.433 50.9943L479.5 50.6339C479.988 49.372 480.507 48.1246 481.057 46.893L481.97 47.3009ZM1278.87 50.9571C1278.12 49.8273 1277.35 48.715 1276.56 47.6213L1277.37 47.033C1278.17 48.1392 1278.95 49.2641 1279.7 50.4069L1278.87 50.9571ZM626.426 51.8854C625.957 50.6222 625.457 49.3741 624.926 48.1419L625.845 47.7461C626.383 48.9941 626.889 50.2583 627.363 51.5378L626.426 51.8854ZM283.237 52.2591C282.562 51.0973 281.859 49.952 281.128 48.8242L281.967 48.2802C282.707 49.4217 283.419 50.5811 284.102 51.7571L283.237 52.2591ZM134.447 49.4927L131.316 51.802L130.723 50.9974L133.853 48.688L134.447 49.4927ZM987.251 56.1872C986.657 55.0259 986.039 53.8777 985.399 52.7431L986.27 52.2516C986.917 53.398 987.541 54.5583 988.141 55.7317L987.251 56.1872ZM1128.77 53.5865C1128.04 54.7132 1127.34 55.8564 1126.66 57.0152L1125.79 56.5082C1126.48 55.3368 1127.2 54.1812 1127.94 53.0424L1128.77 53.5865ZM819.074 53.699C818.431 54.8711 817.811 56.0587 817.216 57.2611L816.32 56.8176C816.921 55.6024 817.547 54.4023 818.198 53.2178L819.074 53.699ZM128.186 54.1114L125.056 56.4207L124.463 55.616L127.593 53.3067L128.186 54.1114ZM1283.01 57.9318C1282.38 56.7374 1281.71 55.5586 1281.02 54.3964L1281.88 53.8854C1282.58 55.0609 1283.25 56.2532 1283.9 57.4613L1283.01 57.9318ZM479.088 54.7614C478.673 56.0258 478.289 57.3033 477.939 58.5928L476.974 58.3305C477.329 57.0243 477.717 55.7303 478.137 54.4496L479.088 54.7614ZM286.934 59.4196C286.377 58.1964 285.79 56.9874 285.174 55.7938L286.062 55.335C286.686 56.5433 287.28 57.767 287.844 59.0052L286.934 59.4196ZM628.831 59.5805C628.496 58.2744 628.128 56.9811 627.729 55.7016L628.683 55.4033C629.088 56.6994 629.461 58.0093 629.799 59.3322L628.831 59.5805ZM121.926 58.7301L118.796 61.0394L118.202 60.2347L121.333 57.9254L121.926 58.7301ZM990.524 63.2888C990.027 62.0822 989.506 60.8871 988.96 59.7042L989.869 59.2857C990.419 60.481 990.946 61.6886 991.449 62.9079L990.524 63.2888ZM1124.69 60.534C1124.06 61.7198 1123.46 62.9205 1122.88 64.1352L1121.98 63.7057C1122.56 62.4778 1123.17 61.264 1123.81 60.0653L1124.69 60.534ZM815.511 60.8998C814.97 62.1209 814.454 63.3561 813.964 64.6048L813.033 64.2391C813.529 62.9772 814.05 61.7289 814.597 60.4948L815.511 60.8998ZM1286.49 65.2612C1285.97 64.0121 1285.42 62.7767 1284.84 61.556L1285.74 61.1271C1286.33 62.3618 1286.89 63.6114 1287.42 64.8748L1286.49 65.2612ZM476.99 62.4784C476.709 63.7779 476.46 65.0881 476.245 66.4081L475.258 66.2474C475.476 64.9102 475.728 63.5829 476.013 62.2666L476.99 62.4784ZM115.666 63.3487L114.101 64.5034C113.558 64.9044 113.012 65.3018 112.465 65.6957L111.881 64.8842C112.425 64.4925 112.967 64.0974 113.507 63.6987L115.072 62.544L115.666 63.3487ZM289.907 66.9095C289.473 65.6366 289.008 64.3757 288.513 63.1278L289.442 62.7588C289.944 64.022 290.414 65.2983 290.854 66.5868L289.907 66.9095ZM630.423 67.484C630.225 66.149 629.994 64.8245 629.73 63.5115L630.71 63.314C630.978 64.644 631.212 65.9856 631.412 67.3377L630.423 67.484ZM993.202 70.6368C992.806 69.3926 992.385 68.1585 991.939 66.9352L992.878 66.5927C993.329 67.829 993.755 69.0761 994.155 70.3334L993.202 70.6368ZM109.163 68.0166C108.05 68.7798 106.931 69.5287 105.804 70.2634L105.258 69.4258C106.378 68.6954 107.491 67.9507 108.598 67.1919L109.163 68.0166ZM1121.23 67.8113C1120.71 69.0472 1120.21 70.2962 1119.74 71.5575L1118.8 71.2095C1119.28 69.9343 1119.78 68.6716 1120.31 67.4221L1121.23 67.8113ZM812.576 68.3725C812.141 69.6347 811.731 70.9095 811.349 72.1964L810.39 71.9112C810.777 70.6107 811.191 69.3223 811.63 68.0468L812.576 68.3725ZM1289.28 72.883C1288.87 71.5898 1288.44 70.3083 1287.97 69.0395L1288.91 68.6966C1289.38 69.9801 1289.82 71.2763 1290.23 72.5844L1289.28 72.883ZM475.705 70.3715C475.56 71.6922 475.449 73.0215 475.372 74.3582L474.374 74.3009C474.451 72.9468 474.564 71.6003 474.711 70.2624L475.705 70.3715ZM292.128 74.6562C291.821 73.3458 291.483 72.0451 291.113 70.7551L292.074 70.4795C292.449 71.7853 292.791 73.102 293.101 74.4285L292.128 74.6562ZM631.187 75.5103C631.129 74.1606 631.036 72.8193 630.909 71.4872L631.904 71.3924C632.033 72.7416 632.127 74.1001 632.186 75.4669L631.187 75.5103ZM102.401 72.428C101.254 73.1392 100.1 73.8359 98.9405 74.5181L98.4334 73.6561C99.5864 72.9779 100.733 72.2852 101.874 71.5781L102.401 72.428ZM995.264 78.1773C994.972 76.9046 994.654 75.6404 994.311 74.3855L995.276 74.1218C995.622 75.39 995.944 76.6675 996.239 77.9537L995.264 78.1773ZM1118.42 75.3676C1118.01 76.6442 1117.63 77.9322 1117.28 79.2307L1116.31 78.9675C1116.67 77.6546 1117.06 76.3523 1117.47 75.0616L1118.42 75.3676ZM95.4378 76.5243C94.2602 77.1808 93.0766 77.8227 91.8875 78.4499L91.421 77.5654C92.6033 76.9418 93.78 76.3036 94.9509 75.6509L95.4378 76.5243ZM810.285 76.0699C809.959 77.3644 809.659 78.6702 809.387 79.9866L808.407 79.7837C808.683 78.4534 808.986 77.1339 809.315 75.8257L810.285 76.0699ZM1291.33 80.7319C1291.05 79.4056 1290.74 78.0891 1290.4 76.7832L1291.36 76.5298C1291.71 77.8507 1292.03 79.1825 1292.31 80.5242L1291.33 80.7319ZM475.247 78.3579C475.239 79.686 475.266 81.0205 475.328 82.3605L474.33 82.4067C474.267 81.0495 474.239 79.6978 474.247 78.3525L475.247 78.3579ZM293.572 82.5843C293.397 81.249 293.188 79.9211 292.948 78.6016L293.932 78.4223C294.175 79.758 294.386 81.1022 294.564 82.4539L293.572 82.5843ZM88.2934 80.2926C87.0876 80.8932 85.8765 81.4789 84.6602 82.0499L84.2353 81.1447C85.4445 80.577 86.6487 79.9946 87.8475 79.3975L88.2934 80.2926ZM631.217 81.5647C631.24 80.8889 631.254 80.2149 631.259 79.5426L632.259 79.5504C632.254 80.2311 632.24 80.9137 632.217 81.5979L632.149 83.6488L631.149 83.6156L631.217 81.5647ZM996.695 85.8657C996.509 84.5718 996.297 83.285 996.059 82.006L997.042 81.8231C997.283 83.1156 997.497 84.4161 997.685 85.7237L996.695 85.8657ZM80.9825 83.7245C79.7501 84.2684 78.5129 84.7974 77.271 85.3114L76.8886 84.3874C78.1233 83.8763 79.3535 83.3504 80.5787 82.8096L80.9825 83.7245ZM1116.3 83.1395C1116.01 84.4469 1115.74 85.764 1115.51 87.09L1114.52 86.9141C1114.76 85.5733 1115.03 84.2416 1115.33 82.9197L1116.3 83.1395ZM808.654 83.9393C808.439 85.2541 808.251 86.5788 808.09 87.9127L807.097 87.7928C807.26 86.445 807.45 85.1065 807.667 83.7779L808.654 83.9393ZM1292.64 88.7394C1292.49 87.3916 1292.3 86.0517 1292.08 84.7205L1293.07 84.5589C1293.29 85.9056 1293.48 87.261 1293.64 88.6244L1292.64 88.7394ZM73.5208 86.8127C72.2641 87.2989 71.003 87.77 69.7378 88.226L69.3988 87.2852C70.6567 86.8318 71.9105 86.3634 73.16 85.88L73.5208 86.8127ZM475.616 86.3498C475.745 87.6682 475.908 88.9909 476.106 90.3171L475.117 90.4647C474.916 89.1218 474.751 87.7823 474.621 86.4471L475.616 86.3498ZM294.227 90.6156C294.184 89.2686 294.108 87.9267 293.999 86.591L294.996 86.5098C295.106 87.8618 295.183 89.2202 295.227 90.5837L294.227 90.6156ZM630.876 91.819L631.013 87.7173L632.012 87.7505L631.876 91.8522L630.876 91.819ZM65.9242 89.5506C64.646 89.978 63.3639 90.3902 62.0782 90.7871L61.7832 89.8316C63.0615 89.437 64.3362 89.0272 65.6071 88.6022L65.9242 89.5506ZM997.483 93.6441C997.405 92.3398 997.3 91.0412 997.17 89.7489L998.164 89.6481C998.297 90.9541 998.403 92.2665 998.481 93.5846L997.483 93.6441ZM1114.89 91.0759C1114.71 92.4024 1114.56 93.7368 1114.45 95.0785L1113.45 94.9915C1113.57 93.6349 1113.72 92.2856 1113.89 90.9444L1114.89 91.0759ZM58.2073 91.9332C56.911 92.3007 55.6114 92.6529 54.3086 92.9897L54.0583 92.0216C55.3536 91.6866 56.6457 91.3365 57.9346 90.9711L58.2073 91.9332ZM807.691 91.9075C807.638 92.5759 807.593 93.2463 807.554 93.9189L807.444 95.8138L806.445 95.7559L806.555 93.861C806.595 93.1816 806.641 92.5042 806.694 91.829L807.691 91.9075ZM1293.2 96.832C1293.17 95.4748 1293.11 94.1236 1293.02 92.7793L1294.01 92.711C1294.11 94.0709 1294.17 95.4377 1294.2 96.8105L1293.2 96.832ZM50.3875 93.9553C49.0763 94.2621 47.7622 94.5535 46.4456 94.8295L46.2404 93.8508C47.5494 93.5764 48.856 93.2866 50.1597 92.9816L50.3875 93.9553ZM476.795 94.256C476.926 94.9108 477.066 95.5663 477.215 96.2223L477.646 98.1227L476.671 98.3438L476.24 96.4435C476.089 95.7794 475.947 95.1158 475.814 94.4528L476.795 94.256ZM42.4831 95.6125C41.1592 95.8582 39.8331 96.0884 38.505 96.3032L38.3454 95.316C39.6658 95.1025 40.9844 94.8736 42.3006 94.6293L42.4831 95.6125ZM294.197 96.6614C294.225 95.9885 294.245 95.3164 294.256 94.6454L295.256 94.6628C295.244 95.342 295.224 96.0222 295.196 96.7034L295.113 98.6641L294.114 98.6221L294.197 96.6614ZM34.5107 96.9018C33.1769 97.086 31.8413 97.2546 30.5043 97.4078L30.3905 96.4143C31.7198 96.262 33.0478 96.0943 34.374 95.9112L34.5107 96.9018ZM630.603 100.022L630.74 95.9207L631.739 95.9539L631.603 100.056L630.603 100.022ZM-5.77389 97.771C-7.11367 97.6446 -8.45234 97.5027 -9.78961 97.3453L-9.67271 96.3522C-8.3431 96.5087 -7.01211 96.6497 -5.67999 96.7754L-5.77389 97.771ZM26.4874 97.8209C25.1465 97.9432 23.8045 98.0499 22.4615 98.1411L22.3938 97.1434C23.729 97.0527 25.0634 96.9466 26.3966 96.8251L26.4874 97.8209ZM2.28197 98.3431C0.9375 98.2788 -0.406425 98.199 -1.74951 98.1036L-1.67867 97.1061C-0.343269 97.201 0.992958 97.2803 2.32973 97.3443L2.28197 98.3431ZM18.4298 98.3681C17.0849 98.4282 15.7394 98.4728 14.3936 98.5018L14.372 97.5021C15.7101 97.4732 17.0479 97.4289 18.3852 97.3691L18.4298 98.3681ZM10.3555 98.5423C9.00942 98.5402 7.66328 98.5225 6.31742 98.4893L6.34208 97.4896C7.68024 97.5227 9.01867 97.5402 10.3571 97.5423L10.3555 98.5423ZM997.625 101.461C997.655 100.153 997.658 98.849 997.635 97.5501L998.634 97.5319C998.658 98.8445 998.655 100.162 998.625 101.484L997.625 101.461ZM1114.19 99.0976C1114.13 100.435 1114.1 101.78 1114.1 103.129L1113.1 103.132C1113.1 101.767 1113.13 100.408 1113.19 99.0554L1114.19 99.0976ZM807.224 99.6035L807.005 103.393L806.006 103.335L806.226 99.5457L807.224 99.6035ZM1292.99 104.941C1293.09 103.586 1293.16 102.235 1293.19 100.889L1294.19 100.914C1294.16 102.275 1294.09 103.642 1293.99 105.012L1292.99 104.941ZM478.508 101.923L479.37 105.724L478.395 105.945L477.533 102.145L478.508 101.923ZM293.785 106.465L293.95 102.544L294.949 102.586L294.784 106.507L293.785 106.465ZM630.331 108.226L630.467 104.124L631.466 104.157L631.33 108.259L630.331 108.226ZM997.125 109.267C997.262 107.965 997.372 106.666 997.455 105.371L998.453 105.435C998.369 106.744 998.258 108.056 998.119 109.372L997.125 109.267ZM806.785 107.183L806.566 110.973L805.567 110.915L805.787 107.125L806.785 107.183ZM1114.2 107.161C1114.27 108.495 1114.36 109.833 1114.48 111.176L1113.49 111.266C1113.36 109.909 1113.27 108.556 1113.21 107.208L1114.2 107.161ZM1292.35 110.999C1292.45 110.325 1292.53 109.652 1292.61 108.98L1293.61 109.097C1293.52 109.777 1293.44 110.458 1293.34 111.139L1293.21 112.053L1292.22 111.913L1292.35 110.999ZM480.232 109.525L481.094 113.325L480.119 113.547L479.257 109.746L480.232 109.525ZM293.456 114.308L293.62 110.386L294.619 110.428L294.455 114.35L293.456 114.308ZM630.058 116.429L630.194 112.328L631.194 112.361L631.057 116.463L630.058 116.429ZM996.333 115.084C996.441 114.436 996.543 113.79 996.637 113.144L997.627 113.289C997.531 113.941 997.429 114.594 997.32 115.248L996.99 117.223L996.004 117.058L996.333 115.084ZM1291.83 114.653L1291.96 113.74L1292.95 113.88L1292.82 114.793C1292.73 115.447 1292.65 116.1 1292.57 116.752L1291.58 116.633C1291.65 115.975 1291.74 115.315 1291.83 114.653ZM806.346 114.763L806.126 118.552L805.128 118.494L805.348 114.705L806.346 114.763ZM1114.93 115.181C1115.11 116.508 1115.32 117.839 1115.56 119.172L1114.58 119.349C1114.34 118.002 1114.13 116.657 1113.94 115.315L1114.93 115.181ZM481.956 117.126L482.818 120.927L481.843 121.148L480.981 117.347L481.956 117.126ZM293.126 122.151L293.291 118.229L294.29 118.271L294.125 122.193L293.126 122.151ZM629.785 124.633L629.921 120.531L630.921 120.564L630.784 124.666L629.785 124.633ZM1290.98 124.535C1291.02 123.219 1291.09 121.896 1291.19 120.566L1292.19 120.641C1292.09 121.956 1292.02 123.265 1291.98 124.566L1290.98 124.535ZM994.685 124.955L995.345 121.006L996.331 121.171L995.672 125.119L994.685 124.955ZM805.907 122.342L805.687 126.132L804.689 126.074L804.909 122.284L805.907 122.342ZM1116.36 123.113C1116.51 123.77 1116.66 124.428 1116.82 125.087L1117.3 127.019L1116.33 127.258L1115.85 125.326C1115.69 124.661 1115.53 123.996 1115.38 123.331L1116.36 123.113ZM483.68 124.728L484.542 128.528L483.567 128.75L482.705 124.949L483.68 124.728ZM292.797 129.994L292.962 126.072L293.961 126.114L293.796 130.035L292.797 129.994ZM1291.1 132.45C1291.02 131.141 1290.97 129.822 1290.95 128.495L1291.95 128.481C1291.97 129.793 1292.02 131.096 1292.09 132.39L1291.1 132.45ZM629.512 132.836L629.648 128.734L630.648 128.768L630.512 132.869L629.512 132.836ZM993.367 132.852L994.026 128.903L995.013 129.068L994.353 133.016L993.367 132.852ZM805.468 129.922L805.248 133.711L804.25 133.653L804.469 129.864L805.468 129.922ZM1118.25 130.882L1119.2 134.746L1118.23 134.985L1117.28 131.122L1118.25 130.882ZM485.404 132.329L486.266 136.13L485.291 136.351L484.429 132.55L485.404 132.329ZM292.468 137.836L292.632 133.915L293.632 133.957L293.467 137.878L292.468 137.836ZM1291.93 140.337C1291.74 139.038 1291.56 137.728 1291.42 136.408L1292.42 136.303C1292.56 137.607 1292.73 138.901 1292.92 140.186L1291.93 140.337ZM992.049 140.749L992.708 136.8L993.694 136.965L993.035 140.913L992.049 140.749ZM629.307 138.989L629.376 136.938L630.375 136.971L630.307 139.022C630.285 139.674 630.271 140.325 630.263 140.974L629.264 140.963C629.271 140.306 629.286 139.648 629.307 138.989ZM805.029 137.501L804.809 141.291L803.811 141.233L804.03 137.443L805.029 137.501ZM1120.16 138.609L1121.11 142.472L1120.14 142.712L1119.19 138.848L1120.16 138.609ZM487.128 139.93L487.99 143.731L487.015 143.952L486.153 140.152L487.128 139.93ZM292.139 145.679L292.303 141.758L293.302 141.8L293.138 145.721L292.139 145.679ZM1293.5 148.108C1293.18 146.829 1292.89 145.538 1292.63 144.235L1293.61 144.037C1293.87 145.325 1294.15 146.601 1294.47 147.865L1293.5 148.108ZM990.73 148.646L991.39 144.697L992.376 144.862L991.717 148.81L990.73 148.646ZM629.524 148.823C629.422 147.521 629.35 146.212 629.306 144.896L630.306 144.863C630.349 146.164 630.421 147.459 630.521 148.745L629.524 148.823ZM804.589 145.081L804.48 146.975C804.44 147.663 804.392 148.349 804.336 149.033L803.34 148.952C803.395 148.276 803.442 147.598 803.481 146.918L803.591 145.023L804.589 145.081ZM1122.06 146.336L1123.01 150.199L1122.04 150.439L1121.09 146.575L1122.06 146.336ZM488.852 147.532L489.714 151.333L488.739 151.554L487.877 147.753L488.852 147.532ZM291.809 153.522L291.974 149.601L292.973 149.643L292.808 153.564L291.809 153.522ZM1295.79 155.693C1295.35 154.452 1294.94 153.197 1294.56 151.929L1295.51 151.641C1295.89 152.894 1296.3 154.134 1296.73 155.36L1295.79 155.693ZM989.412 156.543L990.071 152.594L991.058 152.759L990.398 156.707L989.412 156.543ZM630.485 156.633C630.267 155.343 630.077 154.044 629.916 152.736L630.909 152.614C631.068 153.907 631.255 155.191 631.471 156.466L630.485 156.633ZM803.909 153.123C803.734 154.489 803.527 155.845 803.291 157.19L802.306 157.017C802.54 155.687 802.744 154.347 802.917 152.996L803.909 153.123ZM1123.97 154.063L1124.92 157.926L1123.95 158.165L1123 154.302L1123.97 154.063ZM490.576 155.133L491.438 158.934L490.463 159.155L489.601 155.355L490.576 155.133ZM291.48 161.365L291.645 157.443L292.644 157.485L292.479 161.407L291.48 161.365ZM1298.77 163.04C1298.22 161.843 1297.69 160.63 1297.19 159.403L1298.12 159.026C1298.61 160.239 1299.13 161.438 1299.68 162.621L1298.77 163.04ZM632.147 164.326C631.813 163.061 631.507 161.785 631.229 160.498L632.206 160.287C632.481 161.559 632.784 162.82 633.113 164.07L632.147 164.326ZM988.094 164.439L988.753 160.491L989.739 160.656L989.08 164.604L988.094 164.439ZM802.483 161.223C802.181 162.566 801.848 163.896 801.486 165.214L800.522 164.949C800.88 163.646 801.209 162.331 801.507 161.004L802.483 161.223ZM1125.87 161.789L1126.82 165.653L1125.85 165.892L1124.9 162.029L1125.87 161.789ZM492.3 162.735L493.162 166.535L492.187 166.757L491.325 162.956L492.3 162.735ZM291.151 169.208L291.315 165.286L292.314 165.328L292.15 169.25L291.151 169.208ZM1302.43 170.073C1301.76 168.931 1301.13 167.773 1300.52 166.598L1301.4 166.137C1302.01 167.298 1302.64 168.443 1303.29 169.572L1302.43 170.073ZM634.496 171.835C634.049 170.605 633.629 169.362 633.237 168.107L634.191 167.808C634.579 169.049 634.994 170.277 635.436 171.493L634.496 171.835ZM986.775 172.336L987.435 168.388L988.421 168.553L987.762 172.501L986.775 172.336ZM800.302 169.154C799.875 170.461 799.419 171.754 798.934 173.033L797.999 172.678C798.479 171.414 798.93 170.136 799.352 168.843L800.302 169.154ZM1127.78 169.516L1128.73 173.38L1127.76 173.619L1126.8 169.756L1127.78 169.516ZM494.024 170.336L494.455 172.237C494.603 172.889 494.745 173.541 494.88 174.193L493.901 174.396C493.767 173.75 493.627 173.104 493.48 172.458L493.049 170.557L494.024 170.336ZM1306.71 176.743C1305.95 175.666 1305.21 174.571 1304.49 173.458L1305.33 172.917C1306.04 174.017 1306.77 175.1 1307.53 176.164L1306.71 176.743ZM290.821 177.051L290.986 173.129L291.985 173.171L291.82 177.093L290.821 177.051ZM637.515 179.101C636.958 177.915 636.427 176.715 635.923 175.502L636.847 175.118C637.345 176.318 637.87 177.504 638.42 178.676L637.515 179.101ZM985.457 180.233L986.116 176.285L987.102 176.45L986.443 180.398L985.457 180.233ZM797.384 176.844C796.836 178.104 796.26 179.348 795.656 180.577L794.758 180.135C795.355 178.921 795.925 177.691 796.467 176.445L797.384 176.844ZM1129.68 177.243L1130.63 181.106L1129.66 181.346L1128.71 177.482L1129.68 177.243ZM495.613 178.104C495.835 179.422 496.03 180.739 496.199 182.053L495.208 182.181C495.04 180.879 494.846 179.575 494.627 178.27L495.613 178.104ZM1311.58 182.993C1310.72 181.989 1309.89 180.965 1309.07 179.922L1309.86 179.307C1310.67 180.339 1311.49 181.351 1312.34 182.343L1311.58 182.993ZM290.492 184.893L290.657 180.972L291.656 181.014L291.491 184.935L290.492 184.893ZM641.175 186.066C640.514 184.934 639.877 183.787 639.266 182.624L640.151 182.159C640.755 183.308 641.385 184.443 642.038 185.561L641.175 186.066ZM793.754 184.224C793.09 185.427 792.399 186.612 791.682 187.778L790.83 187.254C791.539 186.101 792.222 184.93 792.878 183.741L793.754 184.224ZM984.139 188.13L984.798 184.182L985.784 184.347L985.125 188.295L984.139 188.13ZM1131.59 184.97L1132.54 188.833L1131.57 189.073L1130.61 185.209L1131.59 184.97ZM1317 188.778C1316.05 187.856 1315.13 186.912 1314.23 185.947L1314.96 185.263C1315.85 186.217 1316.76 187.15 1317.7 188.062L1317 188.778ZM496.634 186.017C496.753 187.345 496.847 188.669 496.915 189.99L495.916 190.042C495.849 188.733 495.756 187.422 495.638 186.107L496.634 186.017ZM290.245 190.776L290.327 188.815L291.327 188.857L291.244 190.818C291.216 191.486 291.195 192.152 291.179 192.817L290.18 192.795C290.195 192.123 290.217 191.45 290.245 190.776ZM645.445 192.675C644.685 191.607 643.949 190.521 643.236 189.418L644.076 188.876C644.78 189.966 645.509 191.039 646.26 192.095L645.445 192.675ZM789.446 191.231C788.673 192.365 787.874 193.48 787.05 194.575L786.251 193.974C787.066 192.892 787.855 191.789 788.62 190.668L789.446 191.231ZM1322.91 194.054C1321.89 193.22 1320.88 192.362 1319.9 191.482L1320.56 190.736C1321.54 191.606 1322.53 192.454 1323.55 193.279L1322.91 194.054ZM982.82 196.027L983.479 192.079L984.466 192.243L983.807 196.192L982.82 196.027ZM1133.49 192.697L1134.44 196.56L1133.47 196.799L1132.52 192.936L1133.49 192.697ZM497.042 193.976C497.059 195.31 497.05 196.64 497.015 197.965L496.015 197.939C496.05 196.626 496.059 195.309 496.042 193.988L497.042 193.976ZM650.289 198.876C649.436 197.88 648.606 196.864 647.798 195.83L648.586 195.214C649.385 196.237 650.206 197.241 651.049 198.226L650.289 198.876ZM1329.28 198.781C1328.18 198.041 1327.1 197.276 1326.04 196.489L1326.64 195.686C1327.69 196.465 1328.75 197.22 1329.84 197.952L1329.28 198.781ZM290.302 200.834C290.23 199.499 290.184 198.157 290.164 196.808L291.164 196.793C291.184 198.129 291.229 199.458 291.3 200.78L290.302 200.834ZM784.501 197.804C783.626 198.86 782.726 199.896 781.804 200.909L781.064 200.236C781.977 199.234 782.866 198.21 783.731 197.166L784.501 197.804ZM1428.79 199.682L1424.76 201.333L1424.38 200.407L1428.41 198.756L1428.79 199.682ZM981.831 201.95L982.161 199.976L983.147 200.14L982.818 202.115C982.707 202.778 982.605 203.441 982.511 204.102L981.521 203.961C981.616 203.292 981.719 202.622 981.831 201.95ZM1336.04 202.918C1334.88 202.279 1333.74 201.615 1332.61 200.925L1333.13 200.072C1334.25 200.754 1335.37 201.411 1336.52 202.043L1336.04 202.918ZM1135.39 200.423L1135.87 202.355C1136.04 203.031 1136.19 203.707 1136.34 204.382L1135.36 204.596C1135.22 203.929 1135.06 203.262 1134.9 202.595L1134.42 200.663L1135.39 200.423ZM655.665 204.621C654.727 203.704 653.809 202.767 652.913 201.809L653.643 201.125C654.529 202.072 655.437 203 656.364 203.906L655.665 204.621ZM496.832 201.947C496.746 203.275 496.633 204.599 496.495 205.916L495.501 205.812C495.637 204.507 495.749 203.197 495.835 201.882L496.832 201.947ZM1420.73 202.984L1416.69 204.634L1416.31 203.709L1420.35 202.058L1420.73 202.984ZM778.964 203.886C777.995 204.855 777.003 205.803 775.989 206.726L775.315 205.987C776.318 205.074 777.299 204.138 778.257 203.179L778.964 203.886ZM1343.14 206.432C1341.93 205.9 1340.73 205.341 1339.55 204.755L1339.99 203.859C1341.16 204.438 1342.35 204.991 1343.54 205.517L1343.14 206.432ZM291.043 208.839C290.868 207.515 290.719 206.184 290.595 204.846L291.591 204.754C291.713 206.079 291.861 207.397 292.034 208.708L291.043 208.839ZM1412.66 206.285L1410.65 207.111C1410.03 207.364 1409.41 207.61 1408.79 207.848L1408.43 206.914C1409.04 206.679 1409.66 206.436 1410.27 206.186L1412.28 205.36L1412.66 206.285ZM661.532 209.865C660.515 209.035 659.518 208.182 658.54 207.308L659.206 206.563C660.173 207.427 661.159 208.269 662.164 209.09L661.532 209.865ZM1350.53 209.287C1349.28 208.867 1348.04 208.419 1346.8 207.944L1347.16 207.011C1348.38 207.481 1349.61 207.924 1350.85 208.339L1350.53 209.287ZM980.774 212.012C980.832 210.673 980.923 209.328 981.049 207.977L982.044 208.07C981.92 209.404 981.83 210.733 981.773 212.055L980.774 212.012ZM1405.07 209.185C1403.81 209.609 1402.54 210.002 1401.28 210.364L1401 209.403C1402.25 209.045 1403.5 208.656 1404.75 208.237L1405.07 209.185ZM1137.12 208.458C1137.34 209.831 1137.52 211.202 1137.67 212.57L1136.67 212.676C1136.53 211.326 1136.35 209.973 1136.13 208.618L1137.12 208.458ZM772.884 209.425C771.829 210.3 770.753 211.15 769.657 211.976L769.056 211.177C770.139 210.361 771.203 209.52 772.246 208.655L772.884 209.425ZM1358.16 211.454C1356.87 211.151 1355.59 210.819 1354.32 210.459L1354.6 209.497C1355.85 209.853 1357.11 210.181 1358.39 210.481L1358.16 211.454ZM496.003 209.876C495.813 211.194 495.598 212.506 495.358 213.811L494.374 213.63C494.612 212.338 494.825 211.039 495.014 209.733L496.003 209.876ZM1397.44 211.369C1396.15 211.676 1394.86 211.953 1393.58 212.198L1393.39 211.216C1394.66 210.973 1395.94 210.7 1397.21 210.396L1397.44 211.369ZM1365.95 212.907C1364.64 212.725 1363.33 212.513 1362.04 212.271L1362.22 211.288C1363.5 211.527 1364.79 211.737 1366.09 211.917L1365.95 212.907ZM667.843 214.564C666.756 213.828 665.686 213.068 664.635 212.285L665.232 211.483C666.272 212.257 667.329 213.008 668.404 213.736L667.843 214.564ZM1389.66 212.852C1388.34 213.04 1387.03 213.197 1385.72 213.322L1385.63 212.327C1386.92 212.203 1388.22 212.048 1389.52 211.862L1389.66 212.852ZM1373.84 213.629C1372.52 213.57 1371.2 213.48 1369.89 213.361L1369.98 212.365C1371.28 212.483 1372.58 212.572 1373.89 212.63L1373.84 213.629ZM1381.78 213.609C1380.45 213.675 1379.12 213.709 1377.81 213.712L1377.8 212.712C1379.11 212.709 1380.41 212.675 1381.73 212.611L1381.78 213.609ZM292.407 216.768C292.128 215.459 291.875 214.142 291.647 212.815L292.632 212.646C292.858 213.959 293.109 215.264 293.385 216.56L292.407 216.768ZM766.314 214.373C765.183 215.145 764.032 215.892 762.863 216.611L762.339 215.76C763.494 215.048 764.632 214.31 765.751 213.547L766.314 214.373ZM674.549 218.68C673.4 218.044 672.267 217.383 671.15 216.698L671.674 215.845C672.777 216.523 673.898 217.176 675.034 217.805L674.549 218.68ZM980.828 220.114C980.752 218.773 980.708 217.423 980.699 216.065L981.699 216.059C981.708 217.399 981.751 218.732 981.826 220.057L980.828 220.114ZM1137.99 216.707C1138.06 218.094 1138.1 219.477 1138.09 220.855L1137.09 220.851C1137.1 219.491 1137.06 218.127 1136.99 216.758L1137.99 216.707ZM494.56 217.716C494.268 219.015 493.952 220.305 493.611 221.587L492.645 221.331C492.982 220.061 493.296 218.783 493.584 217.497L494.56 217.716ZM759.31 218.685C758.112 219.348 756.896 219.983 755.664 220.59L755.222 219.693C756.44 219.093 757.642 218.465 758.827 217.81L759.31 218.685ZM681.598 222.176C680.396 221.646 679.207 221.09 678.034 220.508L678.479 219.612C679.638 220.187 680.813 220.737 682.001 221.261L681.598 222.176ZM294.386 224.558C294.006 223.277 293.65 221.985 293.32 220.683L294.289 220.437C294.616 221.726 294.968 223.005 295.344 224.274L294.386 224.558ZM751.933 222.321C750.678 222.868 749.408 223.386 748.124 223.875L747.768 222.94C749.038 222.457 750.293 221.945 751.533 221.405L751.933 222.321ZM688.933 225.023C687.687 224.603 686.453 224.156 685.233 223.682L685.595 222.75C686.801 223.218 688.02 223.66 689.252 224.075L688.933 225.023ZM981.698 228.161C981.486 226.834 981.307 225.496 981.161 224.149L982.155 224.042C982.299 225.372 982.476 226.693 982.685 228.003L981.698 228.161ZM744.246 225.247C742.946 225.673 741.633 226.069 740.307 226.434L740.041 225.471C741.351 225.109 742.649 224.717 743.934 224.297L744.246 225.247ZM1137.96 225.002C1137.87 226.387 1137.75 227.766 1137.6 229.135L1136.6 229.021C1136.76 227.669 1136.88 226.309 1136.96 224.942L1137.96 225.002ZM492.512 225.422C492.121 226.693 491.705 227.956 491.266 229.209L490.322 228.878C490.757 227.637 491.169 226.387 491.556 225.128L492.512 225.422ZM696.496 227.195C695.216 226.889 693.947 226.555 692.69 226.194L692.966 225.233C694.209 225.59 695.463 225.92 696.729 226.222L696.496 227.195ZM736.317 227.435C734.984 227.736 733.639 228.006 732.284 228.246L732.11 227.261C733.45 227.024 734.779 226.757 736.097 226.459L736.317 227.435ZM704.228 228.675C702.924 228.486 701.63 228.268 700.345 228.022L700.533 227.04C701.803 227.283 703.083 227.498 704.372 227.685L704.228 228.675ZM728.218 228.866C726.863 229.04 725.5 229.184 724.127 229.295L724.046 228.299C725.403 228.188 726.751 228.047 728.09 227.874L728.218 228.866ZM296.973 232.177C296.493 230.928 296.037 229.667 295.605 228.394L296.552 228.073C296.98 229.332 297.431 230.581 297.907 231.818L296.973 232.177ZM712.054 229.455C710.738 229.383 709.431 229.282 708.132 229.152L708.231 228.157C709.516 228.285 710.808 228.385 712.108 228.456L712.054 229.455ZM720.021 229.534C719.336 229.557 718.648 229.573 717.959 229.581C717.299 229.589 716.641 229.589 715.985 229.582L715.995 228.583C716.644 228.589 717.295 228.589 717.948 228.581C718.629 228.573 719.309 228.558 719.986 228.534L720.021 229.534ZM983.38 236.078C983.034 234.778 982.72 233.465 982.438 232.14L983.416 231.932C983.694 233.24 984.005 234.537 984.346 235.821L983.38 236.078ZM489.875 232.944C489.387 234.182 488.876 235.408 488.341 236.624L487.426 236.222C487.955 235.018 488.462 233.803 488.945 232.577L489.875 232.944ZM1137 233.243C1136.77 234.609 1136.5 235.965 1136.19 237.311L1135.21 237.087C1135.52 235.76 1135.79 234.421 1136.02 233.073L1137 233.243ZM300.148 239.564C299.572 238.356 299.018 237.135 298.488 235.901L299.407 235.506C299.932 236.728 300.48 237.937 301.051 239.133L300.148 239.564ZM985.859 243.788C985.382 242.528 984.936 241.253 984.522 239.965L985.474 239.659C985.883 240.931 986.323 242.19 986.794 243.434L985.859 243.788ZM486.666 240.243C486.085 241.439 485.48 242.623 484.854 243.794L483.972 243.322C484.593 242.162 485.191 240.99 485.767 239.805L486.666 240.243ZM1135.15 241.328C1134.76 242.659 1134.34 243.978 1133.89 245.282L1132.95 244.953C1133.39 243.665 1133.81 242.364 1134.19 241.051L1135.15 241.328ZM303.892 246.683C303.223 245.523 302.576 244.349 301.951 243.161L302.836 242.695C303.455 243.872 304.096 245.035 304.759 246.184L303.892 246.683ZM482.908 247.273C482.236 248.42 481.543 249.555 480.829 250.675L479.986 250.137C480.693 249.028 481.38 247.904 482.044 246.768L482.908 247.273ZM989.103 251.205C988.502 249.999 987.93 248.776 987.388 247.537L988.304 247.137C988.839 248.36 989.404 249.568 989.998 250.758L989.103 251.205ZM1132.41 249.161C1131.89 250.442 1131.33 251.706 1130.73 252.954L1129.83 252.523C1130.42 251.292 1130.97 250.044 1131.49 248.781L1132.41 249.161ZM308.178 253.487C307.421 252.382 306.684 251.262 305.969 250.127L306.815 249.594C307.523 250.718 308.253 251.828 309.003 252.922L308.178 253.487ZM478.622 253.995C477.865 255.088 477.088 256.166 476.29 257.228L475.49 256.628C476.28 255.575 477.05 254.508 477.8 253.426L478.622 253.995ZM993.074 258.258C992.355 257.118 991.664 255.959 991.001 254.781L991.872 254.291C992.527 255.453 993.21 256.599 993.92 257.725L993.074 258.258ZM312.979 259.94C312.138 258.897 311.317 257.837 310.517 256.76L311.319 256.163C312.112 257.229 312.925 258.279 313.758 259.312L312.979 259.94ZM1128.84 256.648C1128.18 257.863 1127.48 259.059 1126.76 260.235L1125.9 259.708C1126.62 258.548 1127.31 257.368 1127.96 256.169L1128.84 256.648ZM473.835 260.37C472.998 261.402 472.14 262.417 471.263 263.416L470.511 262.756C471.38 261.767 472.23 260.761 473.059 259.74L473.835 260.37ZM997.728 264.883C996.899 263.819 996.096 262.733 995.319 261.628L996.137 261.053C996.904 262.145 997.698 263.217 998.517 264.268L997.728 264.883ZM318.264 266.002C317.345 265.026 316.444 264.032 315.563 263.022L316.317 262.364C317.189 263.366 318.081 264.35 318.992 265.316L318.264 266.002ZM1124.48 263.702C1123.68 264.836 1122.86 265.95 1122.01 267.04L1121.22 266.424C1122.06 265.348 1122.87 264.25 1123.66 263.13L1124.48 263.702ZM468.576 266.361C467.662 267.325 466.729 268.272 465.778 269.201L465.079 268.486C466.021 267.565 466.945 266.628 467.85 265.673L468.576 266.361ZM1003.01 271.013C1002.08 270.036 1001.18 269.036 1000.3 268.013L1001.05 267.36C1001.92 268.37 1002.82 269.358 1003.74 270.324L1003.01 271.013ZM324 271.638C323.008 270.736 322.034 269.815 321.078 268.875L321.778 268.162C322.725 269.093 323.69 270.005 324.673 270.899L324 271.638ZM1119.37 270.239C1118.46 271.28 1117.52 272.297 1116.55 273.288L1115.84 272.591C1116.79 271.612 1117.72 270.608 1118.61 269.581L1119.37 270.239ZM462.873 271.932C461.888 272.823 460.885 273.695 459.865 274.549L459.223 273.782C460.233 272.937 461.226 272.073 462.202 271.19L462.873 271.932ZM1008.88 276.593C1007.86 275.712 1006.86 274.806 1005.88 273.875L1006.57 273.151C1007.53 274.07 1008.52 274.965 1009.53 275.835L1008.88 276.593ZM330.153 276.817C329.095 275.993 328.052 275.15 327.027 274.287L327.67 273.522C328.686 274.376 329.719 275.212 330.767 276.027L330.153 276.817ZM1113.58 276.18C1112.56 277.115 1111.52 278.023 1110.45 278.904L1109.81 278.132C1110.87 277.263 1111.9 276.367 1112.9 275.444L1113.58 276.18ZM456.759 277.047C455.709 277.859 454.642 278.652 453.558 279.425L452.978 278.611C454.051 277.845 455.107 277.061 456.147 276.256L456.759 277.047ZM1015.27 281.566C1014.16 280.79 1013.08 279.987 1012.01 279.158L1012.63 278.369C1013.68 279.188 1014.75 279.981 1015.84 280.747L1015.27 281.566ZM336.687 281.504C335.568 280.765 334.463 280.005 333.375 279.224L333.958 278.411C335.036 279.185 336.13 279.938 337.238 280.67L336.687 281.504ZM1107.17 281.451C1106.06 282.268 1104.92 283.056 1103.76 283.814L1103.21 282.976C1104.36 282.228 1105.48 281.451 1106.58 280.645L1107.17 281.451ZM450.267 281.677C449.158 282.405 448.033 283.113 446.893 283.799L446.377 282.943C447.506 282.263 448.62 281.562 449.718 280.841L450.267 281.677ZM343.565 285.673C342.391 285.023 341.232 284.35 340.086 283.656L340.604 282.801C341.739 283.488 342.888 284.155 344.05 284.799L343.565 285.673ZM1022.12 285.88C1020.94 285.218 1019.78 284.527 1018.64 283.808L1019.17 282.962C1020.3 283.672 1021.44 284.355 1022.61 285.009L1022.12 285.88ZM443.439 285.788C442.276 286.428 441.099 287.046 439.908 287.643L439.461 286.748C440.64 286.158 441.806 285.546 442.957 284.912L443.439 285.788ZM1100.22 285.984C1099.03 286.672 1097.81 287.33 1096.57 287.955L1096.12 287.062C1097.34 286.446 1098.54 285.797 1099.72 285.117L1100.22 285.984ZM350.745 289.295C349.524 288.738 348.315 288.157 347.119 287.554L347.57 286.661C348.754 287.259 349.951 287.833 351.16 288.385L350.745 289.295ZM1029.36 289.489C1028.12 288.948 1026.9 288.376 1025.7 287.776L1026.14 286.88C1027.33 287.474 1028.54 288.038 1029.76 288.573L1029.36 289.489ZM436.306 289.359C435.099 289.905 433.879 290.43 432.646 290.931L432.269 290.005C433.49 289.508 434.699 288.989 435.894 288.448L436.306 289.359ZM1092.82 289.721C1091.55 290.273 1090.27 290.792 1088.97 291.277L1088.62 290.34C1089.91 289.861 1091.17 289.349 1092.42 288.805L1092.82 289.721ZM358.187 292.346C356.926 291.886 355.676 291.402 354.437 290.894L354.816 289.969C356.043 290.471 357.281 290.951 358.53 291.407L358.187 292.346ZM1036.94 292.35C1035.65 291.937 1034.37 291.492 1033.11 291.015L1033.47 290.08C1034.71 290.55 1035.97 290.99 1037.24 291.398L1036.94 292.35ZM428.925 292.36C427.678 292.812 426.419 293.24 425.148 293.645L424.845 292.692C426.103 292.291 427.35 291.867 428.585 291.42L428.925 292.36ZM1085.04 292.618C1083.73 293.027 1082.4 293.402 1081.05 293.742L1080.81 292.773C1082.14 292.437 1083.45 292.067 1084.75 291.663L1085.04 292.618ZM1044.76 294.43C1043.44 294.149 1042.13 293.835 1040.83 293.49L1041.08 292.523C1042.37 292.865 1043.66 293.174 1044.97 293.451L1044.76 294.43ZM365.844 294.805C364.549 294.444 363.264 294.059 361.99 293.65L362.296 292.698C363.558 293.103 364.83 293.484 366.112 293.841L365.844 294.805ZM1077 294.647C1076.32 294.78 1075.64 294.904 1074.95 295.019C1074.28 295.131 1073.61 295.235 1072.94 295.331L1072.8 294.341C1073.46 294.246 1074.13 294.144 1074.79 294.033C1075.47 293.919 1076.14 293.797 1076.81 293.666L1077 294.647ZM421.326 294.782C420.051 295.134 418.765 295.463 417.467 295.768L417.238 294.795C418.523 294.493 419.797 294.167 421.06 293.818L421.326 294.782ZM1052.76 295.702C1051.41 295.557 1050.07 295.379 1048.74 295.167L1048.9 294.18C1050.21 294.389 1051.53 294.565 1052.86 294.708L1052.76 295.702ZM1068.93 295.805C1067.58 295.931 1066.23 296.024 1064.89 296.082L1064.85 295.083C1066.17 295.025 1067.5 294.934 1068.83 294.809L1068.93 295.805ZM373.67 296.654C372.352 296.397 371.043 296.115 369.742 295.807L369.972 294.834C371.26 295.138 372.557 295.418 373.862 295.673L373.67 296.654ZM1060.84 296.159C1059.48 296.151 1058.13 296.108 1056.79 296.033L1056.85 295.034C1058.17 295.109 1059.5 295.151 1060.85 295.159L1060.84 296.159ZM413.569 296.607C412.268 296.861 410.957 297.091 409.636 297.297L409.483 296.309C410.791 296.105 412.089 295.877 413.377 295.626L413.569 296.607ZM381.62 297.884C380.282 297.731 378.953 297.551 377.631 297.347L377.784 296.359C379.093 296.561 380.41 296.739 381.734 296.891L381.62 297.884ZM405.694 297.835C405.033 297.913 404.369 297.984 403.703 298.05C403.032 298.116 402.361 298.175 401.691 298.228L401.612 297.231C402.276 297.179 402.94 297.12 403.605 297.055C404.265 296.99 404.922 296.919 405.577 296.842L405.694 297.835ZM389.636 298.488C388.292 298.44 386.955 298.365 385.624 298.265L385.699 297.267C387.017 297.367 388.341 297.441 389.672 297.489L389.636 298.488ZM397.685 298.469C396.337 298.524 394.995 298.553 393.658 298.556L393.655 297.556C394.979 297.553 396.309 297.524 397.644 297.47L397.685 298.469Z" fill="#307AFD"/>
</svg>
